<svg xmlns="http://www.w3.org/2000/svg" xmlns:xlink="http://www.w3.org/1999/xlink" width="1080" zoomAndPan="magnify" viewBox="0 0 810 809.999993" height="1080" preserveAspectRatio="xMidYMid meet" version="1.0"><defs><clipPath id="4c791cbdcf"><path d="M 599 60 L 766.972656 60 L 766.972656 720 L 599 720 Z M 599 60 " clip-rule="nonzero"/></clipPath><clipPath id="cb725c9217"><path d="M 23.910156 742 L 766.773438 742 L 766.773438 772.550781 L 23.910156 772.550781 Z M 23.910156 742 " clip-rule="nonzero"/></clipPath></defs><path fill="#f1ae2b" d="M 160.425781 689.519531 L 54.183594 689.519531 L 54.183594 465.617188 L 160.425781 465.617188 Z M 39.078125 435.347656 C 30.703125 435.347656 23.910156 442.074219 23.910156 450.449219 L 23.910156 704.6875 C 23.910156 713.0625 30.703125 719.855469 39.078125 719.855469 L 175.597656 719.855469 C 183.972656 719.855469 190.765625 713.0625 190.765625 704.6875 L 190.699219 450.449219 C 190.699219 442.074219 183.972656 435.347656 175.597656 435.347656 L 39.078125 435.347656 " fill-opacity="1" fill-rule="nonzero"/><path fill="#f1ae2b" d="M 352.472656 689.519531 L 246.230469 689.519531 L 246.230469 340.839844 L 352.472656 340.839844 Z M 231.058594 310.570312 C 222.75 310.570312 215.957031 317.363281 215.957031 325.671875 L 215.957031 704.6875 C 215.957031 713.0625 222.75 719.855469 231.058594 719.855469 L 367.578125 719.855469 C 375.953125 719.855469 382.746094 713.0625 382.746094 704.6875 L 382.746094 325.671875 C 382.746094 317.363281 375.953125 310.570312 367.578125 310.570312 L 231.058594 310.570312 " fill-opacity="1" fill-rule="nonzero"/><path fill="#f1ae2b" d="M 438.210938 222.195312 L 544.457031 222.195312 L 544.457031 689.519531 L 438.210938 689.519531 Z M 423.105469 719.855469 L 559.625 719.855469 C 567.933594 719.855469 574.792969 713.0625 574.792969 704.6875 L 574.792969 207.027344 C 574.792969 198.652344 567.933594 191.859375 559.625 191.859375 L 423.105469 191.859375 C 414.730469 191.859375 407.9375 198.652344 407.9375 207.027344 L 407.9375 704.6875 C 407.9375 713.0625 414.730469 719.855469 423.105469 719.855469 " fill-opacity="1" fill-rule="nonzero"/><g clip-path="url(#4c791cbdcf)"><path fill="#f1ae2b" d="M 736.503906 689.519531 L 630.257812 689.519531 L 630.257812 90.890625 L 736.503906 90.890625 Z M 751.605469 60.617188 L 615.085938 60.617188 C 606.777344 60.617188 599.917969 67.410156 599.917969 75.789062 L 599.917969 704.6875 C 599.917969 713.0625 606.777344 719.855469 615.085938 719.855469 L 751.605469 719.855469 C 759.980469 719.855469 766.773438 713.0625 766.773438 704.6875 L 766.773438 75.789062 C 766.773438 67.410156 759.980469 60.617188 751.605469 60.617188 " fill-opacity="1" fill-rule="nonzero"/></g><path fill="#f1ae2b" d="M 400.355469 160.335938 C 402.136719 161.0625 404.046875 161.390625 405.894531 161.390625 C 411.894531 161.390625 417.632812 157.761719 420.007812 151.761719 L 456.875 58.308594 L 456.9375 58.246094 C 457.003906 57.980469 457.070312 57.71875 457.136719 57.386719 C 457.136719 57.320312 457.203125 57.1875 457.203125 57.125 C 457.402344 56.597656 457.53125 56.132812 457.664062 55.671875 C 457.664062 55.605469 457.730469 55.476562 457.730469 55.410156 C 457.796875 54.945312 457.796875 54.484375 457.863281 53.957031 C 457.863281 53.890625 457.863281 53.761719 457.863281 53.695312 C 457.929688 53.363281 457.996094 53.101562 457.996094 52.769531 C 457.996094 52.769531 457.996094 52.703125 457.996094 52.703125 C 457.996094 52.640625 457.996094 52.574219 457.996094 52.507812 C 457.929688 51.980469 457.863281 51.519531 457.796875 51.054688 C 457.796875 50.59375 457.796875 50.132812 457.664062 49.738281 C 457.664062 49.671875 457.664062 49.605469 457.664062 49.539062 C 457.53125 49.078125 457.335938 48.617188 457.203125 48.152344 C 457.136719 48.023438 457.136719 47.890625 457.070312 47.824219 C 457.003906 47.496094 456.9375 47.164062 456.808594 46.902344 C 456.808594 46.835938 456.808594 46.769531 456.742188 46.703125 C 456.609375 46.308594 456.28125 45.910156 456.082031 45.515625 C 455.882812 45.054688 455.6875 44.660156 455.355469 44.195312 C 455.355469 44.195312 455.355469 44.195312 455.355469 44.132812 C 455.027344 43.734375 454.695312 43.339844 454.300781 42.945312 C 454.039062 42.613281 453.839844 42.285156 453.511719 41.953125 C 453.511719 41.890625 453.445312 41.890625 453.445312 41.824219 C 453.3125 41.757812 453.246094 41.691406 453.113281 41.625 C 452.851562 41.363281 452.585938 41.164062 452.324219 40.964844 C 451.925781 40.636719 451.664062 40.371094 451.203125 40.109375 C 451.203125 40.042969 451.136719 40.042969 451.070312 39.976562 C 450.738281 39.710938 450.34375 39.582031 449.949219 39.382812 C 449.554688 39.117188 449.089844 38.855469 448.628906 38.65625 C 448.5625 38.65625 448.496094 38.65625 448.433594 38.589844 C 448.101562 38.460938 447.839844 38.460938 447.574219 38.328125 C 447.441406 38.328125 447.375 38.261719 447.3125 38.261719 C 446.78125 38.128906 446.320312 37.933594 445.792969 37.800781 C 445.726562 37.800781 445.660156 37.800781 445.53125 37.800781 C 445.199219 37.734375 444.738281 37.734375 444.410156 37.667969 C 444.277344 37.667969 444.078125 37.667969 443.945312 37.601562 C 443.617188 37.601562 443.289062 37.535156 442.957031 37.535156 L 342.316406 36.941406 L 342.253906 36.941406 C 333.941406 36.941406 327.148438 43.667969 327.148438 51.980469 C 327.082031 60.355469 333.808594 67.214844 342.1875 67.214844 L 393.757812 67.542969 L 30.570312 313.140625 C 23.648438 317.824219 21.800781 327.253906 26.546875 334.179688 C 29.449219 338.53125 34.199219 340.839844 39.078125 340.839844 C 41.980469 340.839844 44.949219 339.984375 47.519531 338.269531 L 410.773438 92.605469 L 391.78125 140.683594 C 388.746094 148.464844 392.570312 157.234375 400.355469 160.335938 " fill-opacity="1" fill-rule="nonzero"/><g clip-path="url(#cb725c9217)"><path fill="#f1ae2b" d="M 751.605469 742.214844 L 39.078125 742.214844 C 30.703125 742.214844 23.910156 749.007812 23.910156 757.382812 C 23.910156 765.757812 30.703125 772.550781 39.078125 772.550781 L 751.605469 772.550781 C 759.980469 772.550781 766.773438 765.757812 766.773438 757.382812 C 766.773438 749.007812 759.980469 742.214844 751.605469 742.214844 " fill-opacity="1" fill-rule="nonzero"/></g></svg>