<svg xmlns="http://www.w3.org/2000/svg" xmlns:xlink="http://www.w3.org/1999/xlink" width="1080" zoomAndPan="magnify" viewBox="0 0 810 809.999993" height="1080" preserveAspectRatio="xMidYMid meet" version="1.0"><defs><clipPath id="b2a46d7019"><path d="M 207.03125 375 L 608 375 L 608 615.714844 L 207.03125 615.714844 Z M 207.03125 375 " clip-rule="nonzero"/></clipPath><clipPath id="1ede00b0fd"><path d="M 527.136719 339 L 800.066406 339 L 800.066406 532 L 527.136719 532 Z M 527.136719 339 " clip-rule="nonzero"/></clipPath></defs><path fill="#f1ae2b" d="M 292.144531 265.558594 C 292.144531 201.859375 343.785156 150.222656 407.480469 150.222656 C 471.179688 150.222656 522.824219 201.859375 522.824219 265.558594 C 522.824219 329.261719 471.179688 380.902344 407.480469 380.902344 C 343.785156 380.902344 292.144531 329.261719 292.144531 265.558594 " fill-opacity="1" fill-rule="nonzero"/><g clip-path="url(#b2a46d7019)"><path fill="#f1ae2b" d="M 605.710938 552.648438 L 589.265625 489.25 C 575.855469 437.59375 539.679688 396.617188 493.171875 375.933594 C 469.507812 394.335938 439.789062 405.324219 407.480469 405.324219 C 375.179688 405.324219 345.460938 394.335938 321.789062 375.933594 C 275.28125 396.617188 239.105469 437.59375 225.699219 489.25 L 209.257812 552.648438 C 200.972656 584.5625 225.066406 615.707031 258.046875 615.707031 L 556.921875 615.707031 C 589.898438 615.707031 613.996094 584.5625 605.710938 552.648438 " fill-opacity="1" fill-rule="nonzero"/></g><path fill="#f1ae2b" d="M 82.628906 250.789062 C 82.628906 199.804688 123.964844 158.46875 174.949219 158.46875 C 225.933594 158.46875 267.269531 199.804688 267.269531 250.789062 C 267.269531 301.773438 225.933594 343.109375 174.949219 343.109375 C 123.964844 343.109375 82.628906 301.773438 82.628906 250.789062 " fill-opacity="1" fill-rule="nonzero"/><path fill="#f1ae2b" d="M 204.546875 488.398438 C 217.371094 438.984375 247.949219 397.90625 288.378906 371.265625 C 275.78125 357.667969 260.53125 346.6875 243.535156 339.128906 C 224.589844 353.863281 200.800781 362.660156 174.949219 362.660156 C 149.089844 362.660156 125.300781 353.863281 106.355469 339.128906 C 69.132812 355.683594 40.179688 388.484375 29.449219 429.832031 L 16.28125 480.574219 C 9.652344 506.125 28.941406 531.054688 55.332031 531.054688 L 193.480469 531.054688 L 204.546875 488.398438 " fill-opacity="1" fill-rule="nonzero"/><path fill="#f1ae2b" d="M 732.902344 250.789062 C 732.902344 199.804688 691.566406 158.46875 640.582031 158.46875 C 589.59375 158.46875 548.261719 199.804688 548.261719 250.789062 C 548.261719 301.773438 589.59375 343.109375 640.582031 343.109375 C 691.566406 343.109375 732.902344 301.773438 732.902344 250.789062 " fill-opacity="1" fill-rule="nonzero"/><g clip-path="url(#1ede00b0fd)"><path fill="#f1ae2b" d="M 610.976562 488.398438 C 598.160156 438.984375 567.582031 397.90625 527.152344 371.265625 C 539.75 357.667969 554.996094 346.6875 571.996094 339.128906 C 590.941406 353.863281 614.722656 362.660156 640.582031 362.660156 C 666.441406 362.660156 690.222656 353.863281 709.175781 339.128906 C 746.398438 355.683594 775.351562 388.484375 786.082031 429.832031 L 799.25 480.574219 C 805.878906 506.125 786.589844 531.054688 760.191406 531.054688 L 622.050781 531.054688 L 610.976562 488.398438 " fill-opacity="1" fill-rule="nonzero"/></g></svg>