<svg xmlns="http://www.w3.org/2000/svg" width="1080" height="1080" version="1.0" viewBox="0 0 810 810">
  <defs>
    <clipPath id="a">
      <path d="M48.246 6.395h713.25v797.25H48.246Zm0 0"/>
    </clipPath>
  </defs>
  <g clip-path="url(#a)">
    <path fill="#f1ae2b" d="M229.637 127.29h47.879v47.882h-47.88Zm114.91 47.882h47.879v-47.883h-47.88Zm-114.91 90.973h47.879v-47.883h-47.88Zm114.91 0h47.879v-47.883h-47.88Zm-114.91 90.972h47.879v-47.883h-47.88Zm114.91 0h47.879v-47.883h-47.88Zm-114.91 90.969h47.879v-47.879h-47.88Zm114.91 0h47.879v-47.879h-47.88Zm-114.91 90.973h47.879v-47.88h-47.88Zm114.91 0h47.879v-47.88h-47.88Zm-114.91 90.972h47.879v-47.879h-47.88Zm114.91 0h47.879v-47.879h-47.88Zm199.898-227.43h47.883v-47.878h-47.883Zm0 90.973h47.883v-47.879h-47.883Zm0 90.973h47.883v-47.883h-47.883Zm0 90.973h47.883v-47.883h-47.883Zm217.258 113.113c0 8.379-6.586 14.965-14.965 14.965H63.25c-8.379 0-14.96-6.586-14.96-14.965 0-8.38 6.581-14.961 14.96-14.961h72.422V63.852c0-8.38 6.582-14.965 14.96-14.965h50.872V21.355c0-8.378 6.586-14.96 14.965-14.96h189.125c8.379 0 14.96 6.582 14.96 14.96v27.532h50.876c8.379 0 14.96 6.586 14.96 14.965v186.73h173.567c8.379 0 14.961 6.582 14.961 14.961v507.531h72.422c7.777.598 14.363 7.18 14.363 15.559Zm-399.8-14.961v-70.024H260.16v70.024Zm283.093 0V281.105H486.391v439.899h-29.926V78.812H267.938V48.888H390.03V36.32h-158.6v27.532c0 8.378-6.582 14.96-14.961 14.96h-50.875v694.262h64.64v-84.988c0-8.379 6.582-14.961 14.961-14.961h131.672c8.38 0 14.961 6.582 14.961 14.96v84.99h253.168Zm0 0"/>
  </g>
</svg>
