<svg xmlns="http://www.w3.org/2000/svg" width="1080" height="1080" version="1.0" viewBox="0 0 810 810">
  <defs>
    <clipPath id="a">
      <path d="M599 60h167.973v660H599Zm0 0"/>
    </clipPath>
    <clipPath id="b">
      <path d="M23.91 742h742.863v30.55H23.91Zm0 0"/>
    </clipPath>
  </defs>
  <path fill="#f1ae2b" d="M160.426 689.52H54.184V465.617h106.242ZM39.078 435.348c-8.375 0-15.168 6.726-15.168 15.101v254.238c0 8.375 6.793 15.168 15.168 15.168h136.52c8.375 0 15.168-6.793 15.168-15.168l-.067-254.238a15.057 15.057 0 0 0-15.101-15.101H39.078M352.473 689.52H246.23V340.84h106.243ZM231.059 310.57c-8.309 0-15.102 6.793-15.102 15.102v379.015c0 8.375 6.793 15.168 15.102 15.168h136.52c8.374 0 15.167-6.793 15.167-15.168V325.673c0-8.309-6.793-15.102-15.168-15.102h-136.52m207.152-88.376h106.247V689.52H438.211Zm-15.105 497.66h136.52c8.309 0 15.168-6.793 15.168-15.168v-497.66c0-8.375-6.86-15.168-15.168-15.168h-136.52c-8.375 0-15.168 6.793-15.168 15.168v497.66c0 8.375 6.793 15.168 15.168 15.168"/>
  <g clip-path="url(#a)">
    <path fill="#f1ae2b" d="M736.504 689.52H630.258V90.89h106.246Zm15.101-628.903h-136.52c-8.308 0-15.167 6.793-15.167 15.172v628.898c0 8.375 6.86 15.168 15.168 15.168h136.52c8.374 0 15.167-6.793 15.167-15.168V75.79c0-8.379-6.793-15.172-15.168-15.172"/>
  </g>
  <path fill="#f1ae2b" d="M400.355 160.336c1.782.726 3.692 1.055 5.54 1.055 6 0 11.738-3.63 14.113-9.63l36.867-93.452.063-.063c.066-.266.132-.527.199-.86 0-.066.066-.199.066-.261.2-.527.328-.992.461-1.453 0-.067.066-.195.066-.262.067-.465.067-.926.133-1.453v-.262c.067-.332.133-.593.133-.925v-.262c-.066-.528-.133-.988-.2-1.453 0-.461 0-.922-.132-1.317v-.199c-.133-.46-.328-.922-.46-1.387-.067-.129-.067-.261-.134-.328-.066-.328-.132-.66-.261-.922 0-.066 0-.132-.067-.199-.133-.394-.46-.793-.66-1.187a6.594 6.594 0 0 0-.727-1.32v-.063c-.328-.399-.66-.793-1.054-1.188-.262-.332-.461-.66-.79-.992 0-.062-.066-.062-.066-.129-.132-.066-.199-.133-.332-.199-.261-.262-.527-.46-.789-.66-.398-.328-.66-.594-1.12-.856 0-.066-.067-.066-.134-.132-.332-.266-.726-.395-1.12-.594a8.409 8.409 0 0 0-1.321-.727c-.067 0-.133 0-.195-.066-.332-.13-.594-.13-.86-.262-.133 0-.199-.066-.262-.066-.53-.133-.992-.328-1.519-.461h-.262c-.332-.067-.793-.067-1.12-.133-.134 0-.333 0-.466-.066-.328 0-.656-.067-.988-.067l-100.64-.594h-.063c-8.313 0-15.106 6.727-15.106 15.04-.066 8.374 6.66 15.234 15.04 15.234l51.57.328L30.57 313.141c-6.922 4.683-8.77 14.113-4.023 21.039 2.902 4.351 7.652 6.66 12.531 6.66 2.902 0 5.871-.856 8.442-2.57L410.773 92.605l-18.992 48.079c-3.035 7.78.79 16.55 8.574 19.652"/>
  <g clip-path="url(#b)">
    <path fill="#f1ae2b" d="M751.605 742.215H39.078c-8.375 0-15.168 6.793-15.168 15.168s6.793 15.168 15.168 15.168h712.527c8.375 0 15.168-6.793 15.168-15.168s-6.793-15.168-15.168-15.168"/>
  </g>
</svg>
