<svg xmlns="http://www.w3.org/2000/svg" xmlns:xlink="http://www.w3.org/1999/xlink" width="1080" zoomAndPan="magnify" viewBox="0 0 810 809.999993" height="1080" preserveAspectRatio="xMidYMid meet" version="1.0"><defs><clipPath id="5faeba0d3b"><path d="M 19.210938 220 L 499 220 L 499 790.960938 L 19.210938 790.960938 Z M 19.210938 220 " clip-rule="nonzero"/></clipPath><clipPath id="09a254986b"><path d="M 354 19.210938 L 790.960938 19.210938 L 790.960938 790.960938 L 354 790.960938 Z M 354 19.210938 " clip-rule="nonzero"/></clipPath></defs><g clip-path="url(#5faeba0d3b)"><path fill="#f1ae2b" d="M 304.355469 254.035156 C 165.402344 254.035156 52.757812 366.683594 52.757812 505.636719 C 52.757812 644.589844 165.402344 757.238281 304.355469 757.238281 C 368.175781 757.238281 426.414062 733.496094 470.773438 694.339844 C 477.71875 688.210938 488.320312 688.871094 494.449219 695.816406 C 500.582031 702.765625 499.921875 713.359375 492.972656 719.492188 C 442.714844 763.847656 376.664062 790.785156 304.355469 790.785156 C 146.875 790.785156 19.210938 663.117188 19.210938 505.636719 C 19.210938 348.15625 146.875 220.488281 304.355469 220.488281 C 347.78125 220.488281 388.984375 230.207031 425.867188 247.605469 C 434.246094 251.558594 437.832031 261.554688 433.878906 269.929688 C 429.929688 278.308594 419.933594 281.898438 411.554688 277.945312 C 379.054688 262.617188 342.730469 254.035156 304.355469 254.035156 Z M 304.355469 254.035156 " fill-opacity="1" fill-rule="evenodd"/></g><path fill="#f1ae2b" d="M 304.355469 321.128906 C 202.457031 321.128906 119.847656 403.734375 119.847656 505.636719 C 119.847656 607.539062 202.457031 690.144531 304.355469 690.144531 C 372.628906 690.144531 432.261719 653.070312 464.191406 597.875 C 468.828125 589.859375 479.085938 587.117188 487.109375 591.757812 C 495.125 596.398438 497.867188 606.65625 493.226562 614.675781 C 455.550781 679.808594 385.085938 723.691406 304.355469 723.691406 C 183.929688 723.691406 86.304688 626.066406 86.304688 505.636719 C 86.304688 385.207031 183.929688 287.582031 304.355469 287.582031 C 329.8125 287.582031 354.285156 291.953125 377.039062 299.996094 C 385.773438 303.082031 390.351562 312.664062 387.265625 321.398438 C 384.175781 330.132812 374.59375 334.710938 365.859375 331.625 C 346.644531 324.832031 325.953125 321.128906 304.355469 321.128906 Z M 304.355469 321.128906 " fill-opacity="1" fill-rule="evenodd"/><path fill="#f1ae2b" d="M 266.847656 404.996094 C 290.460938 393.191406 318.25 393.191406 341.863281 404.996094 L 378.949219 423.542969 C 387.238281 427.683594 390.59375 437.757812 386.453125 446.042969 C 382.308594 454.332031 372.234375 457.6875 363.949219 453.546875 L 326.859375 435 C 312.695312 427.917969 296.019531 427.917969 281.851562 435 L 267.6875 442.085938 C 259.320312 446.269531 254.035156 454.816406 254.035156 464.167969 C 254.035156 477.808594 265.089844 488.863281 278.730469 488.863281 L 329.984375 488.863281 C 362.148438 488.863281 388.222656 514.9375 388.222656 547.105469 C 388.222656 569.160156 375.761719 589.328125 356.027344 599.195312 L 341.863281 606.277344 C 318.25 618.082031 290.460938 618.082031 266.847656 606.277344 L 229.761719 587.730469 C 221.476562 583.589844 218.117188 573.515625 222.261719 565.230469 C 226.402344 556.941406 236.476562 553.585938 244.765625 557.726562 L 281.851562 576.273438 C 296.019531 583.355469 312.695312 583.355469 326.859375 576.273438 L 341.027344 569.1875 C 349.394531 565.003906 354.675781 556.457031 354.675781 547.105469 C 354.675781 533.464844 343.621094 522.410156 329.984375 522.410156 L 278.730469 522.410156 C 246.5625 522.410156 220.488281 496.335938 220.488281 464.167969 C 220.488281 442.113281 232.953125 421.945312 252.683594 412.078125 Z M 266.847656 404.996094 " fill-opacity="1" fill-rule="evenodd"/><path fill="#f1ae2b" d="M 304.355469 354.675781 C 313.621094 354.675781 321.128906 362.1875 321.128906 371.449219 L 321.128906 639.824219 C 321.128906 649.085938 313.621094 656.597656 304.355469 656.597656 C 295.09375 656.597656 287.582031 649.085938 287.582031 639.824219 L 287.582031 371.449219 C 287.582031 362.1875 295.09375 354.675781 304.355469 354.675781 Z M 304.355469 354.675781 " fill-opacity="1" fill-rule="evenodd"/><g clip-path="url(#09a254986b)"><path fill="#f1ae2b" d="M 572.730469 19.210938 C 578.339844 19.210938 583.574219 22.011719 586.683594 26.679688 L 787.964844 328.597656 C 791.398438 333.746094 791.714844 340.363281 788.796875 345.816406 C 785.878906 351.273438 780.195312 354.675781 774.011719 354.675781 L 680.996094 354.675781 L 680.996094 774.011719 C 680.996094 783.273438 673.484375 790.785156 664.222656 790.785156 L 484.671875 790.785156 C 475.40625 790.785156 467.898438 783.273438 467.898438 774.011719 L 467.898438 354.675781 L 371.449219 354.675781 C 365.265625 354.675781 359.582031 351.273438 356.664062 345.816406 C 353.742188 340.363281 354.0625 333.746094 357.496094 328.597656 L 558.773438 26.679688 C 561.882812 22.011719 567.121094 19.210938 572.730469 19.210938 Z M 402.792969 321.128906 L 484.671875 321.128906 C 493.933594 321.128906 501.441406 328.640625 501.441406 337.902344 L 501.441406 757.238281 L 647.449219 757.238281 L 647.449219 337.902344 C 647.449219 328.640625 654.957031 321.128906 664.222656 321.128906 L 742.667969 321.128906 L 572.730469 66.222656 Z M 402.792969 321.128906 " fill-opacity="1" fill-rule="evenodd"/></g></svg>