<svg xmlns="http://www.w3.org/2000/svg" width="1080" height="1080" version="1.0" viewBox="0 0 810 810">
  <defs>
    <clipPath id="a">
      <path d="M19.21 220H499v570.96H19.21Zm0 0"/>
    </clipPath>
    <clipPath id="b">
      <path d="M354 19.21h436.96v771.75H354Zm0 0"/>
    </clipPath>
  </defs>
  <g clip-path="url(#a)">
    <path fill="#f1ae2b" fill-rule="evenodd" d="M304.355 254.035c-138.953 0-251.597 112.649-251.597 251.602s112.644 251.601 251.597 251.601c63.82 0 122.06-23.742 166.418-62.898 6.946-6.13 17.547-5.469 23.676 1.476 6.133 6.95 5.473 17.543-1.476 23.676-50.258 44.356-116.309 71.293-188.618 71.293-157.48 0-285.144-127.668-285.144-285.148 0-157.48 127.664-285.149 285.144-285.149 43.426 0 84.63 9.719 121.512 27.117 8.38 3.954 11.965 13.95 8.012 22.325-3.95 8.379-13.945 11.968-22.324 8.015-32.5-15.328-68.825-23.91-107.2-23.91Zm0 0"/>
  </g>
  <path fill="#f1ae2b" fill-rule="evenodd" d="M304.355 321.129c-101.898 0-184.507 82.605-184.507 184.508 0 101.902 82.609 184.508 184.507 184.508 68.274 0 127.907-37.075 159.836-92.27 4.637-8.016 14.895-10.758 22.918-6.117 8.016 4.64 10.758 14.898 6.118 22.918C455.55 679.809 385.086 723.69 304.355 723.69c-120.425 0-218.05-97.625-218.05-218.054 0-120.43 97.625-218.055 218.05-218.055 25.457 0 49.93 4.371 72.684 12.414 8.734 3.086 13.313 12.668 10.227 21.402-3.09 8.735-12.672 13.313-21.407 10.227-19.214-6.793-39.906-10.496-61.504-10.496Zm0 0"/>
  <path fill="#f1ae2b" fill-rule="evenodd" d="M266.848 404.996a83.877 83.877 0 0 1 75.015 0l37.086 18.547c8.29 4.14 11.645 14.215 7.504 22.5-4.144 8.289-14.219 11.644-22.504 7.504L326.86 435a50.328 50.328 0 0 0-45.007 0l-14.164 7.086a24.689 24.689 0 0 0-13.653 22.082c0 13.64 11.055 24.695 24.695 24.695h51.254c32.164 0 58.239 26.075 58.239 58.242a58.24 58.24 0 0 1-32.196 52.09l-14.164 7.082a83.877 83.877 0 0 1-75.015 0l-37.086-18.547c-8.285-4.14-11.645-14.214-7.5-22.5 4.14-8.289 14.215-11.644 22.504-7.503l37.086 18.546a50.328 50.328 0 0 0 45.007 0l14.168-7.086a24.685 24.685 0 0 0 13.649-22.082c0-13.64-11.055-24.695-24.692-24.695H278.73c-32.168 0-58.242-26.074-58.242-58.242a58.247 58.247 0 0 1 32.196-52.09Zm0 0"/>
  <path fill="#f1ae2b" fill-rule="evenodd" d="M304.355 354.676c9.266 0 16.774 7.512 16.774 16.773v268.375c0 9.262-7.508 16.774-16.774 16.774-9.261 0-16.773-7.512-16.773-16.774V371.45c0-9.262 7.512-16.773 16.773-16.773Zm0 0"/>
  <g clip-path="url(#b)">
    <path fill="#f1ae2b" fill-rule="evenodd" d="M572.73 19.21c5.61 0 10.844 2.802 13.954 7.47l201.28 301.918a16.77 16.77 0 0 1 .833 17.218 16.764 16.764 0 0 1-14.785 8.86h-93.016v419.336c0 9.261-7.512 16.773-16.773 16.773H484.672c-9.266 0-16.774-7.512-16.774-16.773V354.676H371.45a16.764 16.764 0 0 1-14.785-8.86 16.762 16.762 0 0 1 .832-17.218L558.773 26.68a16.767 16.767 0 0 1 13.957-7.47ZM402.793 321.13h81.879c9.262 0 16.77 7.512 16.77 16.773v419.336h146.007V337.902c0-9.261 7.508-16.773 16.774-16.773h78.445L572.73 66.223Zm0 0"/>
  </g>
</svg>
