<svg xmlns="http://www.w3.org/2000/svg" width="1080" height="1080" version="1.0" viewBox="0 0 810 810">
  <defs>
    <clipPath id="a">
      <path d="M389 9.852h32V41h-32Zm0 0"/>
    </clipPath>
    <clipPath id="b">
      <path d="M111.723 18h586.379v782.14h-586.38Zm0 0"/>
    </clipPath>
  </defs>
  <path fill="#f1ae2b" d="M173.46 303.121c0 127.668 103.864 231.531 231.532 231.531 127.664 0 231.531-103.863 231.531-231.53 0-127.669-103.867-231.532-231.53-231.532-127.669 0-231.532 103.863-231.532 231.531Zm231.532-200.66c110.649 0 200.66 90.02 200.66 200.66 0 110.649-90.011 200.66-200.66 200.66-110.644 0-200.66-90.011-200.66-200.66 0-110.64 90.016-200.66 200.66-200.66"/>
  <path fill="#f1ae2b" d="m262.043 275.605 59.832 58.95-13.766 82.851a15.431 15.431 0 0 0 6.157 15.016 15.451 15.451 0 0 0 16.187 1.215l74.54-38.711 74.534 38.71a15.433 15.433 0 0 0 16.184-1.214 15.424 15.424 0 0 0 6.152-15.016l-13.761-82.851 59.828-58.95a15.427 15.427 0 0 0 3.847-15.77 15.455 15.455 0 0 0-12.386-10.491l-83.028-12.5-37.57-75.133a15.425 15.425 0 0 0-13.8-8.527c-5.848 0-11.188 3.3-13.805 8.527l-37.57 75.133-83.028 12.5a15.436 15.436 0 0 0-12.387 10.492 15.431 15.431 0 0 0 3.84 15.77Zm104.098-9.421a15.455 15.455 0 0 0 11.507-8.364l27.344-54.687 27.348 54.687a15.428 15.428 0 0 0 11.508 8.364l60.43 9.093-43.551 42.899a15.459 15.459 0 0 0-4.395 13.531l10.02 60.297-54.254-28.164a15.41 15.41 0 0 0-14.223 0l-54.254 28.164 10.02-60.297c.828-4.957-.813-10-4.395-13.531L305.7 275.277l60.442-9.093"/>
  <g clip-path="url(#a)">
    <path fill="#f1ae2b" d="M420.43 25.285c0 8.527-6.91 15.438-15.438 15.438-8.527 0-15.433-6.91-15.433-15.438 0-8.527 6.906-15.433 15.433-15.433 8.528 0 15.438 6.906 15.438 15.433"/>
  </g>
  <g clip-path="url(#b)">
    <path fill="#f1ae2b" d="M332.25 18.95C202.402 52.093 111.723 168.944 111.723 303.12c0 83.332 35.035 161.856 96.543 217.465l-92.993 163.887a15.43 15.43 0 0 0 16.563 22.727l105.601-21.923 37.122 104.59c2.011 5.692 7.168 9.672 13.18 10.211a15.425 15.425 0 0 0 14.777-7.75l102.476-180.152 102.473 180.152a15.425 15.425 0 0 0 13.402 7.805c.457 0 .914-.02 1.367-.055a15.451 15.451 0 0 0 13.192-10.21l37.113-104.59 105.606 21.921a15.428 15.428 0 0 0 15.605-6.02 15.433 15.433 0 0 0 .957-16.706l-92.992-163.887c61.504-55.61 96.543-134.133 96.543-217.465 0-134.176-90.684-251.027-220.52-284.172-8.27-2.11-16.664 2.871-18.777 11.133-2.113 8.262 2.879 16.672 11.137 18.777 116.16 29.653 197.297 134.211 197.297 254.262 0 146.113-118.668 262.402-262.403 262.402-143.84 0-262.398-116.39-262.398-262.402 0-120.05 81.125-224.61 197.285-254.262 8.262-2.105 13.25-10.515 11.144-18.777-2.109-8.262-10.507-13.242-18.773-11.133Zm-39.887 728.796-30.332-85.48a15.429 15.429 0 0 0-17.683-9.953l-85.395 17.73 73.598-129.703c42.91 31.191 93.722 50.2 146.558 54.898Zm273.262-95.433c-7.543-1.57-15.102 2.68-17.684 9.953l-30.328 85.48-86.746-152.508c52.848-4.699 103.649-23.703 146.57-54.898l73.594 129.703-85.406-17.73"/>
  </g>
</svg>
