<svg xmlns="http://www.w3.org/2000/svg" xmlns:xlink="http://www.w3.org/1999/xlink" width="1080" zoomAndPan="magnify" viewBox="0 0 810 809.999993" height="1080" preserveAspectRatio="xMidYMid meet" version="1.0"><defs><clipPath id="b95ee64ffc"><path d="M 273 26 L 772.832031 26 L 772.832031 679 L 273 679 Z M 273 26 " clip-rule="nonzero"/></clipPath></defs><path fill="#f1ae2b" d="M 712.128906 721.515625 L 512.320312 521.714844 C 538.183594 485.535156 553.453125 441.296875 553.453125 393.53125 C 553.453125 271.640625 454.296875 172.476562 332.414062 172.476562 C 210.535156 172.476562 111.359375 271.640625 111.359375 393.53125 C 111.359375 515.414062 210.527344 614.578125 332.40625 614.578125 C 380.175781 614.578125 424.417969 599.296875 460.605469 573.441406 L 660.402344 773.238281 C 667.539062 780.375 676.902344 783.953125 686.257812 783.953125 C 695.621094 783.953125 704.988281 780.375 712.128906 773.238281 C 726.398438 758.949219 726.398438 735.804688 712.128906 721.515625 Z M 130.867188 393.53125 C 130.867188 282.21875 221.09375 191.984375 332.40625 191.984375 C 443.722656 191.984375 533.949219 282.21875 533.949219 393.53125 C 533.949219 504.839844 443.722656 595.070312 332.40625 595.070312 C 221.09375 595.070312 130.867188 504.839844 130.867188 393.53125 Z M 130.867188 393.53125 " fill-opacity="1" fill-rule="nonzero"/><path fill="#f1ae2b" d="M 383.171875 599.367188 C 385.191406 611.417969 396.011719 620.175781 408.417969 619.207031 C 421.546875 618.179688 431.339844 606.710938 430.3125 593.59375 L 429.414062 582.015625 C 414.882812 589.503906 399.40625 595.375 383.171875 599.367188 Z M 383.171875 599.367188 " fill-opacity="1" fill-rule="nonzero"/><path fill="#f1ae2b" d="M 405.570312 155.671875 C 388.964844 156.195312 375.820312 169.519531 375.21875 185.863281 C 397.363281 190.402344 418.210938 198.441406 437.25 209.300781 L 437.921875 188.03125 C 437.9375 187.40625 437.945312 186.683594 437.921875 186.050781 C 437.375 168.71875 422.890625 155.121094 405.570312 155.671875 Z M 405.570312 155.671875 " fill-opacity="1" fill-rule="nonzero"/><path fill="#f1ae2b" d="M 395.863281 477.519531 C 412.417969 478.042969 426.28125 465.03125 426.804688 448.476562 L 433.429688 238.238281 C 411.488281 223.9375 386.351562 214.144531 359.289062 210.199219 L 366.8125 448.46875 C 367.335938 464.140625 379.964844 477.015625 395.863281 477.519531 Z M 395.863281 477.519531 " fill-opacity="1" fill-rule="nonzero"/><path fill="#f1ae2b" d="M 399.15625 524.800781 C 382.59375 523.507812 368.113281 535.875 366.8125 552.449219 L 364.980469 575.917969 C 387.226562 571.964844 408.105469 564.082031 426.835938 552.949219 L 426.804688 552.457031 C 425.671875 537.925781 414.132812 525.972656 399.15625 524.800781 Z M 399.15625 524.800781 " fill-opacity="1" fill-rule="nonzero"/><path fill="#f1ae2b" d="M 245.980469 229.300781 C 229.632812 237.917969 214.738281 248.878906 201.734375 261.769531 L 152.894531 346.375 C 148.941406 361.4375 146.835938 377.234375 146.835938 393.53125 C 146.835938 395.949219 146.929688 398.339844 147.007812 400.726562 Z M 245.980469 229.300781 " fill-opacity="1" fill-rule="nonzero"/><path fill="#f1ae2b" d="M 106.039062 658.621094 C 89.535156 658.621094 74.164062 649.742188 65.917969 635.464844 C 57.660156 621.1875 57.660156 603.433594 65.917969 589.144531 L 134.6875 470.019531 C 131.535156 461.855469 128.847656 453.464844 126.695312 444.851562 L 49.027344 579.390625 C 37.308594 599.699219 37.308594 624.917969 49.027344 645.21875 C 60.746094 665.515625 82.59375 678.132812 106.039062 678.132812 L 544.609375 678.132812 L 525.109375 658.628906 L 106.039062 658.628906 Z M 106.039062 658.621094 " fill-opacity="1" fill-rule="nonzero"/><g clip-path="url(#b95ee64ffc)"><path fill="#f1ae2b" d="M 762.265625 576.441406 L 463.511719 58.964844 C 451.785156 38.664062 429.945312 26.046875 406.507812 26.046875 C 383.046875 26.046875 361.214844 38.65625 349.488281 58.964844 L 273.980469 189.753906 C 282.394531 187.34375 290.996094 185.394531 299.804688 184.039062 L 366.382812 68.707031 C 374.632812 54.421875 390.007812 45.554688 406.507812 45.554688 C 422.992188 45.554688 438.367188 54.429688 446.617188 68.707031 L 745.523438 586.421875 L 745.8125 586.90625 C 750.777344 594.445312 753.398438 603.21875 753.398438 612.300781 C 753.398438 637.84375 732.621094 658.621094 707.070312 658.621094 L 669.921875 658.621094 L 689.425781 678.125 L 707.070312 678.125 C 743.371094 678.125 772.898438 648.597656 772.898438 612.300781 C 772.898438 599.511719 769.21875 587.109375 762.265625 576.441406 Z M 762.265625 576.441406 " fill-opacity="1" fill-rule="nonzero"/></g></svg>