<svg xmlns="http://www.w3.org/2000/svg" xmlns:xlink="http://www.w3.org/1999/xlink" width="1920" zoomAndPan="magnify" viewBox="0 0 1440 599.999999" height="800" preserveAspectRatio="xMidYMid meet" version="1.0"><defs><g/><clipPath id="f6819847ef"><path d="M 58.324219 51.273438 L 100.976562 51.273438 L 100.976562 404.90625 L 58.324219 404.90625 Z M 58.324219 51.273438 " clip-rule="nonzero"/></clipPath><clipPath id="ea42f8308f"><path d="M 58.332031 50.441406 L 411.992188 50.441406 L 411.992188 93.105469 L 58.332031 93.105469 Z M 58.332031 50.441406 " clip-rule="nonzero"/></clipPath><clipPath id="6f04fe7ea7"><path d="M 313.308594 239.839844 L 414.71875 239.839844 L 414.71875 282.492188 L 313.308594 282.492188 Z M 313.308594 239.839844 " clip-rule="nonzero"/></clipPath><clipPath id="f503199e20"><path d="M 369.273438 51.34375 L 411.980469 51.34375 L 411.980469 274.84375 L 369.273438 274.84375 Z M 369.273438 51.34375 " clip-rule="nonzero"/></clipPath><clipPath id="253da99f5e"><path d="M 257 206 L 456 206 L 456 405 L 257 405 Z M 257 206 " clip-rule="nonzero"/></clipPath><clipPath id="a37b75c74b"><path d="M 287.984375 206.84375 L 455.914062 374.777344 L 425.78125 404.910156 L 257.851562 236.976562 Z M 287.984375 206.84375 " clip-rule="nonzero"/></clipPath><clipPath id="f743814775"><path d="M 216 255 L 404 255 L 404 443 L 216 443 Z M 216 255 " clip-rule="nonzero"/></clipPath><clipPath id="879aff68f8"><path d="M 246.707031 255.3125 L 403.796875 412.402344 L 373.5625 442.636719 L 216.472656 285.546875 Z M 246.707031 255.3125 " clip-rule="nonzero"/></clipPath><clipPath id="289a4153cf"><path d="M 193 321 L 322 321 L 322 451 L 193 451 Z M 193 321 " clip-rule="nonzero"/></clipPath><clipPath id="b1a4d46b3b"><path d="M 223.710938 321.933594 L 321.933594 420.160156 L 291.996094 450.097656 L 193.769531 351.875 Z M 223.710938 321.933594 " clip-rule="nonzero"/></clipPath><clipPath id="9012e740bb"><path d="M 227.507812 219.855469 L 247.886719 219.855469 L 247.886719 404.90625 L 227.507812 404.90625 Z M 227.507812 219.855469 " clip-rule="nonzero"/></clipPath><clipPath id="973dc82da0"><path d="M 410.15625 29.265625 L 477.835938 29.265625 L 477.835938 433.519531 L 410.15625 433.519531 Z M 410.15625 29.265625 " clip-rule="nonzero"/></clipPath><clipPath id="e0c358bda2"><path d="M 227.5 219.566406 L 365.445312 219.566406 L 365.445312 239.847656 L 227.5 239.847656 Z M 227.5 219.566406 " clip-rule="nonzero"/></clipPath><clipPath id="a29eddedd9"><path d="M 121.621094 113.679688 L 164.273438 113.679688 L 164.273438 404.902344 L 121.621094 404.902344 Z M 121.621094 113.679688 " clip-rule="nonzero"/></clipPath><clipPath id="ab6aab08b7"><path d="M 184.847656 176.910156 L 227.5 176.910156 L 227.5 404.90625 L 184.847656 404.90625 Z M 184.847656 176.910156 " clip-rule="nonzero"/></clipPath><clipPath id="d6cc719d5d"><path d="M 47.464844 404.90625 L 422.839844 404.90625 L 422.839844 462.132812 L 47.464844 462.132812 Z M 47.464844 404.90625 " clip-rule="nonzero"/></clipPath><clipPath id="41221277b2"><path d="M 121.691406 113.675781 L 350.558594 113.675781 L 350.558594 156.328125 L 121.691406 156.328125 Z M 121.691406 113.675781 " clip-rule="nonzero"/></clipPath><clipPath id="e90c7f7112"><path d="M 308.78125 113.679688 L 351.433594 113.679688 L 351.433594 217.0625 L 308.78125 217.0625 Z M 308.78125 113.679688 " clip-rule="nonzero"/></clipPath><clipPath id="4ef1b975d3"><path d="M 184.851562 176.902344 L 351.4375 176.902344 L 351.4375 219.554688 L 184.851562 219.554688 Z M 184.851562 176.902344 " clip-rule="nonzero"/></clipPath></defs><g clip-path="url(#f6819847ef)"><path fill="#092b5a" d="M 100.976562 51.273438 L 100.976562 404.824219 L 58.324219 404.824219 L 58.324219 51.273438 Z M 100.976562 51.273438 " fill-opacity="1" fill-rule="nonzero"/></g><g clip-path="url(#ea42f8308f)"><path fill="#092b5a" d="M 58.332031 50.441406 L 411.976562 50.441406 L 411.976562 93.105469 L 58.332031 93.105469 Z M 58.332031 50.441406 " fill-opacity="1" fill-rule="nonzero"/></g><g clip-path="url(#6f04fe7ea7)"><path fill="#092b5a" d="M 414.71875 282.492188 L 313.25 282.492188 L 313.25 239.839844 L 414.71875 239.839844 Z M 414.71875 282.492188 " fill-opacity="1" fill-rule="nonzero"/></g><g clip-path="url(#f503199e20)"><path fill="#092b5a" d="M 411.980469 51.34375 L 411.980469 274.90625 L 369.273438 274.90625 L 369.273438 51.34375 Z M 411.980469 51.34375 " fill-opacity="1" fill-rule="nonzero"/></g><g clip-path="url(#253da99f5e)"><g clip-path="url(#a37b75c74b)"><path fill="#092b5a" d="M 287.984375 206.84375 L 455.953125 374.8125 L 425.820312 404.949219 L 257.851562 236.976562 Z M 287.984375 206.84375 " fill-opacity="1" fill-rule="nonzero"/></g></g><g clip-path="url(#f743814775)"><g clip-path="url(#879aff68f8)"><path fill="#092b5a" d="M 246.707031 255.3125 L 403.777344 412.382812 L 373.542969 442.617188 L 216.472656 285.546875 Z M 246.707031 255.3125 " fill-opacity="1" fill-rule="nonzero"/></g></g><g clip-path="url(#289a4153cf)"><g clip-path="url(#b1a4d46b3b)"><path fill="#092b5a" d="M 223.710938 321.933594 L 321.945312 420.171875 L 292.007812 450.109375 L 193.769531 351.875 Z M 223.710938 321.933594 " fill-opacity="1" fill-rule="nonzero"/></g></g><g clip-path="url(#9012e740bb)"><path fill="#ffffff" d="M 227.507812 219.855469 L 247.886719 219.855469 L 247.886719 404.933594 L 227.507812 404.933594 Z M 227.507812 219.855469 " fill-opacity="1" fill-rule="nonzero"/></g><g clip-path="url(#973dc82da0)"><path fill="#ffffff" d="M 410.15625 29.265625 L 477.835938 29.265625 L 477.835938 433.488281 L 410.15625 433.488281 Z M 410.15625 29.265625 " fill-opacity="1" fill-rule="nonzero"/></g><g clip-path="url(#e0c358bda2)"><path fill="#ffffff" d="M 365.445312 219.566406 L 365.445312 239.847656 L 227.511719 239.847656 L 227.511719 219.566406 Z M 365.445312 219.566406 " fill-opacity="1" fill-rule="nonzero"/></g><g clip-path="url(#a29eddedd9)"><path fill="#092b5a" d="M 164.273438 113.679688 L 164.273438 404.917969 L 121.621094 404.917969 L 121.621094 113.679688 Z M 164.273438 113.679688 " fill-opacity="1" fill-rule="nonzero"/></g><g clip-path="url(#ab6aab08b7)"><path fill="#092b5a" d="M 227.5 176.910156 L 227.5 404.835938 L 184.847656 404.835938 L 184.847656 176.910156 Z M 227.5 176.910156 " fill-opacity="1" fill-rule="nonzero"/></g><g clip-path="url(#d6cc719d5d)"><path fill="#ffffff" d="M 422.839844 404.90625 L 422.839844 462.132812 L 47.496094 462.132812 L 47.496094 404.90625 Z M 422.839844 404.90625 " fill-opacity="1" fill-rule="nonzero"/></g><g clip-path="url(#41221277b2)"><path fill="#092b5a" d="M 350.558594 156.328125 L 121.632812 156.328125 L 121.632812 113.675781 L 350.558594 113.675781 Z M 350.558594 156.328125 " fill-opacity="1" fill-rule="nonzero"/></g><g clip-path="url(#e90c7f7112)"><path fill="#092b5a" d="M 351.433594 113.679688 L 351.433594 217.144531 L 308.78125 217.144531 L 308.78125 113.679688 Z M 351.433594 113.679688 " fill-opacity="1" fill-rule="nonzero"/></g><g clip-path="url(#4ef1b975d3)"><path fill="#092b5a" d="M 351.4375 219.554688 L 184.824219 219.554688 L 184.824219 176.902344 L 351.4375 176.902344 Z M 351.4375 219.554688 " fill-opacity="1" fill-rule="nonzero"/></g><g fill="#092b5a" fill-opacity="1"><g transform="translate(431.705367, 286.971761)"><g><path d="M 63.65625 -2.203125 L 63.046875 -2.203125 C 61.316406 -2.203125 59.914062 -2.9375 58.84375 -4.40625 C 57.78125 -5.875 57.582031 -7.472656 58.25 -9.203125 C 61.445312 -17.742188 65.046875 -28.019531 69.046875 -40.03125 C 73.054688 -52.039062 77.0625 -64.382812 81.0625 -77.0625 C 81.332031 -78.132812 81.132812 -79.070312 80.46875 -79.875 C 79.9375 -80.664062 79.132812 -81 78.0625 -80.875 C 61.519531 -79 46.039062 -82.265625 31.625 -90.671875 C 25.082031 -94.546875 19.609375 -99.453125 15.203125 -105.390625 C 10.804688 -111.328125 7.640625 -117.898438 5.703125 -125.109375 C 3.765625 -132.316406 3.265625 -139.65625 4.203125 -147.125 C 5.535156 -159.132812 10.035156 -170.609375 17.703125 -181.546875 C 25.378906 -192.492188 35.722656 -202.4375 48.734375 -211.375 C 61.753906 -220.320312 77.003906 -227.796875 94.484375 -233.796875 C 109.691406 -239.003906 125.171875 -241.875 140.921875 -242.40625 C 156.671875 -242.9375 171.75 -241.203125 186.15625 -237.203125 C 200.570312 -233.203125 213.382812 -227.0625 224.59375 -218.78125 C 234.601562 -211.976562 242.410156 -203.171875 248.015625 -192.359375 C 253.617188 -181.554688 256.285156 -170.148438 256.015625 -158.140625 C 255.347656 -143.722656 252.34375 -130.34375 247 -118 C 241.664062 -105.65625 234.59375 -94.28125 225.78125 -83.875 C 216.976562 -73.46875 207.039062 -64.09375 195.96875 -55.75 C 184.894531 -47.40625 173.285156 -40.03125 161.140625 -33.625 C 148.992188 -27.21875 136.945312 -21.78125 125 -17.3125 C 113.0625 -12.84375 101.785156 -9.335938 91.171875 -6.796875 C 80.566406 -4.265625 71.394531 -2.734375 63.65625 -2.203125 Z M 92.671875 -79.265625 C 89.335938 -68.453125 85.9375 -57.707031 82.46875 -47.03125 C 79 -36.363281 75.726562 -26.691406 72.65625 -18.015625 C 72.257812 -17.078125 72.394531 -16.144531 73.0625 -15.21875 C 73.863281 -14.414062 74.796875 -14.144531 75.859375 -14.40625 C 85.203125 -16.007812 95.78125 -18.710938 107.59375 -22.515625 C 119.40625 -26.316406 131.582031 -31.1875 144.125 -37.125 C 156.664062 -43.070312 168.804688 -50.046875 180.546875 -58.046875 C 192.296875 -66.054688 202.972656 -75.128906 212.578125 -85.265625 C 222.191406 -95.410156 229.929688 -106.585938 235.796875 -118.796875 C 241.671875 -131.015625 244.875 -144.257812 245.40625 -158.53125 C 245.539062 -168.945312 243.207031 -178.722656 238.40625 -187.859375 C 233.601562 -197.003906 226.863281 -204.507812 218.1875 -210.375 C 208.039062 -217.988281 196.296875 -223.628906 182.953125 -227.296875 C 169.609375 -230.960938 155.628906 -232.53125 141.015625 -232 C 126.410156 -231.46875 112.035156 -228.734375 97.890625 -223.796875 C 81.734375 -218.316406 67.617188 -211.539062 55.546875 -203.46875 C 43.472656 -195.394531 33.929688 -186.453125 26.921875 -176.640625 C 19.921875 -166.835938 15.816406 -156.597656 14.609375 -145.921875 C 13.410156 -136.710938 14.84375 -127.90625 18.90625 -119.5 C 22.976562 -111.09375 29.019531 -104.488281 37.03125 -99.6875 C 51.039062 -91.675781 65.921875 -89.003906 81.671875 -91.671875 C 84.472656 -92.210938 86.273438 -93.816406 87.078125 -96.484375 C 90.273438 -106.628906 93.242188 -116.300781 95.984375 -125.5 C 98.722656 -134.707031 101.09375 -142.648438 103.09375 -149.328125 C 103.351562 -150.523438 103.082031 -151.523438 102.28125 -152.328125 C 101.488281 -153.128906 100.554688 -153.332031 99.484375 -152.9375 C 88.941406 -150 79.132812 -151.460938 70.0625 -157.328125 C 68.863281 -158.128906 68.09375 -159.226562 67.75 -160.625 C 67.414062 -162.03125 67.648438 -163.335938 68.453125 -164.546875 C 69.117188 -165.742188 70.148438 -166.507812 71.546875 -166.84375 C 72.953125 -167.175781 74.328125 -167.007812 75.671875 -166.34375 C 81.140625 -162.875 87.109375 -161.570312 93.578125 -162.4375 C 100.046875 -163.300781 105.484375 -166.140625 109.890625 -170.953125 C 111.765625 -172.953125 113.898438 -173.285156 116.296875 -171.953125 C 118.703125 -170.617188 119.503906 -168.613281 118.703125 -165.9375 C 118.703125 -165.675781 117.832031 -162.578125 116.09375 -156.640625 C 114.363281 -150.703125 112.03125 -142.828125 109.09375 -133.015625 C 106.15625 -123.203125 102.882812 -112.425781 99.28125 -100.6875 C 99.019531 -99.488281 99.289062 -98.488281 100.09375 -97.6875 C 100.882812 -96.882812 101.882812 -96.617188 103.09375 -96.890625 C 115.363281 -101.285156 126.90625 -107.085938 137.71875 -114.296875 C 139.320312 -115.367188 141.054688 -115.503906 142.921875 -114.703125 C 144.785156 -113.765625 145.785156 -112.226562 145.921875 -110.09375 C 145.921875 -108.09375 145.054688 -106.554688 143.328125 -105.484375 C 129.441406 -96.148438 114.425781 -89.144531 98.28125 -84.46875 C 95.476562 -83.800781 93.609375 -82.066406 92.671875 -79.265625 Z M 92.671875 -79.265625 "/></g></g></g><g fill="#092b5a" fill-opacity="1"><g transform="translate(676.112234, 286.971761)"><g><path d="M 129.71875 -54.046875 C 130.78125 -53.109375 131.3125 -51.90625 131.3125 -50.4375 C 131.3125 -48.96875 130.84375 -47.703125 129.90625 -46.640625 C 129.375 -46.242188 127.335938 -44.375 123.796875 -41.03125 C 120.265625 -37.695312 115.597656 -33.726562 109.796875 -29.125 C 103.992188 -24.519531 97.351562 -19.945312 89.875 -15.40625 C 82.40625 -10.875 74.429688 -7.101562 65.953125 -4.09375 C 57.484375 -1.09375 48.976562 0.40625 40.4375 0.40625 C 28.15625 0.53125 17.144531 -3.070312 7.40625 -10.40625 C 3.40625 -13.34375 0.671875 -16.8125 -0.796875 -20.8125 C -2.265625 -24.820312 -2.898438 -28.960938 -2.703125 -33.234375 C -2.503906 -37.503906 -1.867188 -41.503906 -0.796875 -45.234375 C 0.265625 -48.972656 1.296875 -52.039062 2.296875 -54.4375 C 3.296875 -56.84375 3.863281 -58.179688 4 -58.453125 C 4.800781 -59.648438 5.867188 -60.445312 7.203125 -60.84375 C 8.535156 -61.25 9.804688 -61.117188 11.015625 -60.453125 C 12.347656 -59.785156 13.242188 -58.785156 13.703125 -57.453125 C 14.171875 -56.117188 14.070312 -54.847656 13.40625 -53.640625 C 13.40625 -53.515625 13.003906 -52.582031 12.203125 -50.84375 C 11.410156 -49.101562 10.578125 -46.832031 9.703125 -44.03125 C 8.835938 -41.226562 8.238281 -38.257812 7.90625 -35.125 C 7.570312 -31.988281 7.804688 -28.953125 8.609375 -26.015625 C 9.410156 -23.085938 11.078125 -20.6875 13.609375 -18.8125 C 19.742188 -14.28125 26.25 -11.546875 33.125 -10.609375 C 40 -9.671875 46.90625 -10.035156 53.84375 -11.703125 C 60.78125 -13.378906 67.582031 -15.847656 74.25 -19.109375 C 80.925781 -22.378906 87.132812 -25.984375 92.875 -29.921875 C 98.613281 -33.859375 103.6875 -37.628906 108.09375 -41.234375 C 112.5 -44.835938 115.9375 -47.835938 118.40625 -50.234375 C 120.875 -52.640625 122.175781 -53.910156 122.3125 -54.046875 C 123.375 -55.109375 124.601562 -55.640625 126 -55.640625 C 127.40625 -55.640625 128.644531 -55.109375 129.71875 -54.046875 Z M 1.796875 -69.859375 C -0.867188 -69.859375 -2.535156 -71.191406 -3.203125 -73.859375 C -3.867188 -76.523438 -3 -78.53125 -0.59375 -79.875 C 3.132812 -81.738281 6.46875 -84.207031 9.40625 -87.28125 C 10.476562 -88.34375 11.710938 -88.875 13.109375 -88.875 C 14.515625 -88.875 15.75 -88.40625 16.8125 -87.46875 C 17.882812 -86.40625 18.453125 -85.171875 18.515625 -83.765625 C 18.578125 -82.367188 18.078125 -81.132812 17.015625 -80.0625 C 13.273438 -76.195312 9.070312 -73.0625 4.40625 -70.65625 C 3.601562 -70.125 2.734375 -69.859375 1.796875 -69.859375 Z M 1.796875 -69.859375 "/></g></g></g><g fill="#092b5a" fill-opacity="1"><g transform="translate(799.016292, 286.971761)"><g><path d="M 177.359375 -50.84375 C 178.285156 -49.78125 178.75 -48.515625 178.75 -47.046875 C 178.75 -45.578125 178.285156 -44.304688 177.359375 -43.234375 C 172.816406 -38.703125 167.273438 -34.234375 160.734375 -29.828125 C 154.191406 -25.421875 147.019531 -21.445312 139.21875 -17.90625 C 131.414062 -14.375 123.375 -11.570312 115.09375 -9.5 C 106.820312 -7.4375 98.679688 -6.539062 90.671875 -6.8125 C 78.265625 -6.539062 67.257812 -10.273438 57.65625 -18.015625 C 56.851562 -18.953125 55.785156 -19.351562 54.453125 -19.21875 C 53.242188 -19.21875 52.238281 -18.75 51.4375 -17.8125 C 47.164062 -12.34375 42.164062 -7.671875 36.4375 -3.796875 C 32.832031 -1.398438 28.828125 -0.132812 24.421875 0 C 21.085938 0 17.953125 -0.929688 15.015625 -2.796875 C 14.878906 -2.929688 14.675781 -3.132812 14.40625 -3.40625 C 11.070312 -6.46875 8.46875 -10.132812 6.59375 -14.40625 C 4.726562 -18.675781 3.363281 -23.113281 2.5 -27.71875 C 1.632812 -32.320312 1.132812 -36.625 1 -40.625 C 0.863281 -44.632812 0.863281 -47.972656 1 -50.640625 C 1.132812 -53.304688 1.203125 -54.773438 1.203125 -55.046875 C 1.335938 -56.515625 1.96875 -57.679688 3.09375 -58.546875 C 4.226562 -59.410156 5.46875 -59.78125 6.8125 -59.65625 C 8.269531 -59.519531 9.46875 -58.882812 10.40625 -57.75 C 11.34375 -56.613281 11.742188 -55.378906 11.609375 -54.046875 C 11.335938 -51.910156 11.234375 -48.972656 11.296875 -45.234375 C 11.367188 -41.503906 11.671875 -37.503906 12.203125 -33.234375 C 12.742188 -28.960938 13.710938 -24.890625 15.109375 -21.015625 C 16.515625 -17.148438 18.484375 -13.945312 21.015625 -11.40625 C 23.421875 -10.207031 25.957031 -10.273438 28.625 -11.609375 C 31.289062 -12.941406 33.691406 -14.546875 35.828125 -16.421875 C 40.234375 -20.421875 44.035156 -24.957031 47.234375 -30.03125 C 47.503906 -30.695312 47.503906 -31.363281 47.234375 -32.03125 C 44.835938 -36.96875 43.367188 -42.171875 42.828125 -47.640625 C 42.296875 -53.109375 43.234375 -57.515625 45.640625 -60.859375 C 47.367188 -63.390625 49.703125 -64.988281 52.640625 -65.65625 C 55.578125 -66.320312 58.378906 -65.921875 61.046875 -64.453125 C 65.179688 -62.722656 67.25 -59.65625 67.25 -55.25 C 66.988281 -46.976562 64.722656 -39.238281 60.453125 -32.03125 C 60.316406 -31.363281 60.316406 -30.695312 60.453125 -30.03125 C 60.847656 -29.757812 61.179688 -29.425781 61.453125 -29.03125 C 69.585938 -20.75 79.394531 -16.878906 90.875 -17.421875 C 97.8125 -17.285156 105.015625 -18.117188 112.484375 -19.921875 C 119.960938 -21.722656 127.269531 -24.253906 134.40625 -27.515625 C 141.550781 -30.785156 148.191406 -34.421875 154.328125 -38.421875 C 160.472656 -42.429688 165.613281 -46.570312 169.75 -50.84375 C 170.8125 -51.90625 172.078125 -52.4375 173.546875 -52.4375 C 175.015625 -52.4375 176.285156 -51.90625 177.359375 -50.84375 Z M 54.640625 -44.84375 C 56.109375 -48.039062 56.78125 -51.375 56.65625 -54.84375 C 56.382812 -55.375 55.984375 -55.640625 55.453125 -55.640625 C 54.910156 -55.640625 54.507812 -55.441406 54.25 -55.046875 C 52.914062 -51.710938 52.78125 -48.3125 53.84375 -44.84375 C 53.976562 -44.707031 54.144531 -44.640625 54.34375 -44.640625 C 54.539062 -44.640625 54.640625 -44.707031 54.640625 -44.84375 Z M 54.640625 -44.84375 "/></g></g></g><g fill="#092b5a" fill-opacity="1"><g transform="translate(967.15863, 286.971761)"><g><path d="M 129.71875 -54.046875 C 130.78125 -53.109375 131.3125 -51.90625 131.3125 -50.4375 C 131.3125 -48.96875 130.84375 -47.703125 129.90625 -46.640625 C 129.375 -46.242188 127.335938 -44.375 123.796875 -41.03125 C 120.265625 -37.695312 115.597656 -33.726562 109.796875 -29.125 C 103.992188 -24.519531 97.351562 -19.945312 89.875 -15.40625 C 82.40625 -10.875 74.429688 -7.101562 65.953125 -4.09375 C 57.484375 -1.09375 48.976562 0.40625 40.4375 0.40625 C 28.15625 0.53125 17.144531 -3.070312 7.40625 -10.40625 C 3.40625 -13.34375 0.671875 -16.8125 -0.796875 -20.8125 C -2.265625 -24.820312 -2.898438 -28.960938 -2.703125 -33.234375 C -2.503906 -37.503906 -1.867188 -41.503906 -0.796875 -45.234375 C 0.265625 -48.972656 1.296875 -52.039062 2.296875 -54.4375 C 3.296875 -56.84375 3.863281 -58.179688 4 -58.453125 C 4.800781 -59.648438 5.867188 -60.445312 7.203125 -60.84375 C 8.535156 -61.25 9.804688 -61.117188 11.015625 -60.453125 C 12.347656 -59.785156 13.242188 -58.785156 13.703125 -57.453125 C 14.171875 -56.117188 14.070312 -54.847656 13.40625 -53.640625 C 13.40625 -53.515625 13.003906 -52.582031 12.203125 -50.84375 C 11.410156 -49.101562 10.578125 -46.832031 9.703125 -44.03125 C 8.835938 -41.226562 8.238281 -38.257812 7.90625 -35.125 C 7.570312 -31.988281 7.804688 -28.953125 8.609375 -26.015625 C 9.410156 -23.085938 11.078125 -20.6875 13.609375 -18.8125 C 19.742188 -14.28125 26.25 -11.546875 33.125 -10.609375 C 40 -9.671875 46.90625 -10.035156 53.84375 -11.703125 C 60.78125 -13.378906 67.582031 -15.847656 74.25 -19.109375 C 80.925781 -22.378906 87.132812 -25.984375 92.875 -29.921875 C 98.613281 -33.859375 103.6875 -37.628906 108.09375 -41.234375 C 112.5 -44.835938 115.9375 -47.835938 118.40625 -50.234375 C 120.875 -52.640625 122.175781 -53.910156 122.3125 -54.046875 C 123.375 -55.109375 124.601562 -55.640625 126 -55.640625 C 127.40625 -55.640625 128.644531 -55.109375 129.71875 -54.046875 Z M 1.796875 -69.859375 C -0.867188 -69.859375 -2.535156 -71.191406 -3.203125 -73.859375 C -3.867188 -76.523438 -3 -78.53125 -0.59375 -79.875 C 3.132812 -81.738281 6.46875 -84.207031 9.40625 -87.28125 C 10.476562 -88.34375 11.710938 -88.875 13.109375 -88.875 C 14.515625 -88.875 15.75 -88.40625 16.8125 -87.46875 C 17.882812 -86.40625 18.453125 -85.171875 18.515625 -83.765625 C 18.578125 -82.367188 18.078125 -81.132812 17.015625 -80.0625 C 13.273438 -76.195312 9.070312 -73.0625 4.40625 -70.65625 C 3.601562 -70.125 2.734375 -69.859375 1.796875 -69.859375 Z M 1.796875 -69.859375 "/></g></g></g><g fill="#092b5a" fill-opacity="1"><g transform="translate(1090.062689, 286.971761)"><g><path d="M 174.953125 -49.84375 C 176.015625 -48.90625 176.578125 -47.703125 176.640625 -46.234375 C 176.710938 -44.765625 176.21875 -43.5 175.15625 -42.4375 C 174.882812 -42.03125 173.414062 -40.523438 170.75 -37.921875 C 168.082031 -35.328125 164.476562 -32.191406 159.9375 -28.515625 C 155.394531 -24.847656 150.117188 -21.179688 144.109375 -17.515625 C 138.109375 -13.847656 131.640625 -10.742188 124.703125 -8.203125 C 117.765625 -5.671875 110.59375 -4.203125 103.1875 -3.796875 C 95.78125 -3.398438 88.34375 -4.738281 80.875 -7.8125 C 70.457031 -13.007812 62.382812 -20.679688 56.65625 -30.828125 C 55.851562 -31.890625 54.71875 -33.554688 53.25 -35.828125 C 51.78125 -38.097656 49.773438 -39.164062 47.234375 -39.03125 C 46.035156 -39.03125 44.269531 -38.660156 41.9375 -37.921875 C 39.601562 -37.191406 36.597656 -35.722656 32.921875 -33.515625 C 29.253906 -31.316406 24.882812 -27.882812 19.8125 -23.21875 C 14.738281 -18.550781 8.800781 -12.28125 2 -4.40625 C 0.269531 -2.40625 -1.863281 -2.003906 -4.40625 -3.203125 C -6.800781 -4.398438 -7.664062 -6.332031 -7 -9 L 3 -53.046875 C 3.269531 -54.378906 4.035156 -55.445312 5.296875 -56.25 C 6.566406 -57.050781 7.867188 -57.25 9.203125 -56.84375 C 10.671875 -56.582031 11.769531 -55.816406 12.5 -54.546875 C 13.238281 -53.273438 13.476562 -51.972656 13.21875 -50.640625 L 8.609375 -30.828125 C 8.472656 -30.160156 8.738281 -29.625 9.40625 -29.21875 C 10.070312 -28.957031 10.671875 -29.09375 11.203125 -29.625 C 26.015625 -43.632812 38.492188 -50.304688 48.640625 -49.640625 C 52.910156 -49.378906 56.515625 -47.644531 59.453125 -44.4375 C 61.722656 -42.03125 63.722656 -39.425781 65.453125 -36.625 C 69.992188 -28.351562 76.398438 -22.015625 84.671875 -17.609375 C 91.078125 -14.941406 97.546875 -13.875 104.078125 -14.40625 C 110.617188 -14.945312 116.957031 -16.414062 123.09375 -18.8125 C 129.238281 -21.21875 134.976562 -24.117188 140.3125 -27.515625 C 145.65625 -30.921875 150.359375 -34.289062 154.421875 -37.625 C 158.492188 -40.96875 161.664062 -43.769531 163.9375 -46.03125 C 166.207031 -48.300781 167.410156 -49.503906 167.546875 -49.640625 C 168.472656 -50.710938 169.671875 -51.25 171.140625 -51.25 C 172.609375 -51.25 173.878906 -50.78125 174.953125 -49.84375 Z M 174.953125 -49.84375 "/></g></g></g><g fill="#092b5a" fill-opacity="1"><g transform="translate(1256.803782, 286.971761)"><g><path d="M 146.125 -56.84375 C 147.195312 -55.78125 147.734375 -54.515625 147.734375 -53.046875 C 147.734375 -51.578125 147.195312 -50.375 146.125 -49.4375 C 137.582031 -40.894531 128.503906 -34.125 118.890625 -29.125 C 109.285156 -24.125 99.679688 -20.554688 90.078125 -18.421875 C 80.472656 -16.285156 71.363281 -15.316406 62.75 -15.515625 C 54.144531 -15.710938 46.640625 -16.742188 40.234375 -18.609375 C 39.296875 -18.878906 38.5625 -18.546875 38.03125 -17.609375 C 36.300781 -13.609375 33.664062 -10.40625 30.125 -8 C 26.59375 -5.601562 22.625 -4.335938 18.21875 -4.203125 C 13.8125 -4.203125 9.738281 -5.269531 6 -7.40625 C 0.9375 -9.8125 -2.660156 -13.546875 -4.796875 -18.609375 C -6.929688 -23.679688 -7.132812 -28.890625 -5.40625 -34.234375 C -4.207031 -38.898438 -2.140625 -43.332031 0.796875 -47.53125 C 3.734375 -51.738281 7.070312 -55.175781 10.8125 -57.84375 C 14.550781 -60.519531 18.085938 -61.859375 21.421875 -61.859375 L 21.625 -61.859375 C 23.09375 -61.859375 24.328125 -61.320312 25.328125 -60.25 C 26.328125 -59.1875 26.828125 -57.921875 26.828125 -56.453125 C 26.828125 -55.117188 26.289062 -53.945312 25.21875 -52.9375 C 24.15625 -51.9375 22.890625 -51.4375 21.421875 -51.4375 C 20.210938 -51.4375 18.441406 -50.503906 16.109375 -48.640625 C 13.773438 -46.773438 11.503906 -44.335938 9.296875 -41.328125 C 7.097656 -38.328125 5.535156 -35.09375 4.609375 -31.625 C 3.535156 -28.6875 3.597656 -25.78125 4.796875 -22.90625 C 6.003906 -20.039062 8.007812 -18.007812 10.8125 -16.8125 C 13.207031 -14.945312 15.875 -14.179688 18.8125 -14.515625 C 21.75 -14.847656 24.148438 -16.148438 26.015625 -18.421875 C 26.679688 -19.210938 27.414062 -20.242188 28.21875 -21.515625 C 29.019531 -22.785156 28.820312 -23.820312 27.625 -24.625 C 23.882812 -27.019531 21.550781 -30.421875 20.625 -34.828125 C 19.6875 -39.234375 20.414062 -43.304688 22.8125 -47.046875 C 26.019531 -52.515625 28.957031 -55.582031 31.625 -56.25 C 34.289062 -56.914062 36.5625 -56.710938 38.4375 -55.640625 C 41.101562 -54.179688 42.769531 -51.28125 43.4375 -46.9375 C 44.101562 -42.601562 44.035156 -37.96875 43.234375 -33.03125 C 42.972656 -31.832031 43.238281 -30.664062 44.03125 -29.53125 C 44.832031 -28.394531 45.835938 -27.691406 47.046875 -27.421875 C 58.253906 -25.554688 69.363281 -25.488281 80.375 -27.21875 C 91.382812 -28.957031 101.859375 -32.328125 111.796875 -37.328125 C 121.734375 -42.335938 130.707031 -48.84375 138.71875 -56.84375 C 139.65625 -57.914062 140.859375 -58.453125 142.328125 -58.453125 C 143.796875 -58.453125 145.0625 -57.914062 146.125 -56.84375 Z M 32.828125 -34.234375 C 33.359375 -37.429688 33.492188 -40.695312 33.234375 -44.03125 C 33.097656 -43.632812 32.894531 -43.269531 32.625 -42.9375 C 32.363281 -42.601562 32.097656 -42.234375 31.828125 -41.828125 C 31.023438 -40.628906 30.691406 -39.296875 30.828125 -37.828125 C 30.960938 -36.359375 31.628906 -35.160156 32.828125 -34.234375 Z M 32.828125 -34.234375 "/></g></g></g><g fill="#092b5a" fill-opacity="1"><g transform="translate(903.493828, 405.367451)"><g><path d="M 17.609375 0 L 1.546875 0 L 1.546875 -1.34375 C 3.265625 -1.34375 5 -1.957031 6.75 -3.1875 C 8.5 -4.425781 9.75 -5.972656 10.5 -7.828125 L 32.9375 -61.5625 L 30.0625 -68.5625 C 29.238281 -70.613281 27.96875 -71.984375 26.25 -72.671875 C 24.53125 -73.359375 22.644531 -73.703125 20.59375 -73.703125 L 20.59375 -75.046875 L 38.59375 -75.046875 L 65.671875 -10.390625 C 67.109375 -7.035156 68.703125 -4.6875 70.453125 -3.34375 C 72.203125 -2.007812 74.347656 -1.34375 76.890625 -1.34375 L 76.890625 0 L 47.96875 0 L 47.96875 -1.34375 L 50.75 -1.34375 C 53.425781 -1.34375 54.953125 -2.21875 55.328125 -3.96875 C 55.703125 -5.71875 55.375 -7.828125 54.34375 -10.296875 L 48.484375 -24.609375 L 18.84375 -24.609375 L 12.046875 -8.234375 C 11.148438 -6.035156 11.316406 -4.335938 12.546875 -3.140625 C 13.785156 -1.941406 15.472656 -1.34375 17.609375 -1.34375 Z M 33.65625 -60.015625 L 19.453125 -25.9375 L 47.859375 -25.9375 Z M 33.65625 -60.015625 "/></g></g></g><g fill="#092b5a" fill-opacity="1"><g transform="translate(981.937331, 405.367451)"><g><path d="M 3.09375 0 L 3.09375 -1.34375 C 5.5625 -1.34375 7.359375 -1.664062 8.484375 -2.3125 C 9.617188 -2.96875 10.1875 -4.492188 10.1875 -6.890625 L 10.1875 -68.140625 C 10.1875 -70.546875 9.617188 -72.070312 8.484375 -72.71875 C 7.359375 -73.375 5.5625 -73.703125 3.09375 -73.703125 L 3.09375 -75.046875 L 36.640625 -75.046875 C 39.390625 -75.046875 42.476562 -74.820312 45.90625 -74.375 C 49.34375 -73.925781 52.789062 -73.03125 56.25 -71.6875 C 59.71875 -70.351562 62.925781 -68.347656 65.875 -65.671875 C 68.832031 -62.992188 71.203125 -59.457031 72.984375 -55.0625 C 74.765625 -50.675781 75.65625 -45.15625 75.65625 -38.5 C 75.65625 -33.488281 74.953125 -28.664062 73.546875 -24.03125 C 72.140625 -19.40625 69.820312 -15.289062 66.59375 -11.6875 C 63.375 -8.082031 59.085938 -5.234375 53.734375 -3.140625 C 48.378906 -1.046875 41.789062 0 33.96875 0 Z M 33.046875 -1.34375 C 39.492188 -1.34375 44.773438 -2.4375 48.890625 -4.625 C 53.015625 -6.820312 56.207031 -9.753906 58.46875 -13.421875 C 60.726562 -17.097656 62.285156 -21.113281 63.140625 -25.46875 C 64.003906 -29.832031 64.4375 -34.175781 64.4375 -38.5 C 64.4375 -46.320312 63.148438 -52.835938 60.578125 -58.046875 C 58.003906 -63.265625 54.488281 -67.175781 50.03125 -69.78125 C 45.570312 -72.394531 40.492188 -73.703125 34.796875 -73.703125 C 29.992188 -73.703125 26.578125 -73.375 24.546875 -72.71875 C 22.523438 -72.070312 21.515625 -70.582031 21.515625 -68.25 L 21.515625 -6.890625 C 21.515625 -4.554688 22.390625 -3.046875 24.140625 -2.359375 C 25.890625 -1.679688 28.859375 -1.34375 33.046875 -1.34375 Z M 33.046875 -1.34375 "/></g></g></g><g fill="#092b5a" fill-opacity="1"><g transform="translate(1062.748558, 405.367451)"><g><path d="M 3.09375 0 L 3.09375 -1.34375 C 5.5625 -1.34375 7.359375 -1.664062 8.484375 -2.3125 C 9.617188 -2.96875 10.1875 -4.492188 10.1875 -6.890625 L 10.1875 -68.140625 C 10.1875 -70.546875 9.617188 -72.070312 8.484375 -72.71875 C 7.359375 -73.375 5.5625 -73.703125 3.09375 -73.703125 L 3.09375 -75.046875 L 36.640625 -75.046875 C 39.390625 -75.046875 42.476562 -74.820312 45.90625 -74.375 C 49.34375 -73.925781 52.789062 -73.03125 56.25 -71.6875 C 59.71875 -70.351562 62.925781 -68.347656 65.875 -65.671875 C 68.832031 -62.992188 71.203125 -59.457031 72.984375 -55.0625 C 74.765625 -50.675781 75.65625 -45.15625 75.65625 -38.5 C 75.65625 -33.488281 74.953125 -28.664062 73.546875 -24.03125 C 72.140625 -19.40625 69.820312 -15.289062 66.59375 -11.6875 C 63.375 -8.082031 59.085938 -5.234375 53.734375 -3.140625 C 48.378906 -1.046875 41.789062 0 33.96875 0 Z M 33.046875 -1.34375 C 39.492188 -1.34375 44.773438 -2.4375 48.890625 -4.625 C 53.015625 -6.820312 56.207031 -9.753906 58.46875 -13.421875 C 60.726562 -17.097656 62.285156 -21.113281 63.140625 -25.46875 C 64.003906 -29.832031 64.4375 -34.175781 64.4375 -38.5 C 64.4375 -46.320312 63.148438 -52.835938 60.578125 -58.046875 C 58.003906 -63.265625 54.488281 -67.175781 50.03125 -69.78125 C 45.570312 -72.394531 40.492188 -73.703125 34.796875 -73.703125 C 29.992188 -73.703125 26.578125 -73.375 24.546875 -72.71875 C 22.523438 -72.070312 21.515625 -70.582031 21.515625 -68.25 L 21.515625 -6.890625 C 21.515625 -4.554688 22.390625 -3.046875 24.140625 -2.359375 C 25.890625 -1.679688 28.859375 -1.34375 33.046875 -1.34375 Z M 33.046875 -1.34375 "/></g></g></g><g fill="#092b5a" fill-opacity="1"><g transform="translate(1143.559786, 405.367451)"><g><path d="M 1.546875 -75.046875 L 30.0625 -75.046875 L 30.0625 -73.8125 C 26.625 -73.8125 24.304688 -73.5 23.109375 -72.875 C 21.910156 -72.257812 21.859375 -70.785156 22.953125 -68.453125 L 49.203125 -14.203125 L 67.9375 -67.625 C 68.695312 -69.820312 68.695312 -71.382812 67.9375 -72.3125 C 67.1875 -73.238281 65.195312 -73.703125 61.96875 -73.703125 L 61.96875 -75.046875 L 78.75 -75.046875 L 78.75 -73.703125 C 75.863281 -73.703125 73.769531 -73.289062 72.46875 -72.46875 C 71.164062 -71.644531 70.101562 -70 69.28125 -67.53125 L 45.59375 0 L 44.0625 1.234375 L 10.8125 -67.625 C 9.707031 -70.03125 8.585938 -71.644531 7.453125 -72.46875 C 6.328125 -73.289062 4.359375 -73.703125 1.546875 -73.703125 Z M 1.546875 -75.046875 "/></g></g></g><g fill="#092b5a" fill-opacity="1"><g transform="translate(1223.856292, 405.367451)"><g><path d="M 10.1875 -6.890625 L 10.1875 -68.140625 C 10.1875 -70.546875 9.617188 -72.070312 8.484375 -72.71875 C 7.359375 -73.375 5.5625 -73.703125 3.09375 -73.703125 L 3.09375 -75.046875 L 28.71875 -75.046875 L 28.71875 -73.703125 C 26.25 -73.703125 24.429688 -73.375 23.265625 -72.71875 C 22.097656 -72.070312 21.515625 -70.546875 21.515625 -68.140625 L 21.515625 -6.890625 C 21.515625 -4.492188 22.097656 -2.96875 23.265625 -2.3125 C 24.429688 -1.664062 26.210938 -1.34375 28.609375 -1.34375 L 28.71875 0 L 3.09375 0 L 3.09375 -1.34375 C 5.5625 -1.34375 7.359375 -1.664062 8.484375 -2.3125 C 9.617188 -2.96875 10.1875 -4.492188 10.1875 -6.890625 Z M 10.1875 -6.890625 "/></g></g></g><g fill="#092b5a" fill-opacity="1"><g transform="translate(1255.666052, 405.367451)"><g><path d="M 41.171875 1.234375 C 34.109375 1.234375 27.863281 -0.359375 22.4375 -3.546875 C 17.019531 -6.742188 12.78125 -11.132812 9.71875 -16.71875 C 6.664062 -22.3125 5.140625 -28.710938 5.140625 -35.921875 C 5.140625 -41.484375 5.960938 -46.695312 7.609375 -51.5625 C 9.265625 -56.4375 11.671875 -60.726562 14.828125 -64.4375 C 17.984375 -68.144531 21.804688 -71.023438 26.296875 -73.078125 C 30.796875 -75.140625 35.894531 -76.171875 41.59375 -76.171875 C 44.882812 -76.171875 47.625 -75.789062 49.8125 -75.03125 C 52.007812 -74.28125 53.863281 -73.523438 55.375 -72.765625 C 56.882812 -72.015625 58.191406 -71.640625 59.296875 -71.640625 C 59.910156 -71.640625 60.523438 -71.863281 61.140625 -72.3125 C 61.765625 -72.757812 62.078125 -73.671875 62.078125 -75.046875 L 63.40625 -75.046875 L 63.40625 -49.203125 L 62.171875 -49.203125 C 62.171875 -57.847656 60.421875 -64.09375 56.921875 -67.9375 C 53.421875 -71.78125 48.617188 -73.703125 42.515625 -73.703125 C 37.910156 -73.703125 33.722656 -72.46875 29.953125 -70 C 26.179688 -67.53125 23.160156 -63.859375 20.890625 -58.984375 C 18.628906 -54.109375 17.5 -48.066406 17.5 -40.859375 C 17.5 -33.722656 18.628906 -27.394531 20.890625 -21.875 C 23.160156 -16.351562 26.4375 -12.046875 30.71875 -8.953125 C 35.007812 -5.867188 40.109375 -4.328125 46.015625 -4.328125 C 50.953125 -4.328125 55.015625 -5.421875 58.203125 -7.609375 C 61.398438 -9.804688 63.753906 -12.671875 65.265625 -16.203125 C 66.773438 -19.742188 67.53125 -23.539062 67.53125 -27.59375 L 68.859375 -27.59375 C 68.859375 -24.019531 68.328125 -20.515625 67.265625 -17.078125 C 66.203125 -13.648438 64.535156 -10.546875 62.265625 -7.765625 C 60.003906 -4.992188 57.140625 -2.800781 53.671875 -1.1875 C 50.210938 0.425781 46.046875 1.234375 41.171875 1.234375 Z M 41.171875 1.234375 "/></g></g></g><g fill="#092b5a" fill-opacity="1"><g transform="translate(1329.168241, 405.367451)"><g><path d="M 3.09375 0 L 3.09375 -1.34375 C 5.351562 -1.34375 7.066406 -1.613281 8.234375 -2.15625 C 9.398438 -2.707031 10.085938 -3.945312 10.296875 -5.875 L 10.1875 -68.140625 C 10.1875 -70.546875 9.617188 -72.070312 8.484375 -72.71875 C 7.359375 -73.375 5.5625 -73.703125 3.09375 -73.703125 L 3.09375 -75.046875 L 56.3125 -75.046875 L 61.765625 -58.78125 L 60.421875 -58.78125 C 59.191406 -62.6875 57.785156 -65.71875 56.203125 -67.875 C 54.628906 -70.039062 52.625 -71.535156 50.1875 -72.359375 C 47.75 -73.179688 44.570312 -73.59375 40.65625 -73.59375 C 35.71875 -73.59375 31.875 -73.472656 29.125 -73.234375 C 26.382812 -72.992188 24.445312 -72.492188 23.3125 -71.734375 C 22.175781 -70.984375 21.609375 -69.785156 21.609375 -68.140625 L 21.609375 -40.046875 L 33.453125 -40.046875 C 37.160156 -40.109375 39.851562 -40.722656 41.53125 -41.890625 C 43.21875 -43.054688 44.265625 -44.804688 44.671875 -47.140625 C 45.085938 -49.472656 45.296875 -52.359375 45.296875 -55.796875 L 46.625 -55.796875 L 46.625 -21.71875 L 45.296875 -21.71875 C 45.296875 -25.21875 45.125 -28.238281 44.78125 -30.78125 C 44.4375 -33.320312 43.457031 -35.273438 41.84375 -36.640625 C 40.226562 -38.015625 37.429688 -38.703125 33.453125 -38.703125 L 21.609375 -38.703125 L 21.609375 -6.890625 C 21.609375 -4.554688 22.601562 -3.046875 24.59375 -2.359375 C 26.59375 -1.679688 30.195312 -1.34375 35.40625 -1.34375 C 41.3125 -1.34375 46.132812 -2.59375 49.875 -5.09375 C 53.613281 -7.601562 56.628906 -11 58.921875 -15.28125 C 61.222656 -19.570312 63.164062 -24.328125 64.75 -29.546875 L 66.078125 -29.546875 L 58.78125 0 Z M 3.09375 0 "/></g></g></g><g fill="#092b5a" fill-opacity="1"><g transform="translate(258.314257, 510.291851)"><g><path d="M 38 0 L 5.953125 0 L 5.953125 -53.9375 L 38 -53.9375 L 38 -48.78125 L 11.5 -48.78125 L 11.5 -29.59375 L 37.203125 -29.59375 L 37.203125 -24.359375 L 11.5 -24.359375 L 11.5 -5.15625 L 38 -5.15625 Z M 38 0 "/></g></g></g><g fill="#092b5a" fill-opacity="1"><g transform="translate(305.195352, 510.291851)"><g><path d="M 30.0625 0 L 30.0625 -21.8125 C 30.0625 -24.082031 29.5625 -26.039062 28.5625 -27.6875 C 27.5 -29.269531 25.78125 -30.0625 23.40625 -30.0625 C 21.019531 -30.0625 19.085938 -29.613281 17.609375 -28.71875 C 16.128906 -27.820312 14.941406 -26.65625 14.046875 -25.21875 C 12.347656 -22.582031 11.5 -19.039062 11.5 -14.59375 L 11.5 0 L 5.953125 0 L 5.953125 -34.90625 L 11.5 -34.90625 L 11.5 -28.875 C 12.664062 -30.832031 14.144531 -32.445312 15.9375 -33.71875 C 17.84375 -34.988281 20.039062 -35.625 22.53125 -35.625 C 25.007812 -35.625 27.019531 -35.28125 28.5625 -34.59375 C 30.09375 -33.84375 31.382812 -32.863281 32.4375 -31.65625 C 34.5625 -29.164062 35.625 -25.882812 35.625 -21.8125 L 35.625 0 Z M 30.0625 0 "/></g></g></g><g fill="#092b5a" fill-opacity="1"><g transform="translate(348.506861, 510.291851)"><g><path d="M 34.1875 -17.453125 C 34.1875 -20.835938 33.023438 -23.800781 30.703125 -26.34375 C 28.316406 -28.875 25.378906 -30.140625 21.890625 -30.140625 C 18.503906 -30.140625 15.597656 -28.875 13.171875 -26.34375 C 10.785156 -23.851562 9.59375 -20.890625 9.59375 -17.453125 C 9.59375 -14.015625 10.785156 -11.050781 13.171875 -8.5625 C 15.597656 -6.03125 18.503906 -4.765625 21.890625 -4.765625 C 25.378906 -4.765625 28.316406 -6.03125 30.703125 -8.5625 C 33.023438 -11.101562 34.1875 -14.066406 34.1875 -17.453125 Z M 9.4375 4.765625 C 9.96875 6.929688 11.101562 8.859375 12.84375 10.546875 C 15.28125 13.035156 18.21875 14.28125 21.65625 14.28125 C 25.09375 14.28125 28.054688 13.035156 30.546875 10.546875 C 32.972656 8.117188 34.1875 5.1875 34.1875 1.75 L 34.1875 -5.875 C 33.925781 -5.5 33.632812 -5.128906 33.3125 -4.765625 C 29.976562 -1.054688 25.90625 0.796875 21.09375 0.796875 C 16.226562 0.796875 12.160156 -1.054688 8.890625 -4.765625 C 5.660156 -8.359375 4.046875 -12.585938 4.046875 -17.453125 C 4.046875 -22.316406 5.660156 -26.546875 8.890625 -30.140625 C 12.160156 -33.847656 16.226562 -35.703125 21.09375 -35.703125 C 25.75 -35.703125 29.820312 -33.847656 33.3125 -30.140625 C 33.632812 -29.773438 33.925781 -29.40625 34.1875 -29.03125 L 34.1875 -34.90625 L 39.75 -34.90625 L 39.75 1.75 C 39.75 6.71875 37.972656 10.972656 34.421875 14.515625 C 30.878906 18.054688 26.625 19.828125 21.65625 19.828125 C 16.6875 19.828125 12.429688 18.054688 8.890625 14.515625 C 6.085938 11.710938 4.394531 8.460938 3.8125 4.765625 Z M 9.4375 4.765625 "/></g></g></g><g fill="#092b5a" fill-opacity="1"><g transform="translate(397.133095, 510.291851)"><g><path d="M 40.0625 -18.25 L 40.0625 -15.3125 L 9.359375 -15.3125 C 9.890625 -12.289062 11.34375 -9.832031 13.71875 -7.9375 C 16.15625 -5.976562 18.851562 -5 21.8125 -5 C 23.820312 -5 25.753906 -5.472656 27.609375 -6.421875 C 29.398438 -7.328125 30.90625 -8.597656 32.125 -10.234375 L 38.46875 -10.234375 C 36.988281 -6.898438 34.769531 -4.28125 31.8125 -2.375 C 28.789062 -0.414062 25.75 0.5625 22.6875 0.5625 C 19.5625 0.5625 16.914062 0.0820312 14.75 -0.875 C 12.53125 -1.820312 10.601562 -3.117188 8.96875 -4.765625 C 5.363281 -8.253906 3.5625 -12.535156 3.5625 -17.609375 C 3.5625 -22.628906 5.363281 -26.941406 8.96875 -30.546875 C 12.507812 -34.085938 16.789062 -35.859375 21.8125 -35.859375 C 26.675781 -35.859375 30.9375 -34.140625 34.59375 -30.703125 C 38.238281 -27.210938 40.0625 -23.0625 40.0625 -18.25 Z M 34.1875 -20.0625 C 33.550781 -23.03125 32.070312 -25.492188 29.75 -27.453125 C 27.414062 -29.347656 24.769531 -30.296875 21.8125 -30.296875 C 17.269531 -30.296875 13.703125 -28.257812 11.109375 -24.1875 C 10.316406 -22.925781 9.757812 -21.550781 9.4375 -20.0625 Z M 34.1875 -20.0625 "/></g></g></g><g fill="#092b5a" fill-opacity="1"><g transform="translate(443.300286, 510.291851)"><g><path d="M 30.0625 0 L 30.0625 -21.8125 C 30.0625 -24.082031 29.5625 -26.039062 28.5625 -27.6875 C 27.5 -29.269531 25.78125 -30.0625 23.40625 -30.0625 C 21.019531 -30.0625 19.085938 -29.613281 17.609375 -28.71875 C 16.128906 -27.820312 14.941406 -26.65625 14.046875 -25.21875 C 12.347656 -22.582031 11.5 -19.039062 11.5 -14.59375 L 11.5 0 L 5.953125 0 L 5.953125 -34.90625 L 11.5 -34.90625 L 11.5 -28.875 C 12.664062 -30.832031 14.144531 -32.445312 15.9375 -33.71875 C 17.84375 -34.988281 20.039062 -35.625 22.53125 -35.625 C 25.007812 -35.625 27.019531 -35.28125 28.5625 -34.59375 C 30.09375 -33.84375 31.382812 -32.863281 32.4375 -31.65625 C 34.5625 -29.164062 35.625 -25.882812 35.625 -21.8125 L 35.625 0 Z M 30.0625 0 "/></g></g></g><g fill="#092b5a" fill-opacity="1"><g transform="translate(486.611802, 510.291851)"><g><path d="M 11.5 0 L 5.953125 0 L 5.953125 -59.5 L 11.5 -59.5 L 11.5 -28.875 C 12.664062 -30.832031 14.144531 -32.445312 15.9375 -33.71875 C 17.84375 -34.988281 20.039062 -35.625 22.53125 -35.625 C 25.007812 -35.625 27.019531 -35.28125 28.5625 -34.59375 C 30.09375 -33.84375 31.382812 -32.863281 32.4375 -31.65625 C 34.5625 -29.164062 35.625 -25.882812 35.625 -21.8125 L 35.625 0 L 30.0625 0 L 30.0625 -21.8125 C 30.0625 -24.082031 29.5625 -26.039062 28.5625 -27.6875 C 27.5 -29.269531 25.78125 -30.0625 23.40625 -30.0625 C 21.019531 -30.0625 19.085938 -29.691406 17.609375 -28.953125 C 16.128906 -28.160156 14.941406 -27.078125 14.046875 -25.703125 C 12.347656 -23.160156 11.5 -19.457031 11.5 -14.59375 Z M 11.5 0 "/></g></g></g><g fill="#092b5a" fill-opacity="1"><g transform="translate(529.923319, 510.291851)"><g><path d="M 33.71875 -17.453125 C 33.71875 -20.835938 32.550781 -23.800781 30.21875 -26.34375 C 27.84375 -28.875 24.910156 -30.140625 21.421875 -30.140625 C 17.929688 -30.140625 15.019531 -28.875 12.6875 -26.34375 C 10.3125 -23.800781 9.125 -20.835938 9.125 -17.453125 C 9.125 -14.066406 10.3125 -11.101562 12.6875 -8.5625 C 15.019531 -6.03125 17.929688 -4.765625 21.421875 -4.765625 C 24.910156 -4.765625 27.84375 -6.03125 30.21875 -8.5625 C 32.550781 -11.101562 33.71875 -14.066406 33.71875 -17.453125 Z M 39.265625 0 L 33.71875 0 L 33.71875 -5.953125 C 33.394531 -5.523438 33.078125 -5.128906 32.765625 -4.765625 C 29.429688 -1.054688 25.359375 0.796875 20.546875 0.796875 C 15.734375 0.796875 11.6875 -1.054688 8.40625 -4.765625 C 5.175781 -8.359375 3.5625 -12.585938 3.5625 -17.453125 C 3.5625 -22.316406 5.175781 -26.546875 8.40625 -30.140625 C 11.6875 -33.847656 15.734375 -35.703125 20.546875 -35.703125 C 25.359375 -35.703125 29.429688 -33.847656 32.765625 -30.140625 C 33.078125 -29.773438 33.394531 -29.378906 33.71875 -28.953125 L 33.71875 -34.90625 L 39.265625 -34.90625 Z M 39.265625 0 "/></g></g></g><g fill="#092b5a" fill-opacity="1"><g transform="translate(578.073612, 510.291851)"><g><path d="M 23.875 -27.6875 C 22.601562 -28.851562 21.226562 -29.4375 19.75 -29.4375 C 18.320312 -29.4375 17.109375 -29.035156 16.109375 -28.234375 C 15.046875 -27.390625 14.171875 -26.382812 13.484375 -25.21875 C 12.160156 -22.894531 11.5 -20.304688 11.5 -17.453125 L 11.5 0 L 5.953125 0 L 5.953125 -34.90625 L 11.5 -34.90625 L 11.5 -27.6875 L 11.734375 -29.109375 C 13.585938 -33.453125 16.472656 -35.625 20.390625 -35.625 C 21.609375 -35.625 22.769531 -35.382812 23.875 -34.90625 Z M 23.875 -27.6875 "/></g></g></g><g fill="#092b5a" fill-opacity="1"><g transform="translate(605.678931, 510.291851)"><g><path d="M 11.578125 -46.96875 C 12.265625 -46.28125 12.609375 -45.457031 12.609375 -44.5 C 12.609375 -43.5 12.265625 -42.65625 11.578125 -41.96875 C 10.890625 -41.28125 10.070312 -40.9375 9.125 -40.9375 C 8.113281 -40.9375 7.265625 -41.28125 6.578125 -41.96875 C 5.890625 -42.65625 5.546875 -43.5 5.546875 -44.5 C 5.546875 -45.457031 5.890625 -46.28125 6.578125 -46.96875 C 7.265625 -47.65625 8.113281 -48 9.125 -48 C 10.070312 -48 10.890625 -47.65625 11.578125 -46.96875 Z M 11.90625 0 L 6.34375 0 L 6.34375 -34.90625 L 11.90625 -34.90625 Z M 11.90625 0 "/></g></g></g><g fill="#092b5a" fill-opacity="1"><g transform="translate(626.779666, 510.291851)"><g><path d="M 33.71875 -17.453125 C 33.71875 -20.835938 32.550781 -23.800781 30.21875 -26.34375 C 27.84375 -28.875 24.910156 -30.140625 21.421875 -30.140625 C 17.929688 -30.140625 15.019531 -28.875 12.6875 -26.34375 C 10.3125 -23.800781 9.125 -20.835938 9.125 -17.453125 C 9.125 -14.066406 10.3125 -11.101562 12.6875 -8.5625 C 15.019531 -6.03125 17.929688 -4.765625 21.421875 -4.765625 C 24.910156 -4.765625 27.84375 -6.03125 30.21875 -8.5625 C 32.550781 -11.101562 33.71875 -14.066406 33.71875 -17.453125 Z M 39.265625 0 L 33.71875 0 L 33.71875 -5.953125 C 33.394531 -5.523438 33.078125 -5.128906 32.765625 -4.765625 C 29.429688 -1.054688 25.359375 0.796875 20.546875 0.796875 C 15.734375 0.796875 11.6875 -1.054688 8.40625 -4.765625 C 5.175781 -8.359375 3.5625 -12.585938 3.5625 -17.453125 C 3.5625 -22.316406 5.175781 -26.546875 8.40625 -30.140625 C 11.6875 -33.847656 15.734375 -35.703125 20.546875 -35.703125 C 25.359375 -35.703125 29.429688 -33.847656 32.765625 -30.140625 C 33.078125 -29.773438 33.394531 -29.378906 33.71875 -28.953125 L 33.71875 -34.90625 L 39.265625 -34.90625 Z M 39.265625 0 "/></g></g></g><g fill="#092b5a" fill-opacity="1"><g transform="translate(674.929959, 510.291851)"><g/></g></g><g fill="#092b5a" fill-opacity="1"><g transform="translate(699.283, 510.291851)"><g><path d="M 20.859375 -27.375 C 17.796875 -25.144531 15.679688 -23.453125 14.515625 -22.296875 C 11.921875 -19.703125 10.625 -17.296875 10.625 -15.078125 C 10.625 -12.429688 11.601562 -10.050781 13.5625 -7.9375 C 15.46875 -5.820312 17.769531 -4.765625 20.46875 -4.765625 C 23.375 -4.765625 26.597656 -6.425781 30.140625 -9.75 C 31.046875 -10.601562 31.894531 -11.425781 32.6875 -12.21875 Z M 20.390625 -36.25 C 21.023438 -35.5625 21.632812 -34.875 22.21875 -34.1875 C 23.007812 -34.769531 23.851562 -35.378906 24.75 -36.015625 C 25.59375 -36.597656 26.382812 -37.257812 27.125 -38 C 28.820312 -39.6875 29.671875 -41.507812 29.671875 -43.46875 C 29.671875 -45.425781 29.007812 -46.960938 27.6875 -48.078125 C 26.363281 -49.179688 24.910156 -49.785156 23.328125 -49.890625 C 21.679688 -49.953125 20.195312 -49.453125 18.875 -48.390625 C 17.550781 -47.328125 16.890625 -45.632812 16.890625 -43.3125 C 16.890625 -40.988281 18.054688 -38.632812 20.390625 -36.25 Z M 47.203125 -21.015625 C 46.410156 -19.910156 44.03125 -16.953125 40.0625 -12.140625 L 49.34375 0 L 42.046875 0.15625 L 36.171875 -7.53125 C 33.523438 -4.882812 31.410156 -3.0625 29.828125 -2.0625 C 26.597656 -0.0507812 23.742188 0.953125 21.265625 0.953125 C 18.773438 0.953125 16.578125 0.554688 14.671875 -0.234375 C 12.710938 -0.972656 11.046875 -2.054688 9.671875 -3.484375 C 6.660156 -6.453125 5.15625 -10.179688 5.15625 -14.671875 C 5.15625 -19.859375 7.71875 -24.351562 12.84375 -28.15625 C 14.332031 -29.21875 15.867188 -30.332031 17.453125 -31.5 C 13.640625 -35.882812 11.734375 -39.769531 11.734375 -43.15625 C 11.734375 -46.488281 12.789062 -49.265625 14.90625 -51.484375 C 17.03125 -53.648438 19.835938 -54.734375 23.328125 -54.734375 C 26.648438 -54.734375 29.398438 -53.703125 31.578125 -51.640625 C 33.742188 -49.523438 34.828125 -46.828125 34.828125 -43.546875 C 34.828125 -40.054688 32.765625 -36.617188 28.640625 -33.234375 C 27.523438 -32.285156 26.46875 -31.414062 25.46875 -30.625 L 36.5625 -16.421875 C 37.625 -17.691406 38.65625 -18.960938 39.65625 -20.234375 L 42.671875 -24.03125 Z M 47.203125 -21.015625 "/></g></g></g><g fill="#092b5a" fill-opacity="1"><g transform="translate(756.872862, 510.291851)"><g/></g></g><g fill="#092b5a" fill-opacity="1"><g transform="translate(781.225903, 510.291851)"><g><path d="M 14.671875 -19.828125 L 34.265625 -19.828125 L 24.515625 -44.65625 Z M 48.15625 0 L 42.125 0 L 36.328125 -14.671875 L 12.609375 -14.671875 L 6.828125 0 L 0.796875 0 L 24.515625 -57.671875 Z M 48.15625 0 "/></g></g></g><g fill="#092b5a" fill-opacity="1"><g transform="translate(833.104415, 510.291851)"><g><path d="M 23.875 -27.6875 C 22.601562 -28.851562 21.226562 -29.4375 19.75 -29.4375 C 18.320312 -29.4375 17.109375 -29.035156 16.109375 -28.234375 C 15.046875 -27.390625 14.171875 -26.382812 13.484375 -25.21875 C 12.160156 -22.894531 11.5 -20.304688 11.5 -17.453125 L 11.5 0 L 5.953125 0 L 5.953125 -34.90625 L 11.5 -34.90625 L 11.5 -27.6875 L 11.734375 -29.109375 C 13.585938 -33.453125 16.472656 -35.625 20.390625 -35.625 C 21.609375 -35.625 22.769531 -35.382812 23.875 -34.90625 Z M 23.875 -27.6875 "/></g></g></g><g fill="#092b5a" fill-opacity="1"><g transform="translate(860.709734, 510.291851)"><g><path d="M 33.71875 -17.453125 C 33.71875 -20.835938 32.550781 -23.800781 30.21875 -26.34375 C 27.84375 -28.875 24.910156 -30.140625 21.421875 -30.140625 C 17.929688 -30.140625 15.019531 -28.875 12.6875 -26.34375 C 10.3125 -23.800781 9.125 -20.835938 9.125 -17.453125 C 9.125 -14.066406 10.3125 -11.101562 12.6875 -8.5625 C 15.019531 -6.03125 17.929688 -4.765625 21.421875 -4.765625 C 24.910156 -4.765625 27.84375 -6.03125 30.21875 -8.5625 C 32.550781 -11.101562 33.71875 -14.066406 33.71875 -17.453125 Z M 39.265625 19.828125 L 33.71875 19.828125 L 33.71875 -5.953125 C 33.394531 -5.523438 33.078125 -5.128906 32.765625 -4.765625 C 29.429688 -1.054688 25.359375 0.796875 20.546875 0.796875 C 15.734375 0.796875 11.6875 -1.054688 8.40625 -4.765625 C 5.175781 -8.359375 3.5625 -12.585938 3.5625 -17.453125 C 3.5625 -22.316406 5.175781 -26.546875 8.40625 -30.140625 C 11.6875 -33.847656 15.734375 -35.703125 20.546875 -35.703125 C 25.359375 -35.703125 29.429688 -33.847656 32.765625 -30.140625 C 33.078125 -29.773438 33.394531 -29.378906 33.71875 -28.953125 L 33.71875 -34.90625 L 39.265625 -34.90625 Z M 39.265625 19.828125 "/></g></g></g><g fill="#092b5a" fill-opacity="1"><g transform="translate(908.859998, 510.291851)"><g><path d="M 30.0625 -5.953125 C 27.46875 -1.503906 23.582031 0.71875 18.40625 0.71875 C 14.488281 0.71875 11.421875 -0.578125 9.203125 -3.171875 C 7.035156 -5.765625 5.953125 -9.070312 5.953125 -13.09375 L 5.953125 -34.90625 L 11.5 -34.90625 L 11.5 -13.09375 C 11.5 -10.8125 12.03125 -8.878906 13.09375 -7.296875 C 14.09375 -5.660156 15.785156 -4.84375 18.171875 -4.84375 C 22.503906 -4.84375 25.570312 -6.21875 27.375 -8.96875 C 29.164062 -11.664062 30.0625 -15.445312 30.0625 -20.3125 L 30.0625 -34.90625 L 35.625 -34.90625 L 35.625 0 L 30.0625 0 Z M 30.0625 -5.953125 "/></g></g></g><g fill="#092b5a" fill-opacity="1"><g transform="translate(952.171515, 510.291851)"><g><path d="M 11.578125 -46.96875 C 12.265625 -46.28125 12.609375 -45.457031 12.609375 -44.5 C 12.609375 -43.5 12.265625 -42.65625 11.578125 -41.96875 C 10.890625 -41.28125 10.070312 -40.9375 9.125 -40.9375 C 8.113281 -40.9375 7.265625 -41.28125 6.578125 -41.96875 C 5.890625 -42.65625 5.546875 -43.5 5.546875 -44.5 C 5.546875 -45.457031 5.890625 -46.28125 6.578125 -46.96875 C 7.265625 -47.65625 8.113281 -48 9.125 -48 C 10.070312 -48 10.890625 -47.65625 11.578125 -46.96875 Z M 11.90625 0 L 6.34375 0 L 6.34375 -34.90625 L 11.90625 -34.90625 Z M 11.90625 0 "/></g></g></g><g fill="#092b5a" fill-opacity="1"><g transform="translate(973.272278, 510.291851)"><g><path d="M 1.59375 -29.75 L 1.59375 -34.90625 L 10.3125 -34.90625 L 10.3125 -48.46875 L 15.859375 -48.46875 L 15.859375 -34.90625 L 24.515625 -34.90625 L 24.515625 -29.75 L 15.859375 -29.75 L 15.859375 0 L 10.3125 0 L 10.3125 -29.75 Z M 1.59375 -29.75 "/></g></g></g><g fill="#092b5a" fill-opacity="1"><g transform="translate(1002.30545, 510.291851)"><g><path d="M 40.0625 -18.25 L 40.0625 -15.3125 L 9.359375 -15.3125 C 9.890625 -12.289062 11.34375 -9.832031 13.71875 -7.9375 C 16.15625 -5.976562 18.851562 -5 21.8125 -5 C 23.820312 -5 25.753906 -5.472656 27.609375 -6.421875 C 29.398438 -7.328125 30.90625 -8.597656 32.125 -10.234375 L 38.46875 -10.234375 C 36.988281 -6.898438 34.769531 -4.28125 31.8125 -2.375 C 28.789062 -0.414062 25.75 0.5625 22.6875 0.5625 C 19.5625 0.5625 16.914062 0.0820312 14.75 -0.875 C 12.53125 -1.820312 10.601562 -3.117188 8.96875 -4.765625 C 5.363281 -8.253906 3.5625 -12.535156 3.5625 -17.609375 C 3.5625 -22.628906 5.363281 -26.941406 8.96875 -30.546875 C 12.507812 -34.085938 16.789062 -35.859375 21.8125 -35.859375 C 26.675781 -35.859375 30.9375 -34.140625 34.59375 -30.703125 C 38.238281 -27.210938 40.0625 -23.0625 40.0625 -18.25 Z M 34.1875 -20.0625 C 33.550781 -23.03125 32.070312 -25.492188 29.75 -27.453125 C 27.414062 -29.347656 24.769531 -30.296875 21.8125 -30.296875 C 17.269531 -30.296875 13.703125 -28.257812 11.109375 -24.1875 C 10.316406 -22.925781 9.757812 -21.550781 9.4375 -20.0625 Z M 34.1875 -20.0625 "/></g></g></g><g fill="#092b5a" fill-opacity="1"><g transform="translate(1048.472612, 510.291851)"><g><path d="M 1.59375 -29.75 L 1.59375 -34.90625 L 10.3125 -34.90625 L 10.3125 -48.46875 L 15.859375 -48.46875 L 15.859375 -34.90625 L 24.515625 -34.90625 L 24.515625 -29.75 L 15.859375 -29.75 L 15.859375 0 L 10.3125 0 L 10.3125 -29.75 Z M 1.59375 -29.75 "/></g></g></g><g fill="#092b5a" fill-opacity="1"><g transform="translate(1077.505784, 510.291851)"><g><path d="M 30.0625 -5.953125 C 27.46875 -1.503906 23.582031 0.71875 18.40625 0.71875 C 14.488281 0.71875 11.421875 -0.578125 9.203125 -3.171875 C 7.035156 -5.765625 5.953125 -9.070312 5.953125 -13.09375 L 5.953125 -34.90625 L 11.5 -34.90625 L 11.5 -13.09375 C 11.5 -10.8125 12.03125 -8.878906 13.09375 -7.296875 C 14.09375 -5.660156 15.785156 -4.84375 18.171875 -4.84375 C 22.503906 -4.84375 25.570312 -6.21875 27.375 -8.96875 C 29.164062 -11.664062 30.0625 -15.445312 30.0625 -20.3125 L 30.0625 -34.90625 L 35.625 -34.90625 L 35.625 0 L 30.0625 0 Z M 30.0625 -5.953125 "/></g></g></g><g fill="#092b5a" fill-opacity="1"><g transform="translate(1120.8173, 510.291851)"><g><path d="M 23.875 -27.6875 C 22.601562 -28.851562 21.226562 -29.4375 19.75 -29.4375 C 18.320312 -29.4375 17.109375 -29.035156 16.109375 -28.234375 C 15.046875 -27.390625 14.171875 -26.382812 13.484375 -25.21875 C 12.160156 -22.894531 11.5 -20.304688 11.5 -17.453125 L 11.5 0 L 5.953125 0 L 5.953125 -34.90625 L 11.5 -34.90625 L 11.5 -27.6875 L 11.734375 -29.109375 C 13.585938 -33.453125 16.472656 -35.625 20.390625 -35.625 C 21.609375 -35.625 22.769531 -35.382812 23.875 -34.90625 Z M 23.875 -27.6875 "/></g></g></g><g fill="#092b5a" fill-opacity="1"><g transform="translate(1148.42262, 510.291851)"><g><path d="M 33.71875 -17.453125 C 33.71875 -20.835938 32.550781 -23.800781 30.21875 -26.34375 C 27.84375 -28.875 24.910156 -30.140625 21.421875 -30.140625 C 17.929688 -30.140625 15.019531 -28.875 12.6875 -26.34375 C 10.3125 -23.800781 9.125 -20.835938 9.125 -17.453125 C 9.125 -14.066406 10.3125 -11.101562 12.6875 -8.5625 C 15.019531 -6.03125 17.929688 -4.765625 21.421875 -4.765625 C 24.910156 -4.765625 27.84375 -6.03125 30.21875 -8.5625 C 32.550781 -11.101562 33.71875 -14.066406 33.71875 -17.453125 Z M 39.265625 0 L 33.71875 0 L 33.71875 -5.953125 C 33.394531 -5.523438 33.078125 -5.128906 32.765625 -4.765625 C 29.429688 -1.054688 25.359375 0.796875 20.546875 0.796875 C 15.734375 0.796875 11.6875 -1.054688 8.40625 -4.765625 C 5.175781 -8.359375 3.5625 -12.585938 3.5625 -17.453125 C 3.5625 -22.316406 5.175781 -26.546875 8.40625 -30.140625 C 11.6875 -33.847656 15.734375 -35.703125 20.546875 -35.703125 C 25.359375 -35.703125 29.429688 -33.847656 32.765625 -30.140625 C 33.078125 -29.773438 33.394531 -29.378906 33.71875 -28.953125 L 33.71875 -34.90625 L 39.265625 -34.90625 Z M 39.265625 0 "/></g></g></g><g fill="#092b5a" fill-opacity="1"><g transform="translate(1196.575721, 510.291851)"><g/></g></g><path stroke-linecap="butt" transform="matrix(0.75, 0, 0, 0.75, 47.47461, 438.634777)" fill="none" stroke-linejoin="miter" d="M 0.00260347 2.002589 L 1824.643306 2.002589 " stroke="#b45e1c" stroke-width="4" stroke-opacity="1" stroke-miterlimit="4"/></svg>