<svg xmlns="http://www.w3.org/2000/svg" width="1920" height="800" version="1.0" viewBox="0 0 1440 600">
  <defs>
    <clipPath id="a">
      <path d="M58.324 51.273h42.653v353.633H58.324Zm0 0"/>
    </clipPath>
    <clipPath id="b">
      <path d="M58.332 50.441h353.66v42.664H58.332Zm0 0"/>
    </clipPath>
    <clipPath id="c">
      <path d="M313.309 239.84h101.41v42.652h-101.41Zm0 0"/>
    </clipPath>
    <clipPath id="d">
      <path d="M369.273 51.344h42.707v223.5h-42.707Zm0 0"/>
    </clipPath>
    <clipPath id="e">
      <path d="M257 206h199v199H257Zm0 0"/>
    </clipPath>
    <clipPath id="f">
      <path d="m287.984 206.844 167.93 167.933-30.133 30.133-167.93-167.933Zm0 0"/>
    </clipPath>
    <clipPath id="g">
      <path d="M216 255h188v188H216Zm0 0"/>
    </clipPath>
    <clipPath id="h">
      <path d="m246.707 255.313 157.09 157.09-30.235 30.234-157.09-157.09Zm0 0"/>
    </clipPath>
    <clipPath id="i">
      <path d="M193 321h129v130H193Zm0 0"/>
    </clipPath>
    <clipPath id="j">
      <path d="m223.71 321.934 98.224 98.226-29.938 29.938-98.226-98.223Zm0 0"/>
    </clipPath>
    <clipPath id="k">
      <path d="M227.508 219.855h20.379v185.051h-20.38Zm0 0"/>
    </clipPath>
    <clipPath id="l">
      <path d="M410.156 29.266h67.68V433.52h-67.68Zm0 0"/>
    </clipPath>
    <clipPath id="m">
      <path d="M227.5 219.566h137.945v20.282H227.5Zm0 0"/>
    </clipPath>
    <clipPath id="n">
      <path d="M121.621 113.68h42.652v291.222h-42.652Zm0 0"/>
    </clipPath>
    <clipPath id="o">
      <path d="M184.848 176.91H227.5v227.996h-42.652Zm0 0"/>
    </clipPath>
    <clipPath id="p">
      <path d="M47.465 404.906H422.84v57.227H47.465Zm0 0"/>
    </clipPath>
    <clipPath id="q">
      <path d="M121.691 113.676H350.56v42.652H121.69Zm0 0"/>
    </clipPath>
    <clipPath id="r">
      <path d="M308.781 113.68h42.653v103.382H308.78Zm0 0"/>
    </clipPath>
    <clipPath id="s">
      <path d="M184.852 176.902h166.585v42.653H184.852Zm0 0"/>
    </clipPath>
  </defs>
  <g clip-path="url(#a)">
    <path fill="#092b5a" d="M100.977 51.273v353.551H58.324V51.274Zm0 0"/>
  </g>
  <g clip-path="url(#b)">
    <path fill="#092b5a" d="M58.332 50.441h353.645v42.664H58.332Zm0 0"/>
  </g>
  <g clip-path="url(#c)">
    <path fill="#092b5a" d="M414.719 282.492H313.25V239.84h101.469Zm0 0"/>
  </g>
  <g clip-path="url(#d)">
    <path fill="#092b5a" d="M411.98 51.344v223.562h-42.707V51.344Zm0 0"/>
  </g>
  <g clip-path="url(#e)">
    <g clip-path="url(#f)">
      <path fill="#092b5a" d="m287.984 206.844 167.97 167.969-30.134 30.136-167.968-167.972Zm0 0"/>
    </g>
  </g>
  <g clip-path="url(#g)">
    <g clip-path="url(#h)">
      <path fill="#092b5a" d="m246.707 255.313 157.07 157.07-30.234 30.234-157.07-157.07Zm0 0"/>
    </g>
  </g>
  <g clip-path="url(#i)">
    <g clip-path="url(#j)">
      <path fill="#092b5a" d="m223.71 321.934 98.235 98.238-29.937 29.937-98.238-98.234Zm0 0"/>
    </g>
  </g>
  <g clip-path="url(#k)">
    <path fill="#fff" d="M227.508 219.855h20.379v185.079h-20.38Zm0 0"/>
  </g>
  <g clip-path="url(#l)">
    <path fill="#fff" d="M410.156 29.266h67.68v404.222h-67.68Zm0 0"/>
  </g>
  <g clip-path="url(#m)">
    <path fill="#fff" d="M365.445 219.566v20.282H227.512v-20.282Zm0 0"/>
  </g>
  <g clip-path="url(#n)">
    <path fill="#092b5a" d="M164.273 113.68v291.238h-42.652V113.68Zm0 0"/>
  </g>
  <g clip-path="url(#o)">
    <path fill="#092b5a" d="M227.5 176.91v227.926h-42.652V176.91Zm0 0"/>
  </g>
  <g clip-path="url(#p)">
    <path fill="#fff" d="M422.84 404.906v57.227H47.496v-57.227Zm0 0"/>
  </g>
  <g clip-path="url(#q)">
    <path fill="#092b5a" d="M350.559 156.328H121.633v-42.652h228.926Zm0 0"/>
  </g>
  <g clip-path="url(#r)">
    <path fill="#092b5a" d="M351.434 113.68v103.465H308.78V113.68Zm0 0"/>
  </g>
  <g clip-path="url(#s)">
    <path fill="#092b5a" d="M351.438 219.555H184.823v-42.653h166.613Zm0 0"/>
  </g>
  <path fill="#092b5a" d="M495.362 284.769h-.61c-1.73 0-3.133-.735-4.203-2.203-1.062-1.47-1.262-3.067-.594-4.797 3.196-8.54 6.797-18.817 10.797-30.828a2351.843 2351.843 0 0 0 12.016-37.032c.27-1.07.07-2.008-.594-2.812-.531-.79-1.336-1.125-2.406-1-16.543 1.875-32.024-1.39-46.438-9.797-6.543-3.875-12.015-8.781-16.422-14.719-4.398-5.937-7.562-12.508-9.5-19.719-1.937-7.207-2.437-14.546-1.5-22.015 1.333-12.008 5.833-23.485 13.5-34.422 7.676-10.945 18.02-20.89 31.032-29.828 13.02-8.946 28.27-16.422 45.75-22.422 15.207-5.207 30.687-8.078 46.437-8.61 15.75-.53 30.828 1.204 45.235 5.204 14.414 4 27.226 10.14 38.437 18.422 10.008 6.804 17.817 15.609 23.422 26.421 5.602 10.805 8.27 22.211 8 34.22-.668 14.417-3.672 27.796-9.016 40.14-5.336 12.344-12.406 23.719-21.218 34.125-8.805 10.406-18.743 19.781-29.813 28.125a257.28 257.28 0 0 1-34.828 22.125c-12.148 6.406-24.195 11.844-36.14 16.312-11.938 4.469-23.215 7.977-33.829 10.516-10.605 2.531-19.777 4.062-27.515 4.594Zm29.015-77.063a2269.825 2269.825 0 0 1-10.203 32.235c-3.469 10.667-6.742 20.34-9.812 29.015-.399.938-.262 1.871.406 2.797.8.805 1.734 1.074 2.797.813 9.343-1.602 19.922-4.305 31.734-8.11 11.813-3.8 23.988-8.672 36.531-14.61 12.54-5.945 24.68-12.921 36.422-20.921 11.75-8.008 22.426-17.082 32.031-27.219 9.614-10.144 17.352-21.32 23.22-33.531 5.874-12.219 9.077-25.461 9.609-39.734.132-10.415-2.2-20.192-7-29.329-4.805-9.144-11.543-16.648-20.22-22.515-10.148-7.614-21.89-13.254-35.234-16.922-13.343-3.664-27.324-5.234-41.937-4.703-14.605.531-28.98 3.265-43.125 8.203-16.156 5.48-30.273 12.258-42.344 20.328-12.074 8.074-21.617 17.016-28.625 26.828-7 9.805-11.105 20.043-12.312 30.719-1.2 9.21.234 18.016 4.297 26.422 4.07 8.406 10.113 15.011 18.125 19.812 14.007 8.012 28.89 10.684 44.64 8.016 2.801-.54 4.602-2.145 5.406-4.813a1969.803 1969.803 0 0 0 8.907-29.015c2.738-9.207 5.11-17.149 7.11-23.828.257-1.196-.013-2.196-.813-3-.793-.801-1.727-1.004-2.797-.61-10.543 2.938-20.352 1.477-29.422-4.39-1.2-.801-1.969-1.899-2.313-3.297-.336-1.406-.101-2.711.703-3.922.665-1.195 1.696-1.961 3.094-2.297 1.406-.332 2.781-.164 4.125.5 5.469 3.469 11.438 4.773 17.906 3.906 6.47-.863 11.907-3.703 16.313-8.515 1.875-2 4.008-2.332 6.406-1 2.406 1.336 3.207 3.34 2.406 6.015 0 .262-.87 3.36-2.609 9.297a3530.008 3530.008 0 0 1-7 23.625 4989.04 4989.04 0 0 1-9.812 32.328c-.262 1.2.007 2.2.812 3 .79.805 1.79 1.07 3 .797a158.482 158.482 0 0 0 34.625-17.406c1.602-1.07 3.336-1.207 5.203-.406 1.864.937 2.864 2.476 3 4.609 0 2-.867 3.54-2.594 4.61-13.886 9.335-28.902 16.34-45.046 21.015-2.805.668-4.672 2.402-5.61 5.203Zm281.454 25.219c1.062.937 1.594 2.14 1.594 3.61 0 1.468-.469 2.734-1.407 3.796-.53.399-2.57 2.266-6.109 5.61-3.531 3.335-8.2 7.304-14 11.906-5.805 4.605-12.445 9.18-19.922 13.719-7.469 4.53-15.445 8.304-23.922 11.312-8.468 3-16.976 4.5-25.515 4.5-12.282.125-23.293-3.477-33.032-10.812-4-2.938-6.734-6.407-8.203-10.407a31.558 31.558 0 0 1-1.906-12.422c.2-4.27.836-8.27 1.906-12 1.063-3.738 2.094-6.804 3.094-9.203 1-2.406 1.567-3.742 1.703-4.015.801-1.196 1.867-1.993 3.203-2.391 1.332-.406 2.602-.273 3.813.39 1.332.669 2.226 1.669 2.687 3 .47 1.337.368 2.606-.297 3.813 0 .125-.402 1.059-1.203 2.797-.793 1.742-1.625 4.012-2.5 6.813-.867 2.804-1.464 5.773-1.797 8.906-.335 3.136-.101 6.172.704 9.11.8 2.929 2.468 5.327 5 7.202 6.132 4.532 12.64 7.266 19.515 8.203 6.875.938 13.781.575 20.719-1.093 6.937-1.676 13.738-4.145 20.406-7.407 6.676-3.27 12.883-6.875 18.625-10.812 5.739-3.938 10.813-7.707 15.219-11.313 4.406-3.601 7.844-6.601 10.312-9 2.47-2.406 3.77-3.675 3.907-3.812 1.062-1.063 2.289-1.594 3.687-1.594 1.406 0 2.645.531 3.719 1.594Zm-127.922-15.813c-2.664 0-4.332-1.332-5-4-.664-2.664.203-4.671 2.61-6.015 3.726-1.864 7.062-4.332 10-7.406 1.07-1.063 2.304-1.594 3.703-1.594 1.406 0 2.64.469 3.703 1.406 1.07 1.063 1.64 2.297 1.703 3.703.062 1.399-.438 2.633-1.5 3.703-3.742 3.867-7.945 7-12.61 9.407a4.64 4.64 0 0 1-2.609.796Zm0 0"/>
  <path fill="#092b5a" d="M976.376 236.128c.925 1.063 1.39 2.328 1.39 3.797 0 1.469-.465 2.742-1.39 3.812-4.543 4.532-10.086 9-16.625 13.407-6.543 4.406-13.715 8.382-21.516 11.922a141.892 141.892 0 0 1-24.125 8.406c-8.273 2.062-16.414 2.96-24.422 2.687-12.406.274-23.414-3.46-33.015-11.203-.805-.937-1.872-1.336-3.204-1.203-1.21 0-2.214.469-3.015 1.406a65.544 65.544 0 0 1-15 14.016c-3.606 2.398-7.61 3.664-12.016 3.797-3.336 0-6.469-.93-9.406-2.797a42.61 42.61 0 0 1-.61-.61c-3.335-3.062-5.937-6.726-7.812-11a61.297 61.297 0 0 1-4.094-13.312c-.867-4.602-1.367-8.906-1.5-12.906-.136-4.008-.136-7.348 0-10.016.133-2.664.203-4.133.203-4.406.133-1.469.766-2.633 1.891-3.5 1.133-.863 2.375-1.234 3.719-1.11 1.457.137 2.656.774 3.594 1.907.937 1.136 1.335 2.37 1.203 3.703-.274 2.137-.375 5.074-.313 8.812.07 3.73.375 7.73.906 12 .54 4.274 1.508 8.344 2.907 12.22 1.406 3.866 3.375 7.07 5.906 9.609 2.406 1.199 4.941 1.132 7.61-.204 2.663-1.332 5.066-2.937 7.202-4.812a65.38 65.38 0 0 0 11.407-13.61 2.57 2.57 0 0 0 0-2 45.709 45.709 0 0 1-4.407-15.609c-.53-5.469.407-9.875 2.813-13.219 1.726-2.53 4.062-4.129 7-4.796 2.937-.665 5.738-.266 8.406 1.203 4.133 1.73 6.203 4.797 6.203 9.203-.261 8.273-2.527 16.011-6.797 23.219a4.927 4.927 0 0 0 0 2c.395.273.727.605 1 1 8.133 8.28 17.942 12.152 29.422 11.609 6.938.137 14.14-.695 21.61-2.5a120.55 120.55 0 0 0 21.922-7.594c7.144-3.27 13.785-6.906 19.921-10.906 6.145-4.008 11.286-8.149 15.422-12.422 1.063-1.062 2.328-1.594 3.797-1.594 1.469 0 2.738.532 3.813 1.594Zm-122.72 6c1.47-3.195 2.142-6.531 2.017-10-.274-.531-.672-.797-1.204-.797-.543 0-.945.2-1.203.594-1.336 3.336-1.468 6.734-.406 10.203.133.137.3.203.5.203.195 0 .297-.066.297-.203Zm0 0"/>
  <path fill="#092b5a" d="M1096.877 232.925c1.063.937 1.594 2.14 1.594 3.61 0 1.468-.469 2.734-1.406 3.796-.531.399-2.57 2.266-6.11 5.61-3.53 3.335-8.199 7.304-14 11.906-5.804 4.605-12.445 9.18-19.921 13.719-7.47 4.53-15.446 8.304-23.922 11.312-8.469 3-16.977 4.5-25.516 4.5-12.281.125-23.293-3.477-33.031-10.812-4-2.938-6.734-6.407-8.203-10.407a31.558 31.558 0 0 1-1.906-12.422c.199-4.27.835-8.27 1.906-12 1.062-3.738 2.094-6.804 3.094-9.203 1-2.406 1.566-3.742 1.703-4.015.8-1.196 1.867-1.993 3.203-2.391 1.332-.406 2.601-.273 3.812.39 1.332.669 2.227 1.669 2.688 3 .469 1.337.367 2.606-.297 3.813 0 .125-.402 1.059-1.203 2.797-.793 1.742-1.625 4.012-2.5 6.813-.867 2.804-1.465 5.773-1.797 8.906-.336 3.136-.102 6.172.703 9.11.8 2.929 2.469 5.327 5 7.202 6.133 4.532 12.64 7.266 19.516 8.203 6.875.938 13.78.575 20.718-1.093 6.938-1.676 13.739-4.145 20.407-7.407 6.675-3.27 12.882-6.875 18.625-10.812 5.738-3.938 10.812-7.707 15.218-11.313 4.407-3.601 7.844-6.601 10.313-9 2.469-2.406 3.77-3.675 3.906-3.812 1.063-1.063 2.29-1.594 3.688-1.594 1.406 0 2.644.531 3.718 1.594Zm-127.921-15.813c-2.665 0-4.333-1.332-5-4-.665-2.664.203-4.671 2.609-6.015 3.726-1.864 7.062-4.332 10-7.406 1.07-1.063 2.305-1.594 3.703-1.594 1.406 0 2.64.469 3.703 1.406 1.07 1.063 1.64 2.297 1.703 3.703.063 1.399-.437 2.633-1.5 3.703-3.742 3.867-7.945 7-12.61 9.407a4.64 4.64 0 0 1-2.608.796Zm0 0"/>
  <path fill="#092b5a" d="M1265.016 237.128c1.062.938 1.625 2.14 1.687 3.61.07 1.468-.422 2.734-1.484 3.796-.273.407-1.742 1.914-4.406 4.516-2.668 2.594-6.274 5.73-10.813 9.406-4.543 3.668-9.82 7.336-15.828 11-6 3.668-12.469 6.774-19.406 9.313a74.3 74.3 0 0 1-21.516 4.406c-7.406.398-14.844-.942-22.312-4.016-10.418-5.195-18.492-12.867-24.22-23.015-.804-1.063-1.937-2.727-3.405-5-1.47-2.27-3.477-3.336-6.016-3.203-1.2 0-2.965.37-5.297 1.109-2.336.73-5.34 2.2-9.015 4.406-3.668 2.2-8.04 5.633-13.11 10.297-5.074 4.668-11.012 10.938-17.812 18.813-1.73 2-3.864 2.402-6.407 1.203-2.394-1.196-3.257-3.13-2.593-5.797l10-44.047c.27-1.332 1.035-2.399 2.297-3.203 1.27-.801 2.57-1 3.906-.594 1.469.262 2.566 1.027 3.297 2.297.738 1.273.976 2.574.718 3.906l-4.609 19.813c-.137.668.129 1.203.797 1.609.664.262 1.266.125 1.797-.406 14.812-14.008 27.289-20.68 37.437-20.016 4.27.262 7.875 1.996 10.813 5.203a48.558 48.558 0 0 1 6 7.813c4.539 8.273 10.945 14.61 19.219 19.015 6.406 2.668 12.875 3.735 19.406 3.204a67.123 67.123 0 0 0 19.015-4.407c6.145-2.406 11.883-5.304 17.22-8.703 5.343-3.406 10.046-6.773 14.109-10.11 4.07-3.343 7.242-6.144 9.515-8.405l3.61-3.61c.925-1.07 2.125-1.61 3.593-1.61 1.47 0 2.739.47 3.813 1.407Zm0 0"/>
  <path fill="#092b5a" d="M1402.929 230.128c1.07 1.063 1.61 2.328 1.61 3.797 0 1.469-.54 2.672-1.61 3.61-8.543 8.542-17.621 15.312-27.235 20.312-9.605 5-19.21 8.57-28.812 10.703-9.606 2.137-18.715 3.105-27.328 2.906-8.606-.195-16.11-1.226-22.516-3.094-.937-.27-1.672.063-2.203 1-1.73 4-4.367 7.204-7.906 9.61-3.531 2.398-7.5 3.664-11.906 3.797-4.407 0-8.48-1.067-12.22-3.203-5.062-2.407-8.66-6.141-10.796-11.204-2.133-5.07-2.336-10.28-.61-15.625 1.2-4.664 3.266-9.097 6.204-13.296 2.937-4.208 6.273-7.645 10.015-10.313 3.739-2.676 7.274-4.016 10.61-4.016h.203c1.469 0 2.703.54 3.703 1.61 1 1.062 1.5 2.328 1.5 3.797 0 1.336-.54 2.507-1.61 3.515-1.062 1-2.328 1.5-3.796 1.5-1.211 0-2.98.934-5.313 2.797-2.336 1.867-4.605 4.305-6.812 7.313-2.2 3-3.762 6.234-4.688 9.703-1.074 2.937-1.012 5.844.188 8.719 1.207 2.867 3.21 4.898 6.015 6.093 2.395 1.867 5.063 2.633 8 2.297 2.938-.332 5.336-1.633 7.203-3.906.664-.79 1.399-1.82 2.204-3.094.8-1.27.601-2.305-.594-3.11-3.742-2.394-6.074-5.796-7-10.202-.938-4.407-.211-8.477 2.187-12.22 3.207-5.468 6.145-8.534 8.813-9.202 2.664-.664 4.937-.461 6.812.61 2.664 1.46 4.332 4.359 5 8.702.664 4.336.598 8.969-.203 13.907-.262 1.199.004 2.367.797 3.5.8 1.136 1.805 1.84 3.016 2.109 11.207 1.867 22.316 1.933 33.328.203a106.44 106.44 0 0 0 31.422-10.11c9.937-5.007 18.91-11.515 26.922-19.515.937-1.07 2.14-1.61 3.609-1.61 1.469 0 2.734.54 3.797 1.61Zm-113.297 22.61c.531-3.196.664-6.462.406-9.797a3.55 3.55 0 0 1-.61 1.093c-.26.336-.527.703-.796 1.11-.805 1.199-1.137 2.53-1 4 .133 1.468.8 2.668 2 3.593ZM921.103 405.367h-16.062v-1.343c1.718 0 3.453-.614 5.203-1.844 1.75-1.238 3-2.785 3.75-4.64l22.437-53.735-2.875-7c-.824-2.05-2.093-3.422-3.812-4.11-1.719-.687-3.606-1.03-5.656-1.03v-1.344h18l27.078 64.656c1.437 3.355 3.031 5.703 4.781 7.047 1.75 1.336 3.894 2 6.437 2v1.343h-28.921v-1.343h2.78c2.677 0 4.204-.875 4.579-2.625s.047-3.86-.984-6.328l-5.86-14.313h-29.64l-6.797 16.375c-.899 2.2-.73 3.899.5 5.094 1.238 1.199 2.925 1.797 5.062 1.797Zm16.047-60.015-14.203 34.078h28.406Zm47.881 60.015v-1.343c2.469 0 4.266-.32 5.39-.969 1.134-.656 1.704-2.18 1.704-4.578v-61.25c0-2.406-.57-3.93-1.703-4.578-1.125-.657-2.922-.985-5.39-.985v-1.343h33.546c2.75 0 5.836.226 9.266.671 3.437.45 6.882 1.344 10.343 2.688 3.47 1.336 6.676 3.34 9.625 6.016 2.957 2.68 5.328 6.214 7.11 10.609 1.781 4.387 2.672 9.906 2.672 16.562 0 5.012-.704 9.836-2.11 14.47a32.43 32.43 0 0 1-6.953 12.343c-3.219 3.605-7.508 6.453-12.86 8.547-5.355 2.094-11.945 3.14-19.765 3.14Zm29.953-1.343c6.446 0 11.727-1.094 15.844-3.282 4.125-2.195 7.316-5.128 9.578-8.796 2.258-3.676 3.816-7.692 4.672-12.047a67.004 67.004 0 0 0 1.297-13.032c0-7.82-1.29-14.335-3.86-19.546-2.574-5.22-6.09-9.13-10.546-11.735-4.461-2.613-9.54-3.922-15.235-3.922-4.804 0-8.219.328-10.25.985-2.023.648-3.031 2.136-3.031 4.468v61.36c0 2.336.875 3.844 2.625 4.531 1.75.68 4.719 1.016 8.906 1.016Zm50.858 1.343v-1.343c2.47 0 4.266-.32 5.39-.969 1.134-.656 1.704-2.18 1.704-4.578v-61.25c0-2.406-.57-3.93-1.703-4.578-1.125-.657-2.922-.985-5.39-.985v-1.343h33.546c2.75 0 5.836.226 9.266.671 3.437.45 6.883 1.344 10.344 2.688 3.468 1.336 6.675 3.34 9.625 6.016 2.957 2.68 5.328 6.214 7.109 10.609 1.781 4.387 2.672 9.906 2.672 16.562 0 5.012-.703 9.836-2.11 14.47a32.43 32.43 0 0 1-6.953 12.343c-3.218 3.605-7.508 6.453-12.86 8.547-5.355 2.094-11.944 3.14-19.765 3.14Zm29.953-1.343c6.446 0 11.727-1.094 15.844-3.282 4.125-2.195 7.317-5.128 9.578-8.796 2.258-3.676 3.817-7.692 4.672-12.047a67.004 67.004 0 0 0 1.297-13.032c0-7.82-1.289-14.335-3.86-19.546-2.574-5.22-6.09-9.13-10.546-11.735-4.461-2.613-9.54-3.922-15.235-3.922-4.804 0-8.218.328-10.25.985-2.023.648-3.03 2.136-3.03 4.468v61.36c0 2.336.874 3.844 2.624 4.531 1.75.68 4.719 1.016 8.906 1.016Zm49.312-73.704h28.515v1.235c-3.437 0-5.758.312-6.953.937-1.2.618-1.25 2.09-.156 4.422l26.25 54.25 18.734-53.422c.758-2.195.758-3.757 0-4.687-.75-.926-2.742-1.39-5.968-1.39v-1.344h16.78v1.343c-2.886 0-4.98.414-6.28 1.235-1.305.824-2.368 2.468-3.188 4.937l-23.687 67.531-1.532 1.235-33.25-68.86c-1.105-2.406-2.226-4.02-3.36-4.843-1.124-.82-3.093-1.235-5.905-1.235Zm88.937 68.157v-61.25c0-2.406-.57-3.93-1.703-4.578-1.125-.657-2.922-.985-5.391-.985v-1.343h25.625v1.343c-2.469 0-4.289.328-5.453.985-1.168.648-1.75 2.172-1.75 4.578v61.25c0 2.398.582 3.922 1.75 4.578 1.164.648 2.945.969 5.344.969l.109 1.343h-25.625v-1.343c2.469 0 4.266-.32 5.39-.969 1.133-.656 1.704-2.18 1.704-4.578Zm62.794 8.125c-7.063 0-13.309-1.594-18.734-4.781-5.418-3.196-9.657-7.586-12.72-13.172-3.054-5.594-4.577-11.992-4.577-19.203 0-5.563.82-10.774 2.468-15.641 1.657-4.875 4.063-9.164 7.22-12.875 3.155-3.707 6.976-6.586 11.468-8.64 4.5-2.063 9.598-3.094 15.297-3.094 3.289 0 6.031.382 8.219 1.14 2.195.75 4.05 1.508 5.562 2.266 1.508.75 2.816 1.125 3.922 1.125.613 0 1.226-.223 1.844-.672.625-.445.937-1.36.937-2.734h1.328v25.843h-1.234c0-8.644-1.75-14.89-5.25-18.734-3.5-3.844-8.305-5.766-14.406-5.766-4.606 0-8.793 1.235-12.563 3.703-3.773 2.47-6.793 6.141-9.062 11.016-2.262 4.875-3.39 10.918-3.39 18.125 0 7.137 1.128 13.465 3.39 18.984 2.27 5.524 5.547 9.829 9.828 12.922 4.289 3.086 9.39 4.625 15.297 4.625 4.937 0 9-1.093 12.187-3.28 3.195-2.196 5.551-5.063 7.063-8.595 1.507-3.539 2.265-7.336 2.265-11.39h1.328c0 3.574-.53 7.078-1.593 10.515a27.436 27.436 0 0 1-5 9.313c-2.262 2.773-5.125 4.965-8.594 6.578-3.461 1.613-7.625 2.422-12.5 2.422Zm35.424-1.235v-1.343c2.258 0 3.973-.27 5.14-.813 1.165-.55 1.852-1.789 2.063-3.719l-.11-62.265c0-2.406-.57-3.93-1.702-4.578-1.125-.657-2.922-.985-5.391-.985v-1.343h53.219l5.453 16.265h-1.344c-1.23-3.906-2.637-6.937-4.219-9.094-1.574-2.164-3.578-3.66-6.015-4.484-2.438-.82-5.617-1.234-9.532-1.234-4.937 0-8.78.12-11.53.36-2.743.241-4.68.741-5.813 1.5-1.137.75-1.703 1.948-1.703 3.593v28.094h11.843c3.707-.063 6.399-.676 8.078-1.844 1.688-1.164 2.735-2.914 3.141-5.25.414-2.332.625-5.219.625-8.656h1.328v34.078h-1.328c0-3.5-.172-6.52-.516-9.063-.343-2.539-1.324-4.492-2.937-5.86-1.617-1.374-4.414-2.062-8.39-2.062h-11.844v31.813c0 2.336.992 3.844 2.984 4.531 2 .68 5.602 1.016 10.812 1.016 5.907 0 10.727-1.25 14.47-3.75 3.738-2.508 6.753-5.907 9.046-10.188 2.3-4.289 4.242-9.047 5.828-14.265h1.328l-7.297 29.546ZM296.314 510.292h-32.047v-53.938h32.047v5.157h-26.5v19.187h25.703v5.234h-25.703v19.204h26.5Zm38.944 0v-21.813c0-2.27-.5-4.226-1.5-5.875-1.063-1.582-2.781-2.375-5.156-2.375-2.387 0-4.32.45-5.797 1.344a10.604 10.604 0 0 0-3.563 3.5c-1.699 2.637-2.547 6.18-2.547 10.625v14.594h-5.547v-34.906h5.547v6.03c1.164-1.956 2.645-3.57 4.438-4.843 1.906-1.27 4.101-1.906 6.594-1.906 2.476 0 4.488.344 6.03 1.031 1.532.75 2.821 1.73 3.876 2.938 2.125 2.492 3.187 5.773 3.187 9.843v21.813Zm47.436-17.453c0-3.383-1.164-6.348-3.484-8.89-2.387-2.532-5.324-3.798-8.813-3.798-3.386 0-6.292 1.266-8.718 3.797-2.387 2.492-3.578 5.453-3.578 8.89 0 3.438 1.191 6.403 3.578 8.891 2.426 2.532 5.332 3.797 8.718 3.797 3.489 0 6.426-1.265 8.813-3.797 2.32-2.539 3.484-5.504 3.484-8.89Zm-24.75 22.218c.532 2.165 1.664 4.094 3.407 5.782 2.437 2.488 5.375 3.734 8.812 3.734 3.438 0 6.399-1.246 8.89-3.734 2.427-2.43 3.641-5.36 3.641-8.797v-7.625c-.261.375-.554.746-.875 1.11-3.336 3.71-7.406 5.562-12.218 5.562-4.868 0-8.934-1.852-12.204-5.563-3.23-3.594-4.843-7.82-4.843-12.687 0-4.864 1.613-9.094 4.843-12.688 3.27-3.707 7.336-5.562 12.204-5.562 4.656 0 8.726 1.855 12.218 5.562.32.367.614.735.875 1.11v-5.875h5.563v36.656c0 4.969-1.777 9.223-5.328 12.765-3.543 3.54-7.797 5.313-12.766 5.313s-9.226-1.773-12.766-5.313c-2.804-2.804-4.496-6.054-5.078-9.75Zm79.252-23.015v2.937h-30.704c.532 3.024 1.985 5.48 4.36 7.375 2.437 1.961 5.133 2.938 8.094 2.938 2.007 0 3.941-.473 5.796-1.422a12.745 12.745 0 0 0 4.516-3.813h6.344c-1.48 3.336-3.7 5.954-6.656 7.86-3.024 1.96-6.063 2.937-9.125 2.937-3.125 0-5.774-.48-7.938-1.437-2.219-.945-4.148-2.242-5.781-3.89-3.606-3.49-5.406-7.77-5.406-12.845 0-5.02 1.8-9.332 5.406-12.937 3.539-3.54 7.82-5.313 12.844-5.313 4.863 0 9.125 1.72 12.78 5.157 3.645 3.492 5.47 7.64 5.47 12.453Zm-5.875-1.813c-.637-2.968-2.118-5.43-4.438-7.39-2.336-1.895-4.98-2.844-7.937-2.844-4.543 0-8.11 2.039-10.704 6.11a12.72 12.72 0 0 0-1.671 4.124Zm42.042 20.063v-21.813c0-2.27-.5-4.226-1.5-5.875-1.063-1.582-2.781-2.375-5.156-2.375-2.387 0-4.32.45-5.797 1.344a10.604 10.604 0 0 0-3.563 3.5c-1.7 2.637-2.547 6.18-2.547 10.625v14.594h-5.547v-34.906h5.547v6.03c1.164-1.956 2.645-3.57 4.438-4.843 1.906-1.27 4.101-1.906 6.594-1.906 2.476 0 4.488.344 6.03 1.031 1.532.75 2.821 1.73 3.876 2.938 2.125 2.492 3.187 5.773 3.187 9.843v21.813Zm24.749 0h-5.547v-59.5h5.547v30.625c1.164-1.957 2.644-3.57 4.437-4.844 1.907-1.27 4.102-1.906 6.594-1.906 2.477 0 4.488.344 6.031 1.031 1.532.75 2.82 1.73 3.875 2.938 2.125 2.492 3.188 5.773 3.188 9.843v21.813h-5.563v-21.813c0-2.27-.5-4.226-1.5-5.875-1.062-1.582-2.78-2.375-5.156-2.375-2.387 0-4.32.371-5.797 1.11-1.48.793-2.668 1.875-3.562 3.25-1.7 2.543-2.547 6.246-2.547 11.11Zm65.53-17.453c0-3.383-1.168-6.348-3.5-8.89-2.375-2.532-5.309-3.798-8.797-3.798-3.492 0-6.402 1.266-8.734 3.797-2.375 2.543-3.563 5.508-3.563 8.89 0 3.387 1.188 6.352 3.563 8.891 2.332 2.532 5.242 3.797 8.734 3.797 3.488 0 6.422-1.265 8.797-3.797 2.332-2.539 3.5-5.504 3.5-8.89Zm5.547 17.453h-5.547v-5.953c-.324.43-.64.824-.953 1.187-3.336 3.711-7.406 5.563-12.219 5.563-4.812 0-8.86-1.852-12.14-5.563-3.23-3.594-4.844-7.82-4.844-12.687 0-4.864 1.613-9.094 4.844-12.688 3.28-3.707 7.328-5.562 12.14-5.562 4.813 0 8.883 1.855 12.219 5.562.312.367.629.762.953 1.188v-5.953h5.547Zm32.76-27.688c-1.274-1.164-2.649-1.75-4.125-1.75-1.43 0-2.641.403-3.641 1.203a10.897 10.897 0 0 0-2.625 3.016c-1.324 2.324-1.984 4.914-1.984 7.766v17.453h-5.547v-34.906h5.547v7.218l.234-1.422c1.852-4.343 4.738-6.515 8.656-6.515 1.219 0 2.38.242 3.485.719Zm15.308-19.281c.688.688 1.031 1.512 1.031 2.469 0 1-.343 1.844-1.03 2.531-.688.688-1.509 1.031-2.454 1.031-1.012 0-1.86-.343-2.547-1.03-.687-.688-1.031-1.532-1.031-2.532 0-.957.344-1.781 1.031-2.469.688-.687 1.535-1.031 2.547-1.031.945 0 1.766.344 2.453 1.031Zm.328 46.969h-5.562v-34.906h5.562Zm42.913-17.453c0-3.383-1.168-6.348-3.5-8.89-2.375-2.532-5.308-3.798-8.796-3.798-3.493 0-6.403 1.266-8.735 3.797-2.375 2.543-3.562 5.508-3.562 8.89 0 3.387 1.187 6.352 3.562 8.891 2.332 2.532 5.242 3.797 8.735 3.797 3.488 0 6.421-1.265 8.796-3.797 2.332-2.539 3.5-5.504 3.5-8.89Zm5.547 17.453h-5.547v-5.953c-.324.43-.64.824-.953 1.187-3.336 3.711-7.406 5.563-12.218 5.563-4.813 0-8.86-1.852-12.141-5.563-3.23-3.594-4.844-7.82-4.844-12.687 0-4.864 1.613-9.094 4.844-12.688 3.281-3.707 7.328-5.562 12.14-5.562 4.813 0 8.883 1.855 12.22 5.562.312.367.628.762.952 1.188v-5.953h5.547Zm54.097-27.375c-3.062 2.23-5.18 3.922-6.343 5.078-2.594 2.594-3.891 5-3.891 7.219 0 2.648.977 5.027 2.938 7.14 1.906 2.118 4.207 3.172 6.906 3.172 2.906 0 6.129-1.66 9.672-4.984.906-.852 1.754-1.676 2.547-2.469Zm-.468-8.875a72.181 72.181 0 0 1 1.828 2.062c.789-.582 1.633-1.191 2.531-1.828a17.016 17.016 0 0 0 2.375-1.984c1.695-1.688 2.547-3.508 2.547-5.469 0-1.957-.664-3.492-1.985-4.61-1.324-1.1-2.777-1.706-4.359-1.812-1.648-.062-3.133.438-4.453 1.5-1.324 1.063-1.984 2.758-1.984 5.078 0 2.325 1.164 4.68 3.5 7.063Zm26.812 15.234c-.793 1.106-3.172 4.063-7.14 8.875l9.28 12.14-7.296.157-5.875-7.687c-2.649 2.648-4.762 4.468-6.344 5.468-3.23 2.012-6.086 3.016-8.562 3.016-2.493 0-4.688-.398-6.594-1.188-1.961-.738-3.625-1.82-5-3.25-3.012-2.968-4.516-6.695-4.516-11.187 0-5.188 2.563-9.68 7.688-13.484a385.512 385.512 0 0 0 4.61-3.344c-3.813-4.383-5.72-8.27-5.72-11.656 0-3.332 1.055-6.11 3.172-8.329 2.125-2.164 4.93-3.25 8.422-3.25 3.32 0 6.07 1.032 8.25 3.094 2.164 2.117 3.25 4.813 3.25 8.094 0 3.492-2.062 6.93-6.187 10.312-1.118.95-2.172 1.82-3.172 2.61l11.094 14.203a160.58 160.58 0 0 0 3.093-3.813l3.016-3.796Zm49.412 1.188h19.594l-9.75-24.828Zm33.484 19.828h-6.031l-5.797-14.672h-23.719l-5.781 14.672h-6.031l23.719-57.672Zm27.598-27.688c-1.274-1.164-2.649-1.75-4.126-1.75-1.43 0-2.64.403-3.64 1.203a10.897 10.897 0 0 0-2.625 3.016c-1.324 2.324-1.985 4.914-1.985 7.766v17.453h-5.546v-34.906h5.546v7.218l.235-1.422c1.851-4.343 4.738-6.515 8.656-6.515 1.219 0 2.379.242 3.484.719Zm37.448 10.235c0-3.383-1.167-6.348-3.5-8.89-2.375-2.532-5.308-3.798-8.796-3.798-3.493 0-6.403 1.266-8.735 3.797-2.375 2.543-3.562 5.508-3.562 8.89 0 3.387 1.187 6.352 3.562 8.891 2.332 2.532 5.242 3.797 8.735 3.797 3.488 0 6.421-1.265 8.796-3.797 2.333-2.539 3.5-5.504 3.5-8.89Zm5.547 37.281h-5.547v-25.781c-.324.43-.64.824-.953 1.187-3.336 3.711-7.406 5.563-12.218 5.563-4.813 0-8.86-1.852-12.141-5.563-3.23-3.594-4.844-7.82-4.844-12.687 0-4.864 1.614-9.094 4.844-12.688 3.281-3.707 7.328-5.562 12.14-5.562 4.813 0 8.883 1.855 12.22 5.562.312.367.628.762.952 1.188v-5.953h5.547Zm38.947-25.781c-2.593 4.449-6.48 6.672-11.656 6.672-3.918 0-6.984-1.297-9.203-3.891-2.168-2.594-3.25-5.898-3.25-9.922v-21.812h5.547v21.812c0 2.281.531 4.215 1.594 5.797 1 1.637 2.691 2.453 5.078 2.453 4.332 0 7.398-1.375 9.203-4.125 1.79-2.695 2.687-6.476 2.687-11.344v-14.593h5.563v34.906h-5.563Zm24.828-41.016c.687.688 1.03 1.512 1.03 2.469 0 1-.343 1.844-1.03 2.531-.688.688-1.508 1.031-2.453 1.031-1.012 0-1.86-.343-2.547-1.03-.688-.688-1.032-1.532-1.032-2.532 0-.957.344-1.781 1.032-2.469.687-.687 1.535-1.031 2.547-1.031.945 0 1.765.344 2.453 1.031Zm.328 46.969h-5.563v-34.906h5.563Zm10.788-29.75v-5.156h8.719v-13.563h5.547v13.563h8.656v5.156h-8.656v29.75h-5.547v-29.75Zm67.502 11.5v2.937h-30.703c.531 3.024 1.984 5.48 4.36 7.375 2.437 1.961 5.132 2.938 8.093 2.938 2.008 0 3.941-.473 5.797-1.422a12.745 12.745 0 0 0 4.515-3.813h6.344c-1.48 3.336-3.699 5.954-6.656 7.86-3.023 1.96-6.063 2.937-9.125 2.937-3.125 0-5.773-.48-7.938-1.437-2.218-.945-4.148-2.242-5.78-3.89-3.606-3.49-5.407-7.77-5.407-12.845 0-5.02 1.8-9.332 5.406-12.937 3.54-3.54 7.82-5.313 12.844-5.313 4.863 0 9.125 1.72 12.781 5.157 3.645 3.492 5.469 7.64 5.469 12.453Zm-5.875-1.813c-.637-2.968-2.117-5.43-4.438-7.39-2.335-1.895-4.98-2.844-7.937-2.844-4.543 0-8.11 2.039-10.703 6.11a12.72 12.72 0 0 0-1.672 4.124Zm13.573-9.687v-5.156h8.72v-13.563h5.546v13.563h8.656v5.156h-8.656v29.75h-5.547v-29.75Zm57.502 23.797c-2.593 4.449-6.48 6.672-11.656 6.672-3.918 0-6.984-1.297-9.203-3.891-2.168-2.594-3.25-5.898-3.25-9.922v-21.812h5.547v21.812c0 2.281.531 4.215 1.594 5.797 1 1.637 2.69 2.453 5.078 2.453 4.332 0 7.398-1.375 9.203-4.125 1.789-2.695 2.687-6.476 2.687-11.344v-14.593h5.563v34.906h-5.563Zm37.124-21.735c-1.273-1.164-2.648-1.75-4.125-1.75-1.43 0-2.64.403-3.64 1.203a10.897 10.897 0 0 0-2.625 3.016c-1.325 2.324-1.985 4.914-1.985 7.766v17.453h-5.547v-34.906h5.547v7.218l.235-1.422c1.851-4.343 4.738-6.515 8.656-6.515 1.219 0 2.379.242 3.484.719Zm37.449 10.235c0-3.383-1.168-6.348-3.5-8.89-2.375-2.532-5.308-3.798-8.797-3.798-3.492 0-6.402 1.266-8.734 3.797-2.375 2.543-3.562 5.508-3.562 8.89 0 3.387 1.187 6.352 3.562 8.891 2.332 2.532 5.242 3.797 8.734 3.797 3.489 0 6.422-1.265 8.797-3.797 2.332-2.539 3.5-5.504 3.5-8.89Zm5.547 17.453h-5.547v-5.953c-.324.43-.64.824-.953 1.187-3.336 3.711-7.406 5.563-12.219 5.563-4.812 0-8.859-1.852-12.14-5.563-3.23-3.594-4.844-7.82-4.844-12.687 0-4.864 1.613-9.094 4.844-12.688 3.281-3.707 7.328-5.562 12.14-5.562 4.813 0 8.883 1.855 12.22 5.562.312.367.628.762.952 1.188v-5.953h5.547Zm0 0"/>
  <path fill="none" stroke="#b45e1c" stroke-width="3" d="M47.477 440.137h1368.48"/>
</svg>
