<svg xmlns="http://www.w3.org/2000/svg" xmlns:xlink="http://www.w3.org/1999/xlink" width="1080" zoomAndPan="magnify" viewBox="0 0 810 809.999993" height="1080" preserveAspectRatio="xMidYMid meet" version="1.0"><defs><clipPath id="b1def481a9"><path d="M 57 320 L 753 320 L 753 803.253906 L 57 803.253906 Z M 57 320 " clip-rule="nonzero"/></clipPath><clipPath id="6b9a9ebc44"><path d="M 56.707031 161 L 753 161 L 753 652 L 56.707031 652 Z M 56.707031 161 " clip-rule="nonzero"/></clipPath><clipPath id="40ddd7f4cc"><path d="M 57 6.753906 L 753.457031 6.753906 L 753.457031 497 L 57 497 Z M 57 6.753906 " clip-rule="nonzero"/></clipPath></defs><g clip-path="url(#b1def481a9)"><path fill="#f1ae2b" d="M 57.539062 802.703125 L 752.183594 803.253906 L 405.550781 320.886719 Z M 57.539062 802.703125 " fill-opacity="1" fill-rule="nonzero"/></g><g clip-path="url(#6b9a9ebc44)"><path fill="#f1ae2b" d="M 67.726562 640.539062 L 405.550781 172.765625 L 741.71875 640.816406 L 67.726562 640.539062 M 56.714844 640.539062 C 56.714844 642.191406 56.992188 643.84375 57.816406 645.496094 C 59.742188 649.074219 63.597656 651.550781 67.726562 651.550781 L 741.71875 651.828125 C 745.851562 651.828125 749.703125 649.625 751.632812 645.769531 C 752.457031 644.117188 752.734375 642.464844 752.734375 640.816406 C 752.734375 638.613281 751.90625 636.410156 750.53125 634.480469 L 414.359375 166.433594 C 412.15625 163.679688 408.855469 161.75 405.550781 161.75 C 401.972656 161.75 398.667969 163.402344 396.738281 166.433594 L 58.917969 633.929688 C 57.539062 635.859375 56.714844 638.0625 56.714844 640.539062 Z M 56.714844 640.539062 " fill-opacity="1" fill-rule="nonzero"/></g><g clip-path="url(#40ddd7f4cc)"><path fill="#f1ae2b" d="M 68.277344 485.257812 L 406.101562 17.757812 L 742.269531 485.808594 L 68.277344 485.257812 M 57.265625 485.257812 C 57.265625 486.910156 57.539062 488.558594 58.367188 490.210938 C 60.292969 493.792969 64.148438 496.269531 68.277344 496.269531 L 742.269531 496.820312 C 746.402344 496.820312 750.253906 494.617188 752.183594 490.761719 C 753.007812 489.109375 753.285156 487.460938 753.285156 485.808594 C 753.285156 483.605469 752.457031 481.402344 751.082031 479.476562 L 414.910156 11.425781 C 412.707031 8.671875 409.40625 6.742188 406.101562 6.742188 C 402.523438 6.742188 399.21875 8.394531 397.289062 11.425781 L 59.46875 478.648438 C 58.089844 480.574219 57.265625 483.054688 57.265625 485.257812 Z M 57.265625 485.257812 " fill-opacity="1" fill-rule="nonzero"/></g></svg>