<svg xmlns="http://www.w3.org/2000/svg" width="1080" height="1080" version="1.0" viewBox="0 0 810 810">
  <defs>
    <clipPath id="a">
      <path d="M28 18.64h754V791H28Zm0 0"/>
    </clipPath>
  </defs>
  <g clip-path="url(#a)">
    <path fill="#f1ae2b" d="m779.945 559.637-66.453-142.211v-231.13c0-1.816-.347-3.558-1.039-5.233a13.552 13.552 0 0 0-2.965-4.438L588.887 55.988a13.573 13.573 0 0 0-4.438-2.965 13.518 13.518 0 0 0-5.234-1.043h-74.887l-18.55-11.199a13.564 13.564 0 0 0-5.02-1.812 13.55 13.55 0 0 0-5.332.238l-17.535 4.316-66.274-24.054a13.566 13.566 0 0 0-5.277-.805c-1.809.078-3.54.504-5.18 1.27l-68.664 32.078H194.18c-.899 0-1.785.09-2.668.265-.88.172-1.735.434-2.567.778a13.86 13.86 0 0 0-2.363 1.261 13.747 13.747 0 0 0-3.773 3.774 13.643 13.643 0 0 0-2.305 7.601v46.063l-74.3 18.293a13.772 13.772 0 0 0-4.837 2.258 13.553 13.553 0 0 0-1.992 1.793 13.642 13.642 0 0 0-3.422 7.16 13.539 13.539 0 0 0 .242 5.332l1.434 5.808-60.977 28.52a13.45 13.45 0 0 0-2.308 1.367 13.579 13.579 0 0 0-3.606 3.938 13.6 13.6 0 0 0-1.156 2.418 13.56 13.56 0 0 0-.805 5.277 13.772 13.772 0 0 0 1.273 5.184l150.462 321.98v196.766a13.608 13.608 0 0 0 1.039 5.23c.344.828.765 1.617 1.265 2.363a13.276 13.276 0 0 0 1.7 2.07 13.526 13.526 0 0 0 4.433 2.966 13.674 13.674 0 0 0 5.231 1.039h45.86l9.956 40.539c.215.87.512 1.715.89 2.527.384.813.837 1.582 1.368 2.305a13.642 13.642 0 0 0 11.633 5.559c.894-.04 1.781-.169 2.652-.384l32.219-7.917 3.969 8.492a13.77 13.77 0 0 0 1.359 2.308 13.84 13.84 0 0 0 1.789 2.004 13.75 13.75 0 0 0 4.563 2.778 13.662 13.662 0 0 0 10.465-.453l92.816-43.372 58.289-14.343H699.82a13.579 13.579 0 0 0 5.23-1.04 13.468 13.468 0 0 0 2.364-1.265 13.722 13.722 0 0 0 2.074-1.7 13.93 13.93 0 0 0 1.7-2.07 13.86 13.86 0 0 0 1.261-2.363c.344-.832.606-1.683.778-2.566.175-.88.265-1.77.265-2.668v-45.762l38.004-9.355a13.772 13.772 0 0 0 2.527-.891 13.567 13.567 0 0 0 2.305-1.367 13.386 13.386 0 0 0 1.996-1.793 13.6 13.6 0 0 0 3.422-7.16c.137-.887.184-1.782.145-2.676a13.879 13.879 0 0 0-.387-2.656l-13.875-56.438 25.726-12.016a13.878 13.878 0 0 0 2.313-1.363 13.69 13.69 0 0 0 5.445-8.95c.137-.886.188-1.78.149-2.679a13.905 13.905 0 0 0-.375-2.656 13.913 13.913 0 0 0-.89-2.531ZM592.887 98.699l73.918 73.918h-73.918ZM387.609 47.098l13.528 4.914h-24.07Zm-207.097 92.816V375.04l-54.54-221.703Zm-76.258 39.602 59.094 240.218L60.613 199.906Zm163.953 552h89.332l-84.234 20.75Zm-60.34-27.387V79.359H565.54v106.938a13.637 13.637 0 0 0 4.008 9.668c.633.633 1.324 1.2 2.07 1.7.746.5 1.535.917 2.367 1.26a13.654 13.654 0 0 0 5.23 1.04h106.93v504.238Zm505.625-60.215v-78.32l18.192 73.87Zm27.48-81.207-11.386-46.246 19.793 42.328ZM248.794 196.801c0-.895.09-1.785.262-2.668a13.714 13.714 0 0 1 2.043-4.926 13.747 13.747 0 0 1 3.773-3.773c.75-.5 1.535-.918 2.367-1.262a13.605 13.605 0 0 1 2.567-.777c.879-.176 1.77-.262 2.668-.262H378.61a13.738 13.738 0 0 1 5.133 1.137c.809.351 1.578.78 2.305 1.28a13.762 13.762 0 0 1 3.668 3.762 13.586 13.586 0 0 1 1.98 4.868 13.48 13.48 0 0 1 0 5.254 13.586 13.586 0 0 1-1.98 4.867 13.727 13.727 0 0 1-3.668 3.762 13.698 13.698 0 0 1-7.438 2.417H262.48a13.54 13.54 0 0 1-2.664-.261 13.938 13.938 0 0 1-2.562-.774 13.824 13.824 0 0 1-2.36-1.261 13.476 13.476 0 0 1-2.07-1.696 13.495 13.495 0 0 1-1.703-2.066 13.4 13.4 0 0 1-1.266-2.356 13.935 13.935 0 0 1-.785-2.558 13.85 13.85 0 0 1-.27-2.664Zm0 56.398c0-.898.09-1.785.262-2.668a13.793 13.793 0 0 1 2.043-4.93 13.52 13.52 0 0 1 1.703-2.07 13.276 13.276 0 0 1 2.07-1.699 13.594 13.594 0 0 1 4.934-2.04c.879-.175 1.77-.26 2.668-.26h209.75a13.618 13.618 0 0 1 5.242 1.042 13.75 13.75 0 0 1 2.367 1.262c.746.5 1.441 1.07 2.074 1.703a13.587 13.587 0 0 1 1.703 2.078 13.742 13.742 0 0 1 2.047 4.938c.176.879.262 1.77.262 2.668a13.589 13.589 0 0 1-1.043 5.242 13.503 13.503 0 0 1-1.266 2.367 13.37 13.37 0 0 1-1.703 2.074 13.33 13.33 0 0 1-2.074 1.703c-.746.5-1.535.922-2.367 1.266a13.618 13.618 0 0 1-5.242 1.043H262.48c-.898 0-1.789-.086-2.668-.262a13.605 13.605 0 0 1-4.933-2.043 13.733 13.733 0 0 1-3.774-3.773 13.86 13.86 0 0 1-1.261-2.363 13.493 13.493 0 0 1-.778-2.567 13.612 13.612 0 0 1-.265-2.668ZM645.2 328.953c0 .899-.086 1.785-.261 2.668a13.608 13.608 0 0 1-2.043 4.93c-.5.746-1.067 1.437-1.7 2.074-.636.633-1.328 1.2-2.074 1.7a13.609 13.609 0 0 1-7.598 2.304H262.48a13.647 13.647 0 0 1-7.609-2.309 13.515 13.515 0 0 1-2.074-1.703 13.37 13.37 0 0 1-1.703-2.074 13.742 13.742 0 0 1-2.047-4.938 13.589 13.589 0 0 1-.262-2.671 13.647 13.647 0 0 1 2.309-7.606c.5-.75 1.066-1.441 1.703-2.078a13.987 13.987 0 0 1 2.074-1.703c.746-.496 1.54-.918 2.367-1.266a13.73 13.73 0 0 1 5.242-1.039h369.051c.899 0 1.793.086 2.676.262.883.18 1.742.437 2.574.785.832.348 1.625.77 2.371 1.274.75.5 1.442 1.07 2.078 1.71a13.676 13.676 0 0 1 3.977 9.719Zm0 62.703a13.71 13.71 0 0 1-.246 2.68c-.172.883-.43 1.742-.77 2.578-.34.832-.761 1.625-1.257 2.379a13.827 13.827 0 0 1-3.774 3.797c-.75.5-1.539.926-2.37 1.27a13.69 13.69 0 0 1-5.25 1.05H262.48a13.7 13.7 0 0 1-2.671-.265 13.643 13.643 0 0 1-7.012-3.746 13.747 13.747 0 0 1-2.969-4.442 13.647 13.647 0 0 1-1.043-5.242 13.647 13.647 0 0 1 2.309-7.61 13.747 13.747 0 0 1 3.777-3.777 13.643 13.643 0 0 1 4.938-2.043 13.651 13.651 0 0 1 2.671-.265h369.051c.899 0 1.785.09 2.668.261a13.793 13.793 0 0 1 4.93 2.043 13.747 13.747 0 0 1 3.773 3.774 13.643 13.643 0 0 1 2.305 7.601Zm0 62.707a13.637 13.637 0 0 1-4.008 9.668 13.494 13.494 0 0 1-4.437 2.961 13.654 13.654 0 0 1-5.23 1.04H262.48a13.96 13.96 0 0 1-2.675-.259 13.73 13.73 0 0 1-4.942-2.043 13.773 13.773 0 0 1-3.785-3.777c-.5-.75-.922-1.539-1.27-2.371a13.73 13.73 0 0 1-.777-2.57 13.651 13.651 0 0 1 0-5.348 13.643 13.643 0 0 1 5.832-8.719 13.73 13.73 0 0 1 7.617-2.305h369.051a13.69 13.69 0 0 1 12.653 8.485 13.647 13.647 0 0 1 1.023 5.254Zm0 62.703a13.692 13.692 0 0 1-1.04 5.234 13.608 13.608 0 0 1-2.968 4.434 13.526 13.526 0 0 1-4.437 2.965 13.654 13.654 0 0 1-5.23 1.04H262.48c-.898 0-1.789-.09-2.671-.266a13.643 13.643 0 0 1-7.012-3.746 13.587 13.587 0 0 1-1.703-2.079 13.704 13.704 0 0 1-2.047-4.934 13.647 13.647 0 0 1-.262-2.671 13.647 13.647 0 0 1 2.309-7.61 13.747 13.747 0 0 1 6.145-5.043 13.647 13.647 0 0 1 5.242-1.043h369.05c.903 0 1.793.087 2.676.266a13.73 13.73 0 0 1 2.578.782 13.631 13.631 0 0 1 4.445 2.988 13.84 13.84 0 0 1 1.704 2.086 13.803 13.803 0 0 1 2.027 4.961c.172.883.254 1.777.246 2.68Zm0 62.696a13.647 13.647 0 0 1-4.004 9.672 13.747 13.747 0 0 1-2.074 1.703c-.746.5-1.535.922-2.363 1.261a13.608 13.608 0 0 1-5.234 1.043H513.167a13.647 13.647 0 0 1-7.61-2.308 13.747 13.747 0 0 1-5.043-6.145 13.647 13.647 0 0 1-1.043-5.242 13.647 13.647 0 0 1 2.31-7.61 13.747 13.747 0 0 1 3.777-3.777c.746-.5 1.535-.922 2.367-1.265a13.73 13.73 0 0 1 2.57-.778 13.651 13.651 0 0 1 2.672-.265H631.53a13.818 13.818 0 0 1 5.254 1.047 13.716 13.716 0 0 1 6.149 5.07 13.784 13.784 0 0 1 2.027 4.957c.172.887.254 1.777.246 2.68Zm0 0"/>
  </g>
</svg>
