<svg xmlns="http://www.w3.org/2000/svg" xmlns:xlink="http://www.w3.org/1999/xlink" width="1080" zoomAndPan="magnify" viewBox="0 0 810 809.999993" height="1080" preserveAspectRatio="xMidYMid meet" version="1.0"><defs><clipPath id="ac9818de2e"><path d="M 28 18.640625 L 782 18.640625 L 782 791 L 28 791 Z M 28 18.640625 " clip-rule="nonzero"/></clipPath></defs><g clip-path="url(#ac9818de2e)"><path fill="#f1ae2b" d="M 779.945312 559.636719 L 713.492188 417.425781 L 713.492188 186.296875 C 713.492188 184.480469 713.144531 182.738281 712.453125 181.0625 C 711.757812 179.386719 710.773438 177.910156 709.488281 176.625 L 588.886719 55.988281 C 587.605469 54.707031 586.125 53.71875 584.449219 53.023438 C 582.773438 52.328125 581.03125 51.980469 579.214844 51.980469 L 504.328125 51.980469 L 485.777344 40.78125 C 484.226562 39.84375 482.550781 39.242188 480.757812 38.96875 C 478.964844 38.695312 477.1875 38.773438 475.425781 39.207031 L 457.890625 43.523438 L 391.617188 19.46875 C 389.910156 18.851562 388.152344 18.582031 386.339844 18.664062 C 384.53125 18.742188 382.800781 19.167969 381.160156 19.933594 L 312.496094 52.011719 L 194.179688 52.011719 C 193.28125 52.011719 192.394531 52.101562 191.511719 52.277344 C 190.632812 52.449219 189.777344 52.710938 188.945312 53.054688 C 188.117188 53.398438 187.328125 53.820312 186.582031 54.316406 C 185.835938 54.816406 185.144531 55.382812 184.507812 56.019531 C 183.875 56.652344 183.308594 57.34375 182.808594 58.089844 C 182.308594 58.839844 181.886719 59.625 181.542969 60.457031 C 181.199219 61.285156 180.941406 62.140625 180.765625 63.023438 C 180.589844 63.902344 180.503906 64.792969 180.503906 65.691406 L 180.503906 111.753906 L 106.203125 130.046875 C 105.332031 130.261719 104.488281 130.558594 103.675781 130.9375 C 102.859375 131.316406 102.09375 131.773438 101.367188 132.304688 C 100.644531 132.835938 99.980469 133.433594 99.375 134.097656 C 98.769531 134.757812 98.234375 135.476562 97.769531 136.242188 C 97.304688 137.011719 96.917969 137.816406 96.613281 138.660156 C 96.308594 139.503906 96.085938 140.371094 95.953125 141.257812 C 95.816406 142.148438 95.769531 143.039062 95.808594 143.9375 C 95.851562 144.832031 95.976562 145.71875 96.195312 146.589844 L 97.628906 152.398438 L 36.652344 180.917969 C 35.835938 181.296875 35.066406 181.753906 34.34375 182.285156 C 33.617188 182.816406 32.953125 183.414062 32.347656 184.074219 C 31.742188 184.738281 31.203125 185.453125 30.738281 186.222656 C 30.273438 186.992188 29.886719 187.796875 29.582031 188.640625 C 29.273438 189.484375 29.054688 190.351562 28.917969 191.238281 C 28.78125 192.128906 28.734375 193.019531 28.777344 193.917969 C 28.816406 194.816406 28.945312 195.699219 29.160156 196.574219 C 29.375 197.445312 29.671875 198.289062 30.050781 199.101562 L 180.511719 521.082031 L 180.511719 717.847656 C 180.511719 718.746094 180.597656 719.632812 180.773438 720.515625 C 180.949219 721.394531 181.207031 722.25 181.550781 723.078125 C 181.894531 723.90625 182.316406 724.695312 182.816406 725.441406 C 183.3125 726.1875 183.878906 726.878906 184.515625 727.511719 C 185.148438 728.148438 185.839844 728.714844 186.585938 729.214844 C 187.332031 729.710938 188.121094 730.132812 188.949219 730.476562 C 189.777344 730.820312 190.632812 731.078125 191.515625 731.253906 C 192.394531 731.429688 193.285156 731.515625 194.179688 731.515625 L 240.039062 731.515625 L 249.996094 772.054688 C 250.210938 772.925781 250.507812 773.769531 250.886719 774.582031 C 251.269531 775.394531 251.722656 776.164062 252.253906 776.886719 C 252.785156 777.609375 253.382812 778.273438 254.046875 778.882812 C 254.707031 779.488281 255.425781 780.023438 256.191406 780.488281 C 256.960938 780.953125 257.765625 781.335938 258.609375 781.644531 C 259.457031 781.949219 260.320312 782.167969 261.207031 782.304688 C 262.097656 782.441406 262.988281 782.488281 263.886719 782.445312 C 264.78125 782.40625 265.667969 782.277344 266.539062 782.0625 L 298.757812 774.144531 L 302.726562 782.636719 C 303.105469 783.449219 303.558594 784.222656 304.085938 784.945312 C 304.617188 785.671875 305.214844 786.339844 305.875 786.949219 C 306.535156 787.554688 307.25 788.09375 308.019531 788.5625 C 308.785156 789.027344 309.59375 789.417969 310.4375 789.726562 C 311.28125 790.035156 312.148438 790.257812 313.035156 790.394531 C 313.921875 790.53125 314.816406 790.582031 315.714844 790.542969 C 316.613281 790.503906 317.496094 790.378906 318.371094 790.164062 C 319.242188 789.953125 320.085938 789.65625 320.902344 789.273438 L 413.71875 745.902344 L 472.007812 731.558594 L 699.820312 731.558594 C 700.71875 731.558594 701.609375 731.472656 702.488281 731.296875 C 703.367188 731.121094 704.222656 730.859375 705.050781 730.519531 C 705.882812 730.175781 706.667969 729.753906 707.414062 729.253906 C 708.160156 728.757812 708.851562 728.1875 709.488281 727.554688 C 710.121094 726.917969 710.6875 726.230469 711.1875 725.484375 C 711.683594 724.738281 712.105469 723.949219 712.449219 723.121094 C 712.792969 722.289062 713.054688 721.4375 713.226562 720.554688 C 713.402344 719.675781 713.492188 718.785156 713.492188 717.886719 L 713.492188 672.125 L 751.496094 662.769531 C 752.367188 662.554688 753.210938 662.257812 754.023438 661.878906 C 754.835938 661.5 755.605469 661.042969 756.328125 660.511719 C 757.054688 659.980469 757.71875 659.382812 758.324219 658.71875 C 758.929688 658.058594 759.464844 657.34375 759.929688 656.574219 C 760.394531 655.804688 760.78125 655 761.085938 654.15625 C 761.390625 653.3125 761.613281 652.445312 761.746094 651.558594 C 761.882812 650.671875 761.929688 649.777344 761.890625 648.882812 C 761.847656 647.984375 761.71875 647.101562 761.503906 646.226562 L 747.628906 589.789062 L 773.355469 577.773438 C 774.171875 577.394531 774.941406 576.9375 775.667969 576.410156 C 776.394531 575.878906 777.058594 575.28125 777.667969 574.621094 C 778.277344 573.957031 778.8125 573.246094 779.28125 572.476562 C 779.746094 571.707031 780.136719 570.902344 780.445312 570.058594 C 780.753906 569.214844 780.976562 568.347656 781.113281 567.460938 C 781.25 566.574219 781.300781 565.679688 781.261719 564.78125 C 781.222656 563.886719 781.097656 563 780.886719 562.125 C 780.671875 561.253906 780.375 560.410156 779.996094 559.59375 Z M 592.886719 98.699219 L 666.804688 172.617188 L 592.886719 172.617188 Z M 387.609375 47.097656 L 401.136719 52.011719 L 377.066406 52.011719 Z M 180.511719 139.914062 L 180.511719 375.039062 L 125.972656 153.335938 Z M 104.253906 179.515625 L 163.347656 419.734375 L 60.613281 199.90625 Z M 268.207031 731.515625 L 357.539062 731.515625 L 273.304688 752.265625 Z M 207.867188 704.128906 L 207.867188 79.359375 L 565.539062 79.359375 L 565.539062 186.296875 C 565.539062 187.191406 565.625 188.082031 565.800781 188.964844 C 565.976562 189.84375 566.234375 190.699219 566.578125 191.527344 C 566.921875 192.359375 567.34375 193.144531 567.84375 193.890625 C 568.34375 194.636719 568.910156 195.328125 569.546875 195.964844 C 570.179688 196.597656 570.871094 197.164062 571.617188 197.664062 C 572.363281 198.164062 573.152344 198.582031 573.984375 198.925781 C 574.8125 199.269531 575.667969 199.527344 576.546875 199.703125 C 577.429688 199.878906 578.320312 199.964844 579.214844 199.964844 L 686.144531 199.964844 L 686.144531 704.203125 Z M 713.492188 643.914062 L 713.492188 565.59375 L 731.683594 639.464844 Z M 740.972656 562.707031 L 729.585938 516.460938 L 749.378906 558.789062 Z M 248.792969 196.800781 C 248.792969 195.90625 248.882812 195.015625 249.054688 194.132812 C 249.230469 193.253906 249.492188 192.398438 249.835938 191.570312 C 250.179688 190.738281 250.601562 189.953125 251.097656 189.207031 C 251.597656 188.460938 252.164062 187.769531 252.800781 187.132812 C 253.433594 186.5 254.125 185.933594 254.871094 185.433594 C 255.621094 184.933594 256.40625 184.515625 257.238281 184.171875 C 258.066406 183.828125 258.921875 183.570312 259.804688 183.394531 C 260.683594 183.21875 261.574219 183.132812 262.472656 183.132812 L 378.609375 183.132812 C 379.496094 183.15625 380.367188 183.261719 381.230469 183.453125 C 382.09375 183.644531 382.929688 183.914062 383.742188 184.269531 C 384.550781 184.621094 385.320312 185.050781 386.046875 185.550781 C 386.773438 186.054688 387.445312 186.621094 388.0625 187.253906 C 388.679688 187.886719 389.230469 188.574219 389.714844 189.3125 C 390.199219 190.050781 390.609375 190.832031 390.941406 191.648438 C 391.277344 192.46875 391.527344 193.3125 391.695312 194.179688 C 391.867188 195.046875 391.953125 195.921875 391.953125 196.808594 C 391.953125 197.691406 391.867188 198.566406 391.695312 199.433594 C 391.527344 200.300781 391.277344 201.144531 390.941406 201.964844 C 390.609375 202.78125 390.199219 203.5625 389.714844 204.300781 C 389.230469 205.039062 388.679688 205.726562 388.0625 206.359375 C 387.445312 206.992188 386.773438 207.558594 386.046875 208.0625 C 385.320312 208.5625 384.550781 208.992188 383.742188 209.34375 C 382.929688 209.699219 382.09375 209.96875 381.230469 210.160156 C 380.367188 210.351562 379.496094 210.457031 378.609375 210.480469 L 262.480469 210.480469 C 261.582031 210.480469 260.695312 210.394531 259.816406 210.21875 C 258.9375 210.042969 258.082031 209.785156 257.253906 209.445312 C 256.425781 209.101562 255.640625 208.679688 254.894531 208.183594 C 254.148438 207.6875 253.457031 207.121094 252.824219 206.488281 C 252.1875 205.855469 251.621094 205.167969 251.121094 204.421875 C 250.621094 203.679688 250.199219 202.894531 249.855469 202.066406 C 249.511719 201.238281 249.25 200.386719 249.070312 199.507812 C 248.894531 198.628906 248.804688 197.742188 248.800781 196.84375 Z M 248.792969 253.199219 C 248.792969 252.300781 248.882812 251.414062 249.054688 250.53125 C 249.230469 249.652344 249.492188 248.796875 249.835938 247.964844 C 250.179688 247.136719 250.601562 246.347656 251.097656 245.601562 C 251.597656 244.855469 252.164062 244.164062 252.800781 243.53125 C 253.433594 242.894531 254.125 242.328125 254.871094 241.832031 C 255.621094 241.332031 256.40625 240.910156 257.238281 240.566406 C 258.066406 240.226562 258.921875 239.964844 259.804688 239.792969 C 260.683594 239.617188 261.574219 239.53125 262.472656 239.53125 L 472.222656 239.53125 C 473.125 239.53125 474.011719 239.617188 474.894531 239.792969 C 475.777344 239.96875 476.632812 240.226562 477.464844 240.574219 C 478.296875 240.917969 479.085938 241.339844 479.832031 241.835938 C 480.578125 242.335938 481.273438 242.90625 481.90625 243.539062 C 482.542969 244.175781 483.109375 244.867188 483.609375 245.617188 C 484.109375 246.363281 484.53125 247.152344 484.875 247.984375 C 485.21875 248.816406 485.480469 249.671875 485.65625 250.554688 C 485.832031 251.433594 485.917969 252.324219 485.917969 253.222656 C 485.917969 254.125 485.832031 255.015625 485.65625 255.894531 C 485.480469 256.777344 485.21875 257.632812 484.875 258.464844 C 484.53125 259.296875 484.109375 260.085938 483.609375 260.832031 C 483.109375 261.582031 482.542969 262.273438 481.90625 262.90625 C 481.273438 263.542969 480.578125 264.113281 479.832031 264.609375 C 479.085938 265.109375 478.296875 265.53125 477.464844 265.875 C 476.632812 266.222656 475.777344 266.480469 474.894531 266.65625 C 474.011719 266.832031 473.125 266.917969 472.222656 266.917969 L 262.480469 266.917969 C 261.582031 266.917969 260.691406 266.832031 259.8125 266.65625 C 258.929688 266.480469 258.074219 266.222656 257.246094 265.878906 C 256.414062 265.535156 255.628906 265.113281 254.878906 264.613281 C 254.132812 264.113281 253.441406 263.546875 252.808594 262.914062 C 252.171875 262.277344 251.605469 261.585938 251.105469 260.839844 C 250.609375 260.09375 250.1875 259.304688 249.84375 258.476562 C 249.5 257.644531 249.238281 256.789062 249.066406 255.910156 C 248.890625 255.027344 248.800781 254.140625 248.800781 253.242188 Z M 645.199219 328.953125 C 645.199219 329.851562 645.113281 330.738281 644.9375 331.621094 C 644.761719 332.5 644.503906 333.355469 644.160156 334.1875 C 643.816406 335.015625 643.394531 335.804688 642.894531 336.550781 C 642.394531 337.296875 641.828125 337.988281 641.195312 338.625 C 640.558594 339.257812 639.867188 339.824219 639.121094 340.324219 C 638.375 340.824219 637.585938 341.246094 636.757812 341.589844 C 635.925781 341.933594 635.070312 342.191406 634.191406 342.367188 C 633.308594 342.542969 632.421875 342.628906 631.523438 342.628906 L 262.480469 342.628906 C 261.582031 342.628906 260.691406 342.542969 259.808594 342.367188 C 258.925781 342.191406 258.070312 341.929688 257.238281 341.585938 C 256.410156 341.242188 255.617188 340.820312 254.871094 340.320312 C 254.125 339.824219 253.433594 339.253906 252.796875 338.617188 C 252.160156 337.984375 251.59375 337.292969 251.09375 336.542969 C 250.59375 335.796875 250.171875 335.007812 249.828125 334.175781 C 249.484375 333.34375 249.222656 332.488281 249.046875 331.605469 C 248.871094 330.726562 248.785156 329.835938 248.785156 328.933594 C 248.785156 328.035156 248.871094 327.144531 249.046875 326.261719 C 249.222656 325.382812 249.484375 324.523438 249.828125 323.695312 C 250.171875 322.863281 250.59375 322.074219 251.09375 321.328125 C 251.59375 320.578125 252.160156 319.886719 252.796875 319.25 C 253.433594 318.617188 254.125 318.046875 254.871094 317.546875 C 255.617188 317.050781 256.410156 316.628906 257.238281 316.28125 C 258.070312 315.9375 258.925781 315.679688 259.808594 315.503906 C 260.691406 315.328125 261.582031 315.242188 262.480469 315.242188 L 631.53125 315.242188 C 632.429688 315.242188 633.324219 315.328125 634.207031 315.503906 C 635.089844 315.683594 635.949219 315.941406 636.78125 316.289062 C 637.613281 316.636719 638.40625 317.058594 639.152344 317.5625 C 639.902344 318.0625 640.59375 318.632812 641.230469 319.273438 C 641.863281 319.914062 642.429688 320.605469 642.929688 321.359375 C 643.425781 322.109375 643.847656 322.902344 644.1875 323.734375 C 644.53125 324.570312 644.785156 325.429688 644.957031 326.3125 C 645.128906 327.199219 645.214844 328.09375 645.207031 328.992188 Z M 645.199219 391.65625 C 645.207031 392.558594 645.121094 393.449219 644.953125 394.335938 C 644.78125 395.21875 644.523438 396.078125 644.183594 396.914062 C 643.84375 397.746094 643.421875 398.539062 642.925781 399.292969 C 642.425781 400.042969 641.859375 400.738281 641.226562 401.375 C 640.589844 402.015625 639.898438 402.585938 639.152344 403.089844 C 638.402344 403.589844 637.613281 404.015625 636.78125 404.359375 C 635.949219 404.707031 635.089844 404.96875 634.207031 405.144531 C 633.324219 405.320312 632.429688 405.410156 631.53125 405.410156 L 262.480469 405.410156 C 261.582031 405.410156 260.691406 405.320312 259.808594 405.144531 C 258.925781 404.972656 258.070312 404.710938 257.238281 404.367188 C 256.410156 404.023438 255.617188 403.601562 254.871094 403.101562 C 254.125 402.601562 253.433594 402.035156 252.796875 401.398438 C 252.160156 400.761719 251.59375 400.070312 251.09375 399.324219 C 250.59375 398.574219 250.171875 397.785156 249.828125 396.957031 C 249.484375 396.125 249.222656 395.269531 249.046875 394.386719 C 248.871094 393.503906 248.785156 392.613281 248.785156 391.714844 C 248.785156 390.816406 248.871094 389.925781 249.046875 389.042969 C 249.222656 388.160156 249.484375 387.304688 249.828125 386.472656 C 250.171875 385.644531 250.59375 384.855469 251.09375 384.105469 C 251.59375 383.359375 252.160156 382.667969 252.796875 382.03125 C 253.433594 381.394531 254.125 380.828125 254.871094 380.328125 C 255.617188 379.828125 256.410156 379.40625 257.238281 379.0625 C 258.070312 378.71875 258.925781 378.457031 259.808594 378.285156 C 260.691406 378.109375 261.582031 378.019531 262.480469 378.019531 L 631.53125 378.019531 C 632.429688 378.019531 633.316406 378.109375 634.199219 378.28125 C 635.078125 378.457031 635.933594 378.71875 636.765625 379.0625 C 637.59375 379.40625 638.382812 379.828125 639.128906 380.324219 C 639.875 380.824219 640.566406 381.390625 641.203125 382.027344 C 641.835938 382.660156 642.402344 383.351562 642.902344 384.097656 C 643.402344 384.847656 643.824219 385.632812 644.167969 386.464844 C 644.511719 387.292969 644.769531 388.148438 644.945312 389.03125 C 645.121094 389.910156 645.207031 390.800781 645.207031 391.699219 Z M 645.199219 454.363281 C 645.199219 455.257812 645.113281 456.148438 644.9375 457.03125 C 644.761719 457.910156 644.503906 458.765625 644.160156 459.59375 C 643.816406 460.425781 643.394531 461.210938 642.894531 461.957031 C 642.394531 462.707031 641.828125 463.394531 641.191406 464.03125 C 640.558594 464.664062 639.867188 465.230469 639.121094 465.730469 C 638.375 466.230469 637.585938 466.648438 636.753906 466.992188 C 635.925781 467.335938 635.070312 467.59375 634.191406 467.769531 C 633.308594 467.945312 632.417969 468.03125 631.523438 468.03125 L 262.480469 468.03125 C 261.578125 468.03125 260.6875 467.945312 259.804688 467.773438 C 258.921875 467.597656 258.066406 467.339844 257.234375 466.996094 C 256.402344 466.652344 255.609375 466.230469 254.863281 465.730469 C 254.113281 465.230469 253.421875 464.664062 252.785156 464.027344 C 252.148438 463.390625 251.578125 462.699219 251.078125 461.953125 C 250.578125 461.203125 250.15625 460.414062 249.808594 459.582031 C 249.464844 458.75 249.207031 457.894531 249.03125 457.011719 C 248.855469 456.128906 248.765625 455.238281 248.765625 454.335938 C 248.765625 453.4375 248.855469 452.546875 249.03125 451.664062 C 249.207031 450.78125 249.464844 449.921875 249.808594 449.09375 C 250.15625 448.261719 250.578125 447.472656 251.078125 446.722656 C 251.578125 445.976562 252.148438 445.28125 252.785156 444.648438 C 253.421875 444.011719 254.113281 443.441406 254.863281 442.945312 C 255.609375 442.445312 256.402344 442.023438 257.234375 441.679688 C 258.066406 441.335938 258.921875 441.078125 259.804688 440.902344 C 260.6875 440.726562 261.578125 440.640625 262.480469 440.640625 L 631.53125 440.640625 C 632.429688 440.640625 633.324219 440.730469 634.207031 440.90625 C 635.089844 441.082031 635.945312 441.34375 636.777344 441.6875 C 637.609375 442.035156 638.398438 442.457031 639.148438 442.960938 C 639.894531 443.460938 640.585938 444.03125 641.222656 444.667969 C 641.859375 445.308594 642.425781 446 642.921875 446.75 C 643.421875 447.5 643.84375 448.292969 644.183594 449.125 C 644.527344 449.960938 644.78125 450.816406 644.957031 451.703125 C 645.128906 452.585938 645.210938 453.476562 645.207031 454.378906 Z M 645.199219 517.066406 C 645.199219 517.964844 645.113281 518.855469 644.9375 519.734375 C 644.761719 520.617188 644.503906 521.46875 644.160156 522.300781 C 643.816406 523.128906 643.394531 523.917969 642.894531 524.664062 C 642.394531 525.410156 641.828125 526.101562 641.191406 526.734375 C 640.558594 527.371094 639.867188 527.9375 639.121094 528.4375 C 638.375 528.933594 637.585938 529.355469 636.753906 529.699219 C 635.925781 530.042969 635.070312 530.300781 634.191406 530.476562 C 633.308594 530.648438 632.417969 530.738281 631.523438 530.738281 L 262.480469 530.738281 C 261.582031 530.738281 260.691406 530.648438 259.808594 530.472656 C 258.925781 530.296875 258.070312 530.039062 257.238281 529.695312 C 256.410156 529.351562 255.617188 528.929688 254.871094 528.429688 C 254.125 527.929688 253.433594 527.359375 252.796875 526.726562 C 252.160156 526.089844 251.59375 525.398438 251.09375 524.648438 C 250.59375 523.902344 250.171875 523.113281 249.828125 522.28125 C 249.484375 521.453125 249.222656 520.59375 249.046875 519.714844 C 248.871094 518.832031 248.785156 517.941406 248.785156 517.042969 C 248.785156 516.144531 248.871094 515.253906 249.046875 514.371094 C 249.222656 513.488281 249.484375 512.632812 249.828125 511.800781 C 250.171875 510.96875 250.59375 510.179688 251.09375 509.433594 C 251.59375 508.6875 252.160156 507.992188 252.796875 507.359375 C 253.433594 506.722656 254.125 506.15625 254.871094 505.65625 C 255.617188 505.15625 256.410156 504.734375 257.238281 504.390625 C 258.070312 504.046875 258.925781 503.785156 259.808594 503.609375 C 260.691406 503.433594 261.582031 503.347656 262.480469 503.347656 L 631.53125 503.347656 C 632.433594 503.347656 633.324219 503.433594 634.207031 503.613281 C 635.09375 503.789062 635.953125 504.050781 636.785156 504.394531 C 637.617188 504.742188 638.40625 505.167969 639.15625 505.667969 C 639.902344 506.171875 640.597656 506.742188 641.230469 507.382812 C 641.867188 508.023438 642.433594 508.71875 642.933594 509.46875 C 643.429688 510.222656 643.851562 511.015625 644.191406 511.847656 C 644.53125 512.683594 644.789062 513.542969 644.960938 514.429688 C 645.132812 515.3125 645.214844 516.207031 645.207031 517.109375 Z M 645.199219 579.761719 C 645.199219 580.660156 645.113281 581.550781 644.9375 582.433594 C 644.761719 583.3125 644.503906 584.167969 644.160156 584.996094 C 643.816406 585.828125 643.394531 586.617188 642.894531 587.363281 C 642.394531 588.109375 641.828125 588.800781 641.195312 589.433594 C 640.558594 590.070312 639.867188 590.636719 639.121094 591.136719 C 638.375 591.636719 637.585938 592.058594 636.757812 592.398438 C 635.925781 592.742188 635.070312 593.003906 634.191406 593.179688 C 633.308594 593.355469 632.421875 593.441406 631.523438 593.441406 L 513.167969 593.441406 C 512.269531 593.441406 511.378906 593.355469 510.496094 593.179688 C 509.613281 593.003906 508.757812 592.742188 507.925781 592.398438 C 507.09375 592.054688 506.304688 591.632812 505.558594 591.132812 C 504.8125 590.632812 504.117188 590.066406 503.484375 589.429688 C 502.847656 588.792969 502.28125 588.101562 501.78125 587.355469 C 501.28125 586.609375 500.859375 585.816406 500.515625 584.988281 C 500.171875 584.15625 499.910156 583.300781 499.734375 582.417969 C 499.558594 581.535156 499.472656 580.644531 499.472656 579.746094 C 499.472656 578.847656 499.558594 577.957031 499.734375 577.074219 C 499.910156 576.191406 500.171875 575.335938 500.515625 574.507812 C 500.859375 573.675781 501.28125 572.886719 501.78125 572.136719 C 502.28125 571.390625 502.847656 570.699219 503.484375 570.0625 C 504.117188 569.425781 504.8125 568.859375 505.558594 568.359375 C 506.304688 567.859375 507.09375 567.4375 507.925781 567.09375 C 508.757812 566.75 509.613281 566.492188 510.496094 566.316406 C 511.378906 566.140625 512.269531 566.050781 513.167969 566.050781 L 631.53125 566.050781 C 632.433594 566.050781 633.324219 566.140625 634.207031 566.316406 C 635.09375 566.492188 635.949219 566.753906 636.785156 567.097656 C 637.617188 567.445312 638.40625 567.867188 639.15625 568.371094 C 639.902344 568.871094 640.59375 569.441406 641.230469 570.082031 C 641.867188 570.722656 642.433594 571.417969 642.933594 572.167969 C 643.429688 572.917969 643.851562 573.710938 644.191406 574.546875 C 644.53125 575.378906 644.789062 576.242188 644.960938 577.125 C 645.132812 578.011719 645.214844 578.902344 645.207031 579.804688 Z M 645.199219 579.761719 " fill-opacity="1" fill-rule="nonzero"/></g></svg>