<svg xmlns="http://www.w3.org/2000/svg" width="1080" height="1080" version="1.0" viewBox="0 0 810 810">
  <defs>
    <clipPath id="a">
      <path d="M207.031 375H608v240.715H207.031Zm0 0"/>
    </clipPath>
    <clipPath id="b">
      <path d="M527.137 339h272.93v193h-272.93Zm0 0"/>
    </clipPath>
  </defs>
  <path fill="#f1ae2b" d="M292.145 265.559c0-63.7 51.64-115.336 115.335-115.336 63.7 0 115.344 51.636 115.344 115.336 0 63.703-51.644 115.343-115.344 115.343-63.695 0-115.335-51.64-115.335-115.343"/>
  <g clip-path="url(#a)">
    <path fill="#f1ae2b" d="m605.71 552.648-16.444-63.398c-13.41-51.656-49.586-92.633-96.094-113.316-23.664 18.402-53.383 29.39-85.692 29.39-32.3 0-62.02-10.988-85.69-29.39-46.509 20.683-82.685 61.66-96.09 113.316l-16.442 63.398c-8.285 31.914 15.808 63.059 48.789 63.059h298.875c32.976 0 57.074-31.144 48.789-63.059"/>
  </g>
  <path fill="#f1ae2b" d="M82.629 250.79c0-50.985 41.336-92.321 92.32-92.321 50.985 0 92.32 41.336 92.32 92.32 0 50.984-41.335 92.32-92.32 92.32-50.984 0-92.32-41.336-92.32-92.32"/>
  <path fill="#f1ae2b" d="M204.547 488.398c12.824-49.414 43.402-90.492 83.832-117.132-12.598-13.598-27.848-24.579-44.844-32.137-18.945 14.734-42.734 23.531-68.586 23.531-25.86 0-49.648-8.797-68.594-23.531-37.222 16.555-66.175 49.355-76.906 90.703l-13.168 50.742c-6.629 25.551 12.66 50.48 39.051 50.48H193.48l11.067-42.656M732.902 250.79c0-50.985-41.336-92.321-92.32-92.321-50.988 0-92.32 41.336-92.32 92.32 0 50.984 41.332 92.32 92.32 92.32 50.984 0 92.32-41.336 92.32-92.32"/>
  <g clip-path="url(#b)">
    <path fill="#f1ae2b" d="M610.977 488.398c-12.817-49.414-43.395-90.492-83.825-117.132 12.598-13.598 27.844-24.579 44.844-32.137 18.945 14.734 42.727 23.531 68.586 23.531 25.86 0 49.64-8.797 68.594-23.531 37.222 16.555 66.176 49.355 76.906 90.703l13.168 50.742c6.629 25.551-12.66 50.48-39.059 50.48h-138.14l-11.074-42.656"/>
  </g>
</svg>
