<svg xmlns="http://www.w3.org/2000/svg" xmlns:xlink="http://www.w3.org/1999/xlink" width="1080" zoomAndPan="magnify" viewBox="0 0 810 809.999993" height="1080" preserveAspectRatio="xMidYMid meet" version="1.0"><defs><clipPath id="f911a3af68"><path d="M 26.046875 393 L 777 393 L 777 793 L 26.046875 793 Z M 26.046875 393 " clip-rule="nonzero"/></clipPath></defs><g clip-path="url(#f911a3af68)"><path fill="#f1ae2b" d="M 38.152344 720.082031 C 31.492188 720.082031 26.046875 725.53125 26.046875 732.191406 C 26.046875 738.847656 31.492188 744.296875 38.152344 744.296875 L 122.296875 744.296875 C 135.613281 744.296875 147.117188 733.402344 147.117188 720.082031 L 147.117188 690.421875 C 153.167969 691.027344 159.222656 693.449219 165.882812 695.265625 L 426.183594 790.304688 C 426.183594 790.304688 426.789062 790.304688 426.789062 790.304688 C 431.023438 791.515625 434.65625 792.121094 438.894531 792.121094 C 449.1875 792.121094 459.476562 788.488281 467.953125 781.222656 L 753.070312 543.925781 C 779.101562 521.527344 783.945312 480.96875 763.96875 454.335938 C 753.675781 440.410156 738.542969 431.9375 721.59375 430.121094 C 704.644531 428.304688 688.300781 433.753906 675.585938 444.648438 L 535.75 566.324219 C 538.171875 573.589844 539.382812 581.457031 539.382812 589.933594 C 539.382812 591.75 539.382812 593.566406 538.777344 595.988281 L 691.324219 464.625 C 699.195312 457.96875 708.882812 454.941406 719.171875 456.152344 C 729.460938 457.363281 738.542969 462.203125 744.597656 470.679688 C 757.308594 487.628906 754.28125 513.054688 737.332031 526.976562 L 452.210938 764.273438 C 447.371094 768.511719 440.105469 770.328125 434.050781 768.511719 L 176.777344 674.683594 L 173.75 673.472656 C 165.882812 671.050781 156.800781 668.023438 147.117188 666.8125 L 147.117188 479.152344 L 175.566406 461.597656 C 176.777344 460.992188 177.382812 460.992188 178.59375 460.386719 C 179.199219 460.386719 179.199219 460.386719 179.804688 459.78125 C 181.015625 459.175781 181.621094 459.175781 182.832031 458.570312 C 182.832031 458.570312 183.4375 458.570312 183.4375 458.570312 C 184.042969 458.570312 184.648438 457.96875 185.253906 457.96875 C 185.859375 457.96875 185.859375 457.96875 186.464844 457.363281 C 187.070312 457.363281 187.070312 457.363281 187.675781 457.363281 C 188.28125 457.363281 188.886719 457.363281 189.492188 457.363281 C 189.492188 457.363281 189.492188 457.363281 190.097656 457.363281 C 191.910156 457.363281 193.121094 457.363281 194.332031 457.363281 C 194.332031 457.363281 194.9375 457.363281 194.9375 457.363281 C 195.542969 457.363281 195.542969 457.363281 196.148438 457.363281 C 196.753906 457.363281 197.359375 457.363281 197.964844 457.96875 L 441.921875 541.503906 C 442.527344 541.503906 442.527344 541.503906 443.132812 542.109375 C 466.136719 546.953125 490.347656 568.140625 490.347656 590.539062 C 490.347656 603.855469 484.902344 617.175781 474.609375 625.648438 C 465.53125 633.519531 454.027344 637.152344 442.527344 635.941406 L 291.792969 588.722656 C 285.136719 586.90625 278.476562 590.539062 276.660156 596.59375 C 274.84375 603.25 278.476562 609.910156 284.53125 611.726562 L 436.472656 659.546875 C 437.078125 659.546875 437.683594 660.152344 438.289062 660.152344 C 441.316406 660.757812 444.34375 660.757812 447.371094 660.757812 C 463.109375 660.757812 478.847656 654.707031 490.953125 644.414062 C 506.089844 631.097656 515.167969 611.726562 515.167969 591.144531 C 515.167969 555.429688 481.875 526.371094 449.792969 519.105469 L 205.230469 433.753906 C 204.625 433.753906 204.019531 433.148438 203.414062 433.148438 C 195.542969 431.9375 187.675781 431.332031 175.566406 434.964844 C 172.539062 436.175781 168.910156 437.386719 165.277344 439.199219 C 164.671875 439.199219 164.671875 439.804688 164.066406 439.804688 L 147.117188 450.097656 L 147.117188 417.410156 C 147.117188 404.089844 136.21875 393.195312 122.296875 393.195312 L 38.152344 393.195312 C 31.492188 393.195312 26.046875 398.640625 26.046875 405.300781 C 26.046875 411.960938 31.492188 417.410156 38.152344 417.410156 L 122.902344 417.410156 L 122.296875 720.082031 Z M 38.152344 720.082031 " fill-opacity="1" fill-rule="nonzero"/></g><path fill="#f1ae2b" d="M 710.695312 180.714844 C 705.25 163.765625 687.089844 156.503906 671.347656 149.84375 C 661.664062 145.605469 651.371094 141.367188 647.742188 136.527344 C 644.109375 131.078125 642.898438 119.574219 642.292969 109.285156 C 641.082031 92.335938 639.265625 72.964844 625.34375 62.671875 C 611.417969 52.382812 592.652344 56.621094 576.308594 60.855469 C 566.019531 63.277344 554.515625 65.699219 548.464844 63.882812 C 543.015625 62.066406 535.144531 53.59375 528.488281 45.722656 C 516.984375 32.40625 503.667969 17.878906 486.113281 17.878906 C 468.558594 17.878906 455.238281 32.40625 444.34375 45.722656 C 437.683594 53.59375 430.417969 62.066406 424.367188 63.882812 C 418.3125 65.699219 406.8125 63.277344 396.519531 60.855469 C 380.175781 57.226562 361.410156 52.988281 347.488281 62.671875 C 333.5625 72.964844 331.746094 92.335938 330.535156 109.285156 C 329.933594 119.574219 328.722656 131.078125 325.089844 136.527344 C 321.457031 141.367188 310.558594 146.210938 301.480469 149.84375 C 285.742188 156.503906 267.582031 163.765625 262.132812 180.714844 C 256.683594 197.0625 266.976562 212.800781 275.449219 227.328125 C 280.292969 237.015625 286.347656 247.304688 286.347656 253.964844 C 286.347656 260.621094 280.292969 270.914062 274.84375 279.992188 C 266.371094 294.523438 256.683594 310.867188 261.527344 326.605469 C 266.976562 343.554688 285.136719 350.820312 300.875 357.480469 C 310.558594 361.714844 320.851562 365.953125 324.484375 370.796875 C 328.117188 376.246094 329.328125 387.746094 329.933594 398.039062 C 331.140625 414.988281 332.957031 434.359375 346.882812 444.648438 C 360.804688 454.941406 379.570312 450.703125 395.914062 446.464844 C 406.207031 444.042969 417.707031 441.621094 423.761719 443.4375 C 429.210938 445.253906 437.078125 453.730469 443.738281 461.597656 C 455.238281 474.917969 467.953125 489.445312 485.507812 489.445312 C 503.0625 489.445312 516.378906 474.917969 527.277344 461.597656 C 533.933594 453.730469 541.199219 445.253906 547.253906 443.4375 C 553.304688 441.621094 564.808594 444.042969 575.097656 446.464844 C 591.441406 450.097656 610.207031 454.335938 624.132812 444.648438 C 638.054688 434.359375 639.871094 414.988281 641.082031 398.039062 C 641.6875 387.746094 642.898438 376.246094 646.53125 370.796875 C 650.160156 365.953125 661.058594 361.109375 670.136719 357.480469 C 685.878906 350.820312 704.039062 343.554688 709.488281 326.605469 C 714.933594 310.261719 704.644531 294.523438 696.167969 279.992188 C 690.71875 270.308594 684.667969 260.621094 684.667969 253.964844 C 684.667969 247.304688 690.71875 237.015625 696.167969 227.933594 C 705.855469 213.40625 716.144531 197.0625 710.695312 180.714844 Z M 676.796875 215.222656 C 669.53125 227.328125 661.664062 240.644531 661.664062 253.964844 C 661.664062 267.28125 669.53125 279.992188 676.796875 292.707031 C 682.246094 302.390625 689.507812 313.894531 687.695312 319.339844 C 685.878906 325.394531 673.164062 330.84375 662.269531 335.6875 C 649.558594 341.132812 635.632812 346.582031 628.371094 357.480469 C 620.5 368.375 619.289062 382.902344 618.078125 396.828125 C 616.867188 408.933594 615.65625 422.25 610.8125 425.882812 C 605.972656 429.515625 592.046875 426.488281 581.152344 424.066406 C 567.230469 421.039062 552.699219 417.410156 539.988281 421.644531 C 527.882812 425.882812 518.195312 436.175781 509.117188 447.070312 C 501.851562 455.546875 492.769531 465.835938 486.113281 465.835938 C 479.453125 465.835938 470.371094 455.546875 462.503906 446.464844 C 453.421875 435.570312 443.738281 424.671875 431.628906 421.039062 C 427.394531 419.828125 423.15625 419.222656 418.3125 419.222656 C 409.234375 419.222656 399.546875 421.644531 390.464844 423.460938 C 379.570312 425.882812 366.253906 428.910156 360.804688 425.277344 C 355.960938 421.644531 354.75 408.328125 353.539062 396.222656 C 352.328125 382.296875 351.117188 367.769531 343.25 356.875 C 335.378906 346.582031 322.0625 340.527344 309.351562 335.082031 C 298.453125 330.238281 285.742188 325.394531 283.925781 318.734375 C 282.109375 313.289062 289.375 301.179688 294.820312 292.101562 C 302.085938 279.992188 309.957031 266.675781 309.957031 253.359375 C 309.957031 240.039062 302.085938 227.328125 294.820312 214.617188 C 289.375 204.929688 282.109375 193.429688 283.925781 187.980469 C 285.742188 181.925781 298.453125 176.480469 309.351562 171.636719 C 322.0625 166.1875 335.984375 160.738281 343.25 149.84375 C 351.117188 138.945312 352.328125 124.417969 353.539062 110.496094 C 354.75 98.390625 355.960938 85.070312 360.804688 81.4375 C 365.648438 77.808594 379.570312 80.832031 390.464844 83.253906 C 404.390625 86.28125 418.917969 89.914062 431.628906 85.675781 C 443.738281 81.4375 453.421875 71.148438 462.503906 60.25 C 470.371094 52.382812 479.453125 42.089844 486.113281 42.089844 C 492.769531 42.089844 501.851562 52.382812 509.722656 61.460938 C 518.800781 72.359375 528.488281 83.253906 540.59375 86.886719 C 553.304688 91.125 567.835938 87.492188 581.757812 84.464844 C 592.652344 82.042969 605.972656 79.019531 611.417969 82.648438 C 616.261719 86.28125 617.472656 99.597656 618.683594 111.707031 C 619.894531 125.628906 621.105469 140.15625 628.976562 151.054688 C 636.84375 161.34375 650.160156 167.398438 662.875 172.847656 C 673.769531 177.691406 686.484375 182.53125 688.300781 189.191406 C 689.507812 194.035156 682.246094 205.535156 676.796875 215.222656 Z M 676.796875 215.222656 " fill-opacity="1" fill-rule="nonzero"/><path fill="#f1ae2b" d="M 486.113281 90.519531 C 395.914062 90.519531 322.667969 163.765625 322.667969 253.964844 C 322.667969 344.160156 395.914062 417.410156 486.113281 417.410156 C 576.308594 417.410156 649.554688 344.160156 649.554688 253.964844 C 649.554688 163.765625 576.308594 90.519531 486.113281 90.519531 Z M 486.113281 393.195312 C 409.234375 393.195312 346.882812 330.84375 346.882812 253.964844 C 346.882812 177.085938 409.234375 114.734375 486.113281 114.734375 C 562.992188 114.734375 625.34375 177.085938 625.34375 253.964844 C 625.34375 330.84375 562.992188 393.195312 486.113281 393.195312 Z M 486.113281 393.195312 " fill-opacity="1" fill-rule="nonzero"/><path fill="#f1ae2b" d="M 556.332031 191.007812 L 455.84375 291.496094 L 415.890625 251.542969 C 411.046875 246.699219 403.785156 246.699219 398.941406 251.542969 C 394.097656 256.386719 394.097656 263.648438 398.941406 268.492188 L 447.371094 316.921875 C 449.792969 319.339844 452.816406 320.550781 455.84375 320.550781 C 458.871094 320.550781 461.898438 319.339844 464.320312 316.921875 L 573.28125 207.957031 C 578.125 203.113281 578.125 195.851562 573.28125 191.007812 C 568.441406 186.164062 561.175781 186.164062 556.332031 191.007812 Z M 556.332031 191.007812 " fill-opacity="1" fill-rule="nonzero"/></svg>