<svg xmlns="http://www.w3.org/2000/svg" width="1080" height="1080" version="1.0" viewBox="0 0 810 810">
  <defs>
    <clipPath id="a">
      <path d="M26.047 393H777v400H26.047Zm0 0"/>
    </clipPath>
  </defs>
  <g clip-path="url(#a)">
    <path fill="#f1ae2b" d="M38.152 720.082c-6.66 0-12.105 5.45-12.105 12.11 0 6.656 5.445 12.105 12.105 12.105h84.145c13.316 0 24.82-10.895 24.82-24.215v-29.66c6.051.605 12.106 3.027 18.766 4.844l260.3 95.039h.606c4.234 1.21 7.867 1.816 12.106 1.816 10.293 0 20.582-3.633 29.058-10.898L753.07 543.926c26.032-22.399 30.875-62.957 10.899-89.59-10.293-13.926-25.426-22.399-42.375-24.215-16.95-1.816-33.293 3.633-46.008 14.527L535.75 566.324c2.422 7.266 3.633 15.133 3.633 23.61 0 1.816 0 3.632-.606 6.054l152.547-131.363c7.871-6.656 17.559-9.684 27.848-8.473 10.289 1.211 19.371 6.051 25.426 14.528 12.71 16.949 9.683 42.375-7.266 56.297L452.211 764.273c-4.84 4.239-12.106 6.055-18.16 4.239l-257.274-93.828-3.027-1.211c-7.867-2.422-16.95-5.45-26.633-6.66v-187.66l28.45-17.555c1.21-.606 1.816-.606 3.027-1.211.605 0 .605 0 1.21-.606 1.212-.605 1.817-.605 3.028-1.21h.606c.605 0 1.21-.602 1.816-.602.605 0 .605 0 1.21-.606h9.685c.606 0 1.211 0 1.817.606l243.957 83.535c.605 0 .605 0 1.21.605 23.005 4.844 47.216 26.032 47.216 48.43 0 13.316-5.446 26.637-15.739 35.11-9.078 7.87-20.582 11.503-32.082 10.292l-150.734-47.218c-6.656-1.817-13.316 1.816-15.133 7.87-1.816 6.657 1.817 13.317 7.871 15.134l151.942 47.82c.605 0 1.21.605 1.816.605 3.027.606 6.055.606 9.082.606 15.738 0 31.477-6.051 43.582-16.344 15.137-13.316 24.215-32.687 24.215-53.27 0-35.714-33.293-64.773-65.375-72.039L205.23 433.754c-.605 0-1.21-.606-1.816-.606-7.871-1.21-15.738-1.816-27.848 1.817-3.027 1.21-6.656 2.422-10.289 4.234-.605 0-.605.606-1.21.606l-16.95 10.293V417.41c0-13.32-10.898-24.215-24.82-24.215H38.152c-6.66 0-12.105 5.446-12.105 12.106s5.445 12.11 12.105 12.11h84.75l-.605 302.671Zm0 0"/>
  </g>
  <path fill="#f1ae2b" d="M710.695 180.715c-5.445-16.95-23.605-24.211-39.347-30.871-9.684-4.239-19.977-8.477-23.606-13.317-3.633-5.449-4.844-16.953-5.449-27.242-1.211-16.95-3.027-36.32-16.95-46.613-13.925-10.29-32.69-6.05-49.034-1.817-10.29 2.422-21.793 4.844-27.844 3.028-5.45-1.817-13.32-10.29-19.977-18.16-11.504-13.317-24.82-27.844-42.375-27.844-17.554 0-30.875 14.527-41.77 27.844-6.66 7.87-13.925 16.343-19.976 18.16-6.055 1.816-17.555-.606-27.847-3.028-16.344-3.628-35.11-7.867-49.032 1.817-13.925 10.293-15.742 29.664-16.953 46.613-.601 10.29-1.812 21.793-5.445 27.242-3.633 4.84-14.531 9.684-23.61 13.317-15.738 6.66-33.898 13.922-39.347 30.87-5.45 16.349 4.844 32.087 13.316 46.614 4.844 9.688 10.899 19.977 10.899 26.637 0 6.656-6.055 16.95-11.504 26.027-8.473 14.531-18.16 30.875-13.317 46.613 5.45 16.95 23.61 24.215 39.348 30.875 9.684 4.235 19.977 8.473 23.61 13.317 3.632 5.45 4.843 16.95 5.449 27.242 1.207 16.95 3.023 36.32 16.949 46.61 13.922 10.292 32.687 6.054 49.031 1.816 10.293-2.422 21.793-4.844 27.848-3.027 5.449 1.816 13.316 10.292 19.976 18.16 11.5 13.32 24.215 27.847 41.77 27.847 17.555 0 30.87-14.527 41.77-27.847 6.656-7.868 13.921-16.344 19.976-18.16 6.05-1.817 17.555.605 27.844 3.027 16.343 3.633 35.109 7.87 49.035-1.817 13.922-10.289 15.738-29.66 16.949-46.609.606-10.293 1.816-21.793 5.45-27.242 3.628-4.844 14.527-9.688 23.605-13.317 15.742-6.66 33.902-13.925 39.351-30.875 5.446-16.343-4.843-32.082-13.32-46.613-5.45-9.683-11.5-19.37-11.5-26.027 0-6.66 6.05-16.95 11.5-26.031 9.687-14.528 19.977-30.871 14.527-47.22Zm-33.898 34.508c-7.266 12.105-15.133 25.422-15.133 38.742 0 13.316 7.867 26.027 15.133 38.742 5.45 9.684 12.71 21.188 10.898 26.633-1.816 6.055-14.53 11.504-25.425 16.348-12.711 5.445-26.637 10.894-33.899 21.792-7.871 10.895-9.082 25.422-10.293 39.348-1.21 12.106-2.422 25.422-7.265 29.055-4.84 3.633-18.766.605-29.66-1.817-13.923-3.027-28.454-6.656-41.165-2.421-12.105 4.238-21.793 14.53-30.87 25.425-7.266 8.477-16.348 18.766-23.005 18.766-6.66 0-15.742-10.29-23.61-19.371-9.081-10.895-18.765-21.793-30.874-25.426-4.234-1.21-8.473-1.816-13.317-1.816-9.078 0-18.765 2.422-27.847 4.238-10.895 2.422-24.211 5.45-29.66 1.816-4.844-3.632-6.055-16.949-7.266-29.054-1.21-13.926-2.422-28.453-10.289-39.348-7.871-10.293-21.188-16.348-33.898-21.793-10.899-4.844-23.61-9.687-25.426-16.348-1.817-5.445 5.449-17.554 10.894-26.632 7.266-12.11 15.137-25.426 15.137-38.743 0-13.32-7.871-26.03-15.137-38.742-5.445-9.687-12.71-21.187-10.894-26.637 1.816-6.054 14.527-11.5 25.426-16.343 12.71-5.45 26.632-10.899 33.898-21.793 7.867-10.899 9.078-25.426 10.29-39.348 1.21-12.105 2.42-25.426 7.265-29.058 4.843-3.63 18.765-.606 29.66 1.816 13.926 3.027 28.453 6.66 41.164 2.422 12.11-4.239 21.793-14.528 30.875-25.426 7.867-7.867 16.95-18.16 23.61-18.16 6.656 0 15.738 10.293 23.609 19.37 9.078 10.9 18.765 21.794 30.87 25.427 12.712 4.238 27.243.605 41.165-2.422 10.894-2.422 24.215-5.445 29.66-1.817 4.844 3.633 6.055 16.95 7.266 29.059 1.21 13.922 2.421 28.45 10.293 39.348 7.867 10.289 21.183 16.343 33.898 21.793 10.895 4.843 23.61 9.683 25.426 16.343 1.207 4.844-6.055 16.344-11.504 26.032Zm0 0"/>
  <path fill="#f1ae2b" d="M486.113 90.52c-90.199 0-163.445 73.246-163.445 163.445 0 90.195 73.246 163.445 163.445 163.445 90.196 0 163.442-73.25 163.442-163.445 0-90.2-73.246-163.445-163.442-163.445Zm0 302.675c-76.879 0-139.23-62.351-139.23-139.23 0-76.88 62.351-139.23 139.23-139.23 76.88 0 139.23 62.35 139.23 139.23 0 76.879-62.35 139.23-139.23 139.23Zm0 0"/>
  <path fill="#f1ae2b" d="M556.332 191.008 455.844 291.496l-39.953-39.953c-4.844-4.844-12.106-4.844-16.95 0-4.843 4.844-4.843 12.105 0 16.95l48.43 48.429c2.422 2.418 5.445 3.629 8.473 3.629 3.027 0 6.054-1.211 8.476-3.63l108.961-108.964c4.844-4.844 4.844-12.105 0-16.95-4.84-4.843-12.105-4.843-16.949 0Zm0 0"/>
</svg>
