<svg xmlns="http://www.w3.org/2000/svg" width="1080" height="1080" version="1.0" viewBox="0 0 810 810">
  <defs>
    <clipPath id="a">
      <path d="M57 320h696v483.254H57Zm0 0"/>
    </clipPath>
    <clipPath id="b">
      <path d="M56.707 161H753v491H56.707Zm0 0"/>
    </clipPath>
    <clipPath id="c">
      <path d="M57 6.754h696.457V497H57Zm0 0"/>
    </clipPath>
  </defs>
  <g clip-path="url(#a)">
    <path fill="#f1ae2b" d="m57.54 802.703 694.644.55L405.55 320.888Zm0 0"/>
  </g>
  <g clip-path="url(#b)">
    <path fill="#f1ae2b" d="M67.727 640.54 405.55 172.765l336.168 468.05-673.992-.277m-11.012 0c0 1.652.277 3.305 1.101 4.957 1.926 3.578 5.782 6.055 9.91 6.055l673.993.277c4.133 0 7.984-2.203 9.914-6.058.824-1.653 1.101-3.305 1.101-4.954 0-2.203-.828-4.406-2.203-6.336L414.36 166.434c-2.203-2.754-5.504-4.684-8.808-4.684-3.578 0-6.883 1.652-8.813 4.684L58.918 633.93c-1.379 1.93-2.203 4.133-2.203 6.61Zm0 0"/>
  </g>
  <g clip-path="url(#c)">
    <path fill="#f1ae2b" d="m68.277 485.258 337.825-467.5 336.168 468.05-673.993-.55m-11.011 0c0 1.652.273 3.3 1.101 4.953 1.926 3.582 5.781 6.059 9.91 6.059l673.993.55c4.132 0 7.984-2.203 9.914-6.058.824-1.653 1.101-3.301 1.101-4.953 0-2.204-.828-4.407-2.203-6.332L414.91 11.426c-2.203-2.754-5.504-4.684-8.808-4.684-3.579 0-6.883 1.653-8.813 4.684L59.47 478.648c-1.38 1.926-2.203 4.407-2.203 6.61Zm0 0"/>
  </g>
</svg>
